<svg class="img-fluid" xmlns="http://www.w3.org/2000/svg" style="transform:matrix(.85683,0,0,.85683,14,-3);transform-origin:50% 50%;cursor:move;max-height:363.94px;transition:none" width="512" height="512" viewBox="67.992 250.316 4983.418 4619.287"><g style="transform:none" fill="#B7C5FD"><path d="M1859 4851c-214-84-335-328-369-746-5-66-10-128-10-137 0-14 14-7 60 29 48 37 60 52 60 74 0 39 26 162 51 239 55 169 153 295 276 352 61 29 77 33 158 33 102 0 195-20 195-41 0-24 29-15 36 10 3 14 14 32 25 42 19 17 28 71 10 60-5-3-51 14-102 38-52 24-115 49-141 55-71 17-195 13-249-8"/><path d="M2533 4570c-29-36-31-70-4-63 12 3 37-13 77-51s53-55 42-56c-10 0-18-5-18-10 0-6 43-59 96-118 85-95 231-281 277-353l17-25-143-97c-79-52-202-139-273-193-71-53-134-98-140-101-6-2-85 20-175 50s-188 60-216 68c-45 11-53 16-53 36s-5 23-40 23c-32 0-40-4-40-18 0-10-7-28-16-40-8-12-14-36-12-54 3-30 5-32 93-55 112-29 348-103 344-107-2-2-46-38-98-81s-130-111-173-150l-78-72-102-7c-243-17-633-69-842-112-114-23-121-23-130-7-9 15-12 12-23-22-13-38-13-38-8-6 5 31-1 41-53 100-157 177-218 312-193 426 30 132 173 204 434 220 129 8 176 3 157-20-9-11-1-15 47-20 107-12 265-35 337-50 39-8 90-15 114-15h42v107l-87 21c-105 25-306 62-341 62-14 0-33-7-43-15-14-14-29-14-100-5-46 5-149 10-229 10-238-1-375-36-460-119-72-69-86-136-50-241 44-131 170-295 347-454 35-31 61-56 59-56s-50-14-107-31c-85-25-108-28-123-19-18 11-19 9-12-36 7-58 21-75 38-51 7 9 57 33 111 52 77 27 97 32 97 20 0-22 31-19 155 15 101 28 330 73 500 99 68 11 311 41 328 41 4 0-77-84-180-187-260-259-471-499-642-728-69-93-81-114-76-137 9-37 3-37-154 17-271 93-444 205-508 329-33 65-34 145-3 206 28 56 107 140 131 140 25 0 25 32-1 55-11 10-22 26-25 36-4 11-15 19-27 19-11 0-18-5-15-12 2-8-24-30-60-51-147-88-236-203-235-303 2-184 274-371 724-495 62-17 117-35 121-39 5-4-13-41-41-81-103-153-208-350-263-494-63-164-77-330-35-421 70-150 270-174 583-68 57 20 111 33 119 30 20-8 18 20-7 71-20 42-34 53-41 33-8-22-134-45-253-45-110 0-125 2-170 25-62 32-110 105-119 183-14 107 28 273 114 452 71 148 167 302 191 308 12 3 18 3 15 0-5-5 18-33 28-33 3 0 6 14 6 30 0 17 5 30 10 30 6 0 10 7 10 15s5 15 10 15c6 0 10 5 10 11s6 17 13 24c29 34 37 45 37 55 0 6 7 13 15 16 8 4 15 11 15 16 0 6 9 20 19 32 11 11 69 82 130 156 60 75 160 192 222 260 118 131 471 484 526 527 31 24 37 25 270 32 423 12 964-13 1036-50 21-10 53-19 72-19h35v60c0 57 1 60 24 60 71 0 74 39 11 175-10 22-24 54-31 70-40 96-142 300-199 401-52 92-64 119-53 126 68 49 398 185 517 215 11 3 11 6 1 18-7 9-10 18-7 22 4 3 57 8 119 10 99 5 120 2 170-17 66-24 118-78 136-139 14-46 15-150 2-206-7-31-6-46 6-65 9-15 3-11-15 10-30 34-30 34-31 10 0-34 67-130 91-130 25 0 24 4-7 48-24 34-24 35-2 9l25-28 35 93c95 248 89 418-17 506-97 79-269 78-517-5-95-31-112-34-137-23-28 11-40 7-173-58-79-39-175-89-214-111l-72-41-76 113c-42 62-114 161-161 220-77 96-88 107-117 107s-44 13-116 90c-46 49-80 94-77 100 15 24-32 6-52-20m666-970c106-191 201-387 201-415 0-14 4-25 10-25 8 0 40-61 40-76 0-12-38 2-131 47-180 89-514 234-686 300-26 10-26 10 43 61 87 63 289 200 363 244l56 34 17-23c9-12 48-78 87-147m-546-306c146-58 420-176 415-178-2-1-194 1-428 4l-425 5 135 112c74 62 141 113 148 113s77-25 155-56"/><path d="M1545 3989c-71-57-77-64-55-67 16-3 30 3 41 17 10 12 21 21 26 21 20 1 75 57 72 75-3 15-18 7-84-46m2120-958c-26-5-30-11-33-44-2-22-8-37-16-37-7 0-28-7-45-16-30-15-32-20-28-53 3-20 35-123 72-229 111-323 206-735 236-1024l13-128h118l-5 73c-16 246-118 696-238 1059-27 82-49 151-49 154 0 8 49-23 231-142 215-140 350-246 496-388 66-64 74-69 86-53 12 17 14 16 38-10 14-15 38-45 53-65l28-37-71-35c-77-39-96-44-87-21q4.5 15-12 15c-30 0-67-139-42-155 6-3 10 0 10 7 0 8 8 14 18 15 9 1 64 20 121 42 58 22 107 38 111 36 14-9 34-101 33-150-1-120-92-203-263-238-110-23-179-27-173-10 3 8-2 13-15 13-24 0-72-70-72-105 0-16 4-24 11-20 5 4 85 8 177 9 248 4 378 41 460 130 45 49 57 88 50 170-4 50-47 153-95 230-14 22-15 30-5 33 31 11 138 90 182 134 92 92 113 178 70 287-25 63-44 78-55 43-10-33-73-80-115-87s-51-18-24-28c13-5 15-14 9-44-11-61-41-114-98-170l-54-53-87 87c-78 77-86 90-81 114s1 32-28 54c-19 14-41 26-49 26-9 0-18 9-21 20-3 12-14 20-26 20s-21 6-21 14c0 21-208 176-237 176-22 0-93 46-93 60 0 6-7 10-15 10s-15 5-15 10c0 6-7 10-15 10s-15 5-15 10c0 6-9 10-20 10s-23 7-26 15c-4 8-15 15-25 15-11 0-22 7-25 15-4 8-15 15-25 15-11 0-22 7-25 15-4 8-15 15-25 15-11 0-22 7-25 15-4 8-15 15-25 15s-27 8-38 19c-10 10-31 21-46 25s-25 9-22 12c8 8 337-61 479-100 70-19 178-56 240-81 122-48 148-54 148-30 0 14 4 13 33-1 63-33 147-95 147-109 0-26 29-16 65 23 31 33 50 82 25 67-5-3-40 10-77 28-37 19-97 45-132 58-49 19-66 30-73 51-8 22-22 31-74 48-119 40-279 81-344 90-36 4-130 20-210 34-147 27-172 28-225 17m195-1841c0-50 7-59 26-40 16 16-4-128-32-238-62-246-199-412-373-452-154-36-367 39-553 194-41 35-84 66-94 69-18 4-18 5-1 6 33 2 7 21-29 21-24 0-34-5-34-15 0-8 8-16 18-17 9 0-3-4-28-7l-45-6 100-100c147-148 296-256 430-312 127-53 277-57 378-10 202 93 317 369 342 820 4 64 11 117 16 117s9 5 9 10c0 6-28 10-65 10h-65zm-2250-106c0-3 10-15 23-25 22-20 22-20 0-7-19 11-34 6-122-36-55-26-105-45-110-41-14 8-14-16 1-65 12-37 38-56 38-27 0 7 21 23 48 36 100 49 182 102 176 114-5 8-3 8 7 0 19-18 29-16 29 6s-40 51-70 51c-11 0-20-3-20-6"/></g><g style="transform:none" fill="#6BB5FB"><path d="M1975 4101c-71-8-105-24-105-52 0-11-16-35-35-53-19-19-35-43-35-55 0-27-37-101-51-101-10 0-53-89-65-135-5-19-2-25 10-25 9 0 16-5 16-11s8-9 18-7c12 4 17-2 19-20 1-23-1-24-42-18-54 9-58 3-116-143-51-128-67-148-128-157-41-6-54-15-116-79-38-41-84-80-101-89-26-12-33-23-38-56-3-22-9-57-12-79-5-36-4-39 23-44 15-3 33-1 40 5 7 5 21 7 32 3 10-3 22-1 26 5 4 7 19 9 35 5 17-4 31-2 35 5s18 9 30 6c13-3 27-1 31 5s20 8 39 5c20-4 36-2 40 5 5 6 20 8 40 5 20-4 36-2 40 5 5 7 20 8 42 4 21-4 40-2 49 6 8 7 27 9 50 5 22-5 41-3 50 5 9 7 30 9 60 4q45-6 60 6c9 7 30 9 57 6 42-6 45-4 105 51l61 57-11 69c-10 58-16 72-43 93-30 24-31 26-21 73 6 31 6 63 0 87-8 34-14 39-54 51-25 8-51 16-59 18-11 3-11 7-1 19 11 13 8 15-15 15-16 0-37-8-47-17-24-21-63-9-91 29-17 23-19 32-9 52 6 14 23 33 38 42 25 17 28 17 56 1 16-9 36-17 44-17 9 0 14-11 14-35s5-35 15-35c8 0 15 7 15 15s5 15 10 15c6 0 10-7 10-15s7-15 15-15c11 0 15 11 15 36 0 28-5 37-21 41-20 6-21 11-15 66 3 33 6 68 6 77s12 22 26 29c23 10 25 16 23 62-3 45 0 53 27 74 16 13 39 24 52 25 18 0 22 6 22 34 0 46-23 51-165 37m1442-348c-4-3-7-21-7-40 0-18-14-75-31-127l-30-93 41-86c23-47 39-91 35-97-3-5-1-10 5-10s9-4 6-9 1-12 10-15c10-4 14-14 11-26-3-11-1-20 5-20 5 0 6-4 3-10-3-5-1-10 5-10s9-4 6-9 1-12 10-15c10-4 14-14 11-26-3-11-1-20 5-20 5 0 7-4 4-9-4-5-1-11 6-13 7-3 5-7-6-11-13-5-21 3-37 38-11 25-25 45-31 45-5 0-8 6-5 14 3 7-5 35-18 62-17 35-24 43-24 27-1-12 6-28 14-37 17-17 20-36 5-36-13 0-37-60-45-114l-7-45 41-7c39-6 41-9 41-40 0-19-2-34-5-34-2 0-22 9-44 21-22 11-50 19-63 17-20-3-23-10-26-52-2-27 2-61 8-77 15-35-1-69-32-69-12 0-33-11-48-25l-25-24-70 18c-39 10-80 23-92 29-12 7-43 12-69 12-45 0-51-3-110-62-46-47-65-75-74-108-7-24-23-67-37-94-23-45-25-57-18-116 9-84 9-105 1-165-7-45-4-58 33-132 26-55 56-97 90-129 38-36 51-55 51-76 0-40 22-88 59-130 30-35 31-37 11-43-36-12-42-39-35-161 7-101 10-116 28-126 20-11 116-6 150 7 34 14 17-24-23-51-36-24-40-31-40-69 0-40 2-42 50-65 28-13 62-39 76-57s31-33 38-33c8 0 26-16 40-35 15-20 40-38 58-43 28-7 33-14 43-57 18-79 30-95 72-95h35l-4 65-4 65h42c22 0 62-3 88-6l46-7v-53c0-68 13-70 101-11 95 63 145 115 153 159 6 35 4 41-30 70-70 62-76 119-17 180 26 27 26 31 7 126-5 27-3 32 13 32 18 0 18 4 6 103-6 56-12 105-12 110-2 12-58 8-70-6-6-8-14-28-17-45l-6-30-30 34c-23 26-38 34-63 34-35 0-34 1-71-95l-12-30-11 41c-15 57-40 77-91 72-37-3-40-2-40 22 0 15 6 33 13 42 13 17 96 78 106 78 4 0 12-13 18-30 9-25 17-30 45-30 18 0 53 11 78 24s64 29 88 35c36 10 41 15 37 34-72 332-136 566-213 782l-49 135 26 13c23 11 29 11 39 0 7-7 22-13 33-13s18-4 15-9c-6-9 36-31 60-31 8 0 12-5 9-10-4-6 7-13 24-16 17-4 28-10 25-15s8-12 25-15c17-4 28-10 25-15s8-12 25-15c17-4 28-10 25-15s8-12 25-15c17-4 28-10 25-15s4-9 16-9 18-4 15-10 4-10 16-10 19-3 16-7c-10-9 92-75 108-70 7 3 17 1 23-5s15-7 21-4c21 13 11 97-23 204-6 19-4 22 19 22 19 0 26 4 23 17-4 20-70 39-331 91-103 21-188 42-188 48 0 14 64 25 72 12 4-6 19-8 33-6 14 3 26 1 26-5 0-5 14-7 30-5 17 3 30 0 30-5s14-7 30-5c17 3 30 0 30-5s11-7 25-5c14 3 25 1 25-5 0-5 11-7 25-5 13 3 26 1 28-5 1-5 16-7 35-2 29 6 32 10 32 46 0 26-9 53-25 77-14 20-25 42-25 49s-6 13-12 13c-7 0-32 36-56 79-88 160-240 339-411 487-58 50-81 64-106 64-17 0-35-3-38-7m186-704c30-33 35-60 12-79-8-7-15-21-15-33 0-32-68-16-103 25-48 57-49 58-35 58 7 0 24 16 38 35 30 42 60 41 103-6m-163-1323c0-8 12-17 27-21l27-6-52-48c-29-26-52-54-52-62 0-11-10-14-40-11-23 2-40 9-40 16s-20 27-45 45c-37 26-85 79-85 93 0 1 59 4 130 6 106 2 130-1 130-12M1957 2950l-92-89 76-1c79 0 149 18 181 47 18 16 24 66 12 111-5 18-13 22-46 22-36 0-47-8-131-90m-182 64c-320-36-565-80-565-101 0-8-7-27-16-41-14-24-20-27-63-24-53 4-116-25-126-59-6-17-16-22-80-34-41-8-56-29-62-87-4-45-2-60 11-73 9-9 16-24 16-34 0-28 21-41 67-41h43v110h40c43 0 53 11 64 71 13 74 69 82 124 18 37-43 59-48 138-28 34 9 48 9 57 0 19-19 95-14 106 7s103 54 126 46c16-7 302 251 304 274 1 15-24 14-184-4"/><path d="M3614 2858c-4-6-2-14 4-16 7-2 10-8 6-13-3-5 0-9 6-9 7 0 10-7 6-15-3-8-1-15 5-15s9-7 5-15c-3-8-1-15 4-15s7-7 4-15c-4-8-1-15 5-15s8-7 5-15c-4-8-1-15 6-15 6 0 8-4 5-10-3-5-1-10 5-10 7 0 10-7 6-15-3-8-1-15 5-15s9-7 5-15c-3-8-1-15 5-15s9-7 5-15c-3-8-1-15 5-15s9-7 5-15c-3-8-1-15 5-15s8-9 4-20c-4-12-2-20 5-20s10-7 6-15c-3-8-1-15 5-15s9-7 5-15c-3-8-1-15 5-15s9-7 5-15c-3-8 0-15 5-15 6 0 9-9 6-20s-1-20 5-20 8-7 4-15c-3-8 0-15 5-15 6 0 9-9 6-20s-1-20 5-20c5 0 6-9 3-20-4-12-2-20 5-20s10-7 6-15c-3-8 0-15 5-15 6 0 9-9 6-20s-1-20 5-20 8-9 5-20-1-20 5-20 7-11 4-25c-4-15-2-25 4-25 7 0 9-8 5-20s-2-20 5-20 9-8 5-20-2-20 5-20c8 0 10-9 6-25-4-14-2-25 3-25s11-9 14-20c3-14 14-20 31-20 21 0 26-5 26-24 0-13 6-29 14-36 20-16 9-40-19-40-18 0-24-7-28-32-2-18 0-36 5-39 6-4 7-20 3-38-4-21-3-31 5-31s11-10 7-29c-4-16-2-31 2-33 7-2 19-54 21-90 0-13 30-9 30 5 0 11 103 57 129 57 15 0 25 28 55 148 44 171 57 300 54 504-3 157-1 188 11 190 19 4-79 81-234 185-132 88-353 223-366 223-4 0-11-5-15-12m729-403c7-14 20-25 30-25 11 0 21-9 24-20s13-20 22-20 22-5 29-12c9-9 12-5 12 20s-5 33-25 38c-14 3-25 12-25 19 0 15-22 25-55 25-21 0-22-2-12-25m-3326-3c-10-10-17-25-17-33s-5-20-12-27c-15-15-64-16-73-2-3 6-15 10-26 10-24 0-25-25-4-146 16-90 69-295 84-321 6-11 32 18 99 109 110 147 116 172 56 238-30 33-35 45-29 68 4 15 9 48 12 75l5 47h-39c-26 0-46-6-56-18m3233-31c0-40 1-41 35-41 32 0 35-2 35-30 0-29 1-30 48-30l47 1-31 27c-17 15-54 47-83 70l-51 44zm-3070-310c0-5-11-19-25-32-13-13-25-29-25-35 0-7-7-14-15-18-8-3-15-10-15-16 0-10-8-21-37-55-7-7-13-18-13-24s-4-11-10-11c-5 0-10-6-10-14s-7-17-16-20c-8-3-12-10-9-16 3-5 2-10-4-10-15 0 98-216 165-318 202-302 496-545 823-678 58-24 118-44 132-44 38 0 139 47 139 65 0 10 10 15 34 15 18 0 48 3 65 6 27 6 31 10 31 40s-5 36-60 66c-50 28-60 37-60 61 0 15-9 36-20 47s-20 29-20 39c0 11-13 29-30 41-23 17-30 29-30 56 0 24-5 37-17 41-10 3-25 12-33 19s-42 20-75 29-88 32-123 51c-34 19-76 34-92 34-47 0-76 56-89 171-6 51-16 99-23 106-8 7-42 16-77 19-63 7-63 7-81 50-16 36-26 45-59 55-23 7-41 16-41 21 0 4-22 8-50 8-38 0-50 4-50 15s12 15 45 15h45v44c0 42-3 46-44 70-30 17-59 26-89 26-40 0-48 4-83 45-38 44-54 54-54 36m3030-526c0-8-4-15-10-15-5 0-10-7-10-15s-4-15-10-15c-5 0-10-16-10-35s3-35 8-35c7 0 37 40 77 103l17 27h-31c-21 0-31-5-31-15"/></g><path d="M1953 4119c-33-16-43-27-43-45 0-17-6-24-20-24-16 0-20-7-20-35 0-26 3-33 15-29 15 6 19 17 16 41-2 14 33 35 43 26 3-3 6-1 6 5s6 9 13 7c7-3 32-2 57 3 25 4 56 5 70 1l25-7-27-1c-45-2-43-21 1-21h41v40c0 29-5 42-19 50-33 17-113 12-158-11m1607-78c-72-26-75-29-83-67-4-21-19-67-32-101-16-39-25-81-25-117 0-56 13-82 23-45l6 21 33-23c18-13 84-73 147-134 124-120 245-274 313-396 24-43 49-79 56-79 6 0 12-7 12-15s7-15 15-15 15 9 15 21c0 11 9 66 21 122 34 164 16 246-73 328l-52 48 3 75c2 63-1 78-17 94-11 11-25 21-31 23-7 3-19 35-27 72-9 37-19 67-24 67-4 0-10 11-14 23-9 39-100 117-135 117-16 0-35 2-43 4-7 3-47-7-88-23m495-1031c4-7 2-15-4-19-22-14 13-42 57-47 39-3 42-2 42 20 0 30-15 42-64 51-30 6-37 5-31-5m52-138c-11-2-16-9-13-18 3-8 17-57 31-110 21-74 24-98 15-109-18-22 28-37 128-43l82-5v37c0 38-67 193-91 212-22 16-89 33-106 27-8-3-18-2-22 3-3 6-14 8-24 6m-3004-19c-7-2-13-13-13-24 0-12 5-16 15-13 18 7 20-7 3-24-9-9-7-12 10-12 12 0 22-4 22-10 0-5 14-10 31-10 32 0 59 19 59 41 0 10-3 10-12 1-7-7-18-12-26-12-10 0-5 9 12 27 25 25 26 28 9 34-21 9-92 10-110 2m1987-77c0-9 7-16 15-16s15-4 15-9 14-9 30-9c26 1 30 5 28 22s-11 22-45 24-43 0-43-12m1180-251c0-2 56-50 125-105l125-100v32c0 42-39 91-95 118-25 12-45 26-45 31s-7 9-15 9-15 5-15 10c0 6-18 10-40 10s-40-2-40-5m-82-217c5-201-9-333-54-510-31-125-40-148-59-148-17 0-20-25-4-35 6-5-3-20-25-40-43-39-49-89-15-136 12-17 23-48 26-70s9-38 14-37c4 2 35 39 68 83s65 85 71 92c5 7 10 17 10 23 0 5 5 10 10 10 6 0 10 6 10 14s4 16 8 18c19 8 126 216 172 334 32 82 53 156 76 259l13 60-62 63c-34 34-69 62-79 62s-18 6-18 13c0 19-33 47-53 47-9 0-17 7-17 14 0 18-60 66-82 66-13 0-14-26-10-182m-3248 63c0-27 47-37 71-15 29 26 23 34-26 34-37 0-45-3-45-19m380-500c0-7-11-16-25-21-32-12-34-35-2-26 12 3 30 6 40 6 13 0 17 6 15 22-3 22-28 39-28 19m2523-636c20-18 25-28 18-37-65-79-100-128-91-128 6 0 36 19 66 42 42 33 54 49 54 70 0 18 5 28 15 28 22 0 19 27-4 40-11 5-35 10-53 10l-33-1z" style="transform:none" fill="#5C96D8"/><g style="transform:none" fill="#4466FB"><path d="M2230 4124c-30-2-78-6-107-10l-52-5 22-22 22-22-25-3c-14-2-43-18-65-36-39-33-40-34-27-70 16-45 12-53-40-66l-40-11 22-24c20-21 21-28 11-53-7-16-9-41-5-55 7-29-4-35-25-14-11 10-12 5-7-28 4-22 9-59 12-82 4-24 10-43 15-43 13 0 29 36 29 65 0 15 4 24 10 20 6-3 10-18 10-33 0-26 5-28 118-61 64-19 172-54 239-78l121-43 148 111c81 61 219 158 306 216l158 105-51 73-50 72-92 27c-184 52-465 82-657 70m-400-64c-60-15-210-70-294-109-65-30-96-53-158-117l-78-79 105-16c58-10 150-27 206-39 55-12 102-20 103-18 2 2 13 29 26 61 13 33 29 61 37 64 17 7 65 98 61 116-2 7 12 27 30 45 17 17 32 41 32 52s7 23 15 26c8 4 15 10 15 15 0 11-52 10-100-1m1780-5c-18-10-20-14-8-15 9 0 18-5 20-11 5-15 58 0 58 16 0 12-22 26-38 25-4-1-18-7-32-15m-540-71c0-15 43-74 53-74 20 1 49 28 42 39-3 6-15 11-26 11-10 0-19 7-19 15 0 9-9 15-25 15-14 0-25-3-25-6m724-74c0-11 6-20 13-20s13-7 13-15 5-15 10-15c6 0 10 16 10 35 0 30-3 35-23 35-16 0-23-6-23-20m-344-25c0-42 21-47 38-10s15 45-13 45c-22 0-25-4-25-35m-248-6-51-30 56-97c31-53 85-151 120-217s61-109 58-95c-4 15 6 62 24 115 16 50 32 122 36 160 6 66 5 71-17 84-13 8-57 36-99 62l-76 47zm-192-112c-168-105-480-323-480-336 0-3 41-21 90-39 134-49 424-174 599-258 85-41 158-74 162-74 5 0 11 12 15 28 3 15 14 51 25 80l19 52-100 198c-114 226-216 402-233 402-7 0-50-24-97-53m-1806-139c-124-169-226-387-284-611-22-84-26-107-15-103 8 3 81 20 163 37l148 32 12 38c7 21 12 50 12 64 0 18 9 29 33 41 17 8 64 48 102 89 62 64 75 73 116 79 60 9 77 29 123 145 21 52 48 115 61 140 14 24 23 46 22 47-9 9-381 64-435 64-6 0-33-28-58-62m2696 7c0-8-4-15-9-15s-7-9-4-20c9-35 33-24 33 15 0 19-4 35-10 35-5 0-10-7-10-15m-1886-96c-3-5 1-25 10-43 16-34 13-91-5-102-22-13-7-52 30-82 34-28 39-37 46-89 4-32 9-62 12-66 2-4 35 19 71 51 37 32 108 93 159 134l92 76-67 25c-37 13-123 41-192 61-69 21-130 39-137 41s-15 0-19-6m349-236c-65-53-150-124-188-158l-71-61 345 4c197 3 438-1 564-7 120-7 221-10 224-7 11 11-359 175-612 272-77 30-140 54-142 54-1 0-55-44-120-97m-65-253c-114-3-210-9-213-12-3-2 2-20 11-38 12-23 14-38 7-49-16-27-85-55-148-59-56-4-64-8-122-58-129-113-622-662-655-730-8-17-4-27 23-57 50-56 74-70 99-55 17 11 27 9 66-12 45-25 63-45 50-57-3-4-12-1-18 5-7 7-22 12-34 12-17 0-26-10-38-46-9-26-13-50-10-55s30-9 60-9 54-4 54-8c0-5 18-14 41-21 33-10 43-19 59-55 18-43 18-43 81-50 35-3 69-12 77-19 7-7 17-55 23-106 13-115 42-171 89-171 16 0 58-15 92-34 35-19 90-42 123-51s67-22 75-29 23-16 33-19c12-4 17-17 17-41 0-27 7-39 30-56 16-12 30-30 30-41 0-10 8-27 19-38 18-18 17-19-7-33-24-15-24-15 54-57 44-24 83-46 87-51 16-15-73-22-124-10-59 14-73 8-30-15 17-8 31-18 31-20 0-11-114-55-141-55-129 0 181-89 401-116 395-47 812 43 1155 250 45 27 55 37 42 42s-17 19-17 58v52l-67 12c-41 7-90 9-123 4-60-8-57-1-45-92 6-42 5-44-10-25-18 23-36 82-29 99 6 16-13 31-48 40-15 3-39 22-54 41-14 19-32 35-40 35-7 0-24 15-38 33s-48 44-76 57c-27 13-50 29-50 35 0 7 18 24 40 39 39 25 46 41 41 91-3 34-16 37-81 20-88-23-115-11-105 45 4 23 2 53-6 73-25 70 17 117 105 117 31 0 37-5 65-55 19-33 51-69 80-91 43-32 48-40 39-57-10-19-8-19 36-13 39 6 47 4 58-13 19-31 34-26 56 22 11 23 41 59 66 80 35 29 46 45 46 67 0 24-5 30-31 35-28 6-30 8-15 23 14 14 17 14 36-3 11-10 25-35 30-57 7-24 17-38 27-38 9 0-9-24-45-57-48-45-63-66-68-96-6-38-6-39 22-35 24 2 29 8 32 35 3 33 22 52 81 85 27 15 31 23 31 57 0 22 10 60 23 85l23 46 29-30 29-30-23-24c-30-32-19-48 33-46 79 3 76 6 76-57 0-32 5-65 10-73 6-10 4-20-7-32-15-17-14-18 16-18 18 0 46 7 62 16 28 14 33 14 75-6 24-12 44-26 44-31s14-9 31-9h30l-20 29c-12 16-21 32-21 35 0 4 16 22 35 42 40 40 55 81 34 95-17 11-47 7-114-18-49-18-50-19-47-56 3-35 2-37-27-37-30 0-31 2-31 43 0 52-5 59-58 86-41 21-43 24-36 54 12 56 24 79 44 84 23 6 24 21 6 113l-13 65-38-2c-22-2-66-16-100-32-55-27-61-28-72-14-7 9-13 29-13 45s-5 28-13 28c-7 0-48-23-90-51-79-52-84-59-89-134l-3-40-93-8c-87-8-95-7-150 18-36 17-70 25-94 23-30-2-44 4-68 27-37 36-70 102-70 141 0 23-12 41-51 78-34 32-63 73-88 126-36 74-37 80-28 129 8 37 7 67-2 114-12 62-12 67 12 113 14 27 30 69 37 93 13 49 108 157 146 167 12 3 35-1 52-10 16-8 49-18 73-22s56-13 71-20c39-20 53-18 91 16 19 17 44 30 56 30 13 0 26 11 37 32 16 30 16 36-1 85-15 43-16 58-6 79 6 15 10 28 9 29-12 11-758 50-828 43-8-1-108-4-222-8m1755-45c7-14 19-25 28-25 8 0 20-5 27-12 9-9 12-5 12 19 0 32-14 43-55 43-21 0-22-2-12-25m-3013-116c-85-22-156-41-157-43-2-1-6-37-10-80l-6-78 39 17c21 10 46 19 54 20 8 2 27 6 42 9 15 4 29 15 33 25 7 22 56 54 99 65 21 5 31 3 40-10 11-15 15-13 39 16q27 31.5 27 66c0 44-4 44-200-7m718-40-5-29 24 22c28 26 28 24 4 31-15 4-20-2-23-24"/><path d="M1102 2787c-12-13-25-38-28-57-12-61-19-69-64-63l-40 6v-62c0-43-4-61-13-61-18 0-37 21-37 41 0 22-26 49-47 49-14 0-15-17-11-130 4-109 8-133 24-151 14-16 25-19 49-14 16 4 39 8 51 9 29 3 44 15 44 35s37 58 46 48c3-3-2-26-11-51-22-56-15-88 31-138 36-40 41-57 23-90-6-12-7-24-2-29s38 27 80 78c95 118 241 283 390 440l122 130-49 2c-60 2-139-24-162-52-15-19-19-20-41-8-16 9-44 12-76 9-45-5-51-3-51 14 0 11-4 16-10 13-5-3-10-15-10-26 0-10-4-19-9-19-14 0-71 69-71 85 0 12-4 13-19 3-15-9-25-9-46 0-35 16-38 16-63-11m3182-87c0-11 5-20 10-20s7-3 3-6c-6-6 23-44 35-44 9 0 11 52 2 74-9 24-50 21-50-4m-149-69c-3-5 9-21 27-35 32-25 33-25 36-5 2 11 1 27-2 35-6 16-52 19-61 5m-57-108c-14-27-40-91-56-143-85-267-97-310-91-310 12 0 107 165 114 199 4 18 23 68 43 110 28 58 37 89 37 130 0 30-5 56-11 58s-22-18-36-44m207-13c3-5 13-10 21-10s12-4 9-10c-3-5-1-10 4-10 19 0 26-3 36-15 6-7 20-16 33-20 19-5 22-3 22 19 0 16-7 27-20 31-11 3-20 11-20 16s-21 9-46 9c-27 0-43-4-39-10m15-375c0-8-5-15-12-15-6 0-9-3-5-6 3-3-3-16-14-28l-20-21 27-3c15-2 31 2 35 10 12 18 11 78-1 78-5 0-10-7-10-15m-46-111c3-9 6-18 6-20s9 1 20 8c27 17 25 28-6 28-20 0-25-4-20-16m-342-42c-24-2-32-7-28-18 3-8 11-43 17-79 9-52 15-65 29-65 11 0 22-4 25-10 11-18 21-11 38 25 22 46 21 58-3 80-11 10-20 28-20 40 0 26-12 32-58 27"/></g><path d="M2510 4389c-387-44-745-203-1037-461-45-40-82-78-83-85 0-6 51 14 113 46 113 58 247 111 346 137 29 7 75 27 101 44 60 39 103 47 133 27 20-13 43-14 143-7 212 14 465-14 659-75 91-28 105-30 105-13s-124 177-230 296c-103 115-86 109-250 91m255 0c4-5 46-59 94-119s124-162 168-227c50-75 87-119 99-120 10-1 80 32 154 73 75 41 180 94 234 118l98 45-83 42c-190 95-405 159-618 184-150 18-154 18-146 4m915-309c-19-5-51-15-70-23l-34-15 58-7c48-6 66-14 99-44 55-50 85-100 102-173 8-35 20-65 26-67s20-12 31-23c20-20 21-40 2-120-5-24 1-35 48-80 103-100 118-148 88-290-33-157-25-188 69-265 39-31 69-45 124-58 39-10 121-33 180-52 60-19 110-33 113-31 2 2-6 48-17 101-56 278-193 565-375 788-74 91-234 244-326 312-42 31-78 57-80 56s-19-5-38-9m-280-103c-148-68-170-80-170-92 0-11 190-135 207-135 7 0 45 111 42 126 0 4 5 10 11 14 14 9 27 130 14 130-5 0-52-20-104-43m859-1219c27-51 52-103 56-115 6-20 3-23-24-23-16 0-52 5-80 12-57 13-67 9-52-21 11-20 131-111 146-111 23 0 151-101 178-139 22-33 32-40 38-29 12 22 22 247 15 330l-8 76-51 22c-84 35-237 90-252 90-10 0 0-28 34-92m196-540c-27-21-29-21-57-5-39 22-48 22-80-8-21-20-26-31-22-53 4-21-1-36-20-59-42-50-30-101 17-70 12 8 33 36 47 63 24 47 27 49 67 49 48 0 90 33 95 74 4 32-13 36-47 9m-383-615c-5-16-13-36-17-45-10-26 12-22 40 7 30 29 33 65 6 65-12 0-23-11-29-27m-224-99c-38-20-35-34 7-34 31 0 35 3 35 25 0 29-5 30-42 9" style="transform:none" fill="#415FD8"/><path d="M2403 4789c-42-8-101-54-114-86-35-92 29-200 129-219 41-8 110 17 142 51 33 35 39 137 11 182-36 57-104 86-168 72m-624-1068c-53-54-35-147 35-176 40-17 84-9 118 22 33 32 42 66 28 109-26 77-124 101-181 45m1714-620c-40-25-53-49-53-100 0-31 7-49 29-73 26-29 36-33 80-33 41 0 55 5 79 28 36 35 46 78 28 120-29 69-103 96-163 58M443 2903c-87-48-110-167-48-241 29-35 99-57 149-48 71 13 127 85 128 161 2 105-133 181-229 128m4366-195c-75-20-121-107-99-188 14-51 75-106 129-115 149-25 237 157 128 263-18 18-49 37-68 42-39 11-41 11-90-2m-953-1201c-62-36-81-69-81-137 0-66 18-99 75-137 74-51 191-9 225 81 33 85 6 158-71 196-52 26-99 25-148-3M1279 985c-15-8-34-32-43-56-16-39-16-43 1-78 24-48 84-71 133-51 57 24 90 111 58 152-39 47-99 60-149 33" style="transform:none" fill="#384E85"/></svg>