<svg class="img-fluid" xmlns="http://www.w3.org/2000/svg" style="transform:matrix(.60113,0,0,.60113,0,0);transform-origin:50% 50%;cursor:move;max-height:363.94px;transition:transform 200ms ease-in-out" width="512" height="512" viewBox="470 481.759 4190 4178.241"><path d="m492 4644-22-15v-388c0-363 1-389 18-404 16-14 44-17 180-17h162v-569c0-527 1-570 17-590l18-22 695 1h695l17-48c30-83 120-167 201-187l27-7-2-417-3-416-920-5c-919-5-920-5-960-27-52-28-89-68-114-123-19-42-21-65-21-391V672l28-53c31-61 93-113 151-129 26-7 648-9 1922-8 1835 3 1885 4 1923 22 47 24 98 75 123 124 16 33 18 71 21 372 2 224-1 348-8 375-18 64-71 129-131 159l-53 26H2630v835l58 25c71 31 133 93 163 165l23 55h700l701-1 17 22c17 20 18 63 18 590v569h159c154 0 160 1 175 22 14 19 16 74 16 399v378l-26 20c-26 20-38 21-391 21-361 0-394-3-415-34-4-6-8-182-8-392 0-356 1-382 18-397 16-14 43-17 175-17h157V2770h-980v1050h158c141 0 161 2 175 18 15 17 17 59 17 400 0 369-1 383-20 402s-33 20-395 20h-376l-24-25-25-24v-373c0-322 2-377 16-396 15-21 21-22 180-22h164V2770h-189l-24 53c-34 74-79 121-149 157-115 57-246 37-342-51-37-34-62-67-77-104l-23-55h-176v1050h153c136 0 156 2 170 18 15 17 17 59 17 405v386l-22 15c-19 14-74 16-396 16h-373l-25-25-25-25 3-379c2-295 6-383 16-393 9-9 62-14 180-18l167-5 3-522 2-523H960l2 523 3 522 140 2c77 2 149 5 161 8 41 9 44 38 44 421v365l-25 24-24 25H888c-322 0-377-2-396-16m686-406 2-288H600v580l288-2 287-3zm1112 2v-290l-287 2-288 3-3 275c-1 151 0 280 3 287 3 10 69 13 290 13h285zm1120 0v-290h-580v580h580zm1120 0v-290h-580v580h580zM2633 2866c44-18 95-78 103-121 27-145-100-260-231-211-48 19-101 72-111 112-12 46 1 129 25 163 45 63 140 88 214 57m1825-1456c59-36 62-56 62-392 0-341-3-357-70-390-33-17-144-18-1891-18H703l-34 23c-59 40-59 40-57 401l3 328 39 34 39 34h1866c1854 0 1866 0 1899-20" style="transform:none" fill="#212121"/><path d="M687 4398c-28-22-32-73-8-97 20-20 31-21 206-21 172 0 186 1 205 20 24 24 26 57 4 88-15 21-20 22-203 22-134 0-192-4-204-12m1113-8c-11-11-20-31-20-45s9-34 20-45c19-19 33-20 205-20 177 0 185 1 205 22 25 28 26 62 0 88-19 19-33 20-205 20s-186-1-205-20m1117 2c-25-27-22-78 5-96 18-13 56-16 204-16h183l20 26c12 15 21 32 21 39s-9 24-21 39l-20 26h-188c-169 0-190-2-204-18m1120 0c-22-25-21-75 1-95 16-15 45-17 198-17 204 0 224 6 224 64 0 62-14 66-222 66-166 0-187-2-201-18M676 4168c-23-33-19-64 10-87 25-19 40-21 199-21s174 2 199 21c31 24 35 68 8 92-16 15-46 17-210 17-186 0-191-1-206-22m1120 0c-23-33-19-64 10-87 25-19 40-21 199-21s174 2 199 21c29 23 33 54 10 87-15 21-20 22-209 22s-194-1-209-22m1121 4c-24-26-21-67 5-92 20-19 34-20 200-20 178 0 179 0 204 26 20 19 24 31 19 52-11 49-25 52-225 52-168 0-189-2-203-18m1120 0c-25-27-22-78 5-96 18-13 55-16 198-16 200 0 220 6 220 64 0 62-14 66-222 66-166 0-187-2-201-18M1094 1276c-58-27-114-81-140-134-28-57-31-178-6-234 66-150 237-214 384-144 61 29 106 75 138 142 29 59 27 163-4 229-67 142-234 205-372 141m182-122c74-35 107-144 65-212-80-126-281-75-281 73 0 116 112 188 216 139m2590 64c-13-18-16-56-16-204 0-193 1-199 53-217 19-7 56 8 69 27 4 6 8 95 8 197 0 168-2 188-18 202-27 25-78 22-96-5m221 4c-15-16-17-45-17-204 0-171 1-186 20-203 25-22 65-22 90 0 19 17 20 32 20 205 0 168-2 189-18 203-25 22-75 21-95-1m-2171-164c-22-32-20-55 9-84l25-24 676 2c656 3 676 4 690 22 19 27 18 70-4 89-17 16-80 17-700 17h-681z" style="transform:none" fill="#66BB6A"/></svg>