<?xml version="1.0" encoding="UTF-8" standalone="no"?>
<!-- Generator: Adobe Illustrator 18.0.0, SVG Export Plug-In . SVG Version: 6.00 Build 0)  -->

<!-- License: CC0. Made by SVG Repo: https://www.svgrepo.com/svg/57786/bricks -->

<svg
   version="1.1"
   id="Capa_1"
   x="0px"
   y="0px"
   viewBox="0 0 405.99999 406.00298"
   xml:space="preserve"
   sodipodi:docname="svgviewer-output.svg"
   width="406"
   height="406.00299"
   inkscape:version="1.1.2 (0a00cf5339, 2022-02-04)"
   xmlns:inkscape="http://www.inkscape.org/namespaces/inkscape"
   xmlns:sodipodi="http://sodipodi.sourceforge.net/DTD/sodipodi-0.dtd"
   xmlns="http://www.w3.org/2000/svg"
   xmlns:svg="http://www.w3.org/2000/svg"><defs
   id="defs868" /><sodipodi:namedview
   id="namedview866"
   pagecolor="#505050"
   bordercolor="#eeeeee"
   borderopacity="1"
   inkscape:pageshadow="0"
   inkscape:pageopacity="0"
   inkscape:pagecheckerboard="0"
   showgrid="false"
   fit-margin-top="0"
   fit-margin-left="0"
   fit-margin-right="0"
   fit-margin-bottom="0"
   inkscape:zoom="2.4454397"
   inkscape:cx="197.51049"
   inkscape:cy="112.65868"
   inkscape:window-width="1920"
   inkscape:window-height="1016"
   inkscape:window-x="0"
   inkscape:window-y="27"
   inkscape:window-maximized="1"
   inkscape:current-layer="Capa_1" />
<path
   d="m 363.606,42.4 c -2.813,-2.813 -6.629,-4.393 -10.607,-4.393 L 203.28,38.014 C 203.186,38.013 203.095,38 203,38 c -0.095,0 -0.187,0.013 -0.281,0.014 l -149.72,0.008 c -8.284,0 -14.999,6.716 -14.999,15 v 299.981 c 0,8.284 6.716,15 15,15 h 300 c 8.284,0 15,-6.716 15,-15 V 53.007 c 0,-3.979 -1.58,-7.794 -4.394,-10.607 z M 68,237.994 v -70.006 h 50 v 70.006 z m 80,0 v -69.996 h 110 v 69.996 z m 140,-70.006 h 50 v 70.006 h -50 z m 50,-30 H 218 V 68.014 L 338,68.008 Z M 188,68.015 v 69.974 H 68 V 68.021 Z M 68,267.994 h 64.923 c 0.026,0 0.051,0.004 0.077,0.004 h 55 v 70.004 H 68 Z m 150,70.008 v -70.004 h 55 c 0.026,0 0.051,-0.004 0.077,-0.004 H 338 v 70.008 z"
   id="path863" />
</svg>
