<?xml version="1.0" encoding="UTF-8" standalone="no"?>
<svg
   width="951.20996"
   height="535.01801"
   viewBox="0 0 951.20997 535.01801"
   fill="none"
   version="1.1"
   id="svg1590"
   sodipodi:docname="lightweight-dark.svg"
   inkscape:version="1.1.2 (0a00cf5339, 2022-02-04)"
   xmlns:inkscape="http://www.inkscape.org/namespaces/inkscape"
   xmlns:sodipodi="http://sodipodi.sourceforge.net/DTD/sodipodi-0.dtd"
   xmlns="http://www.w3.org/2000/svg"
   xmlns:svg="http://www.w3.org/2000/svg">
  <defs
     id="defs1594" />
  <sodipodi:namedview
     id="namedview1592"
     pagecolor="#505050"
     bordercolor="#eeeeee"
     borderopacity="1"
     inkscape:pageshadow="0"
     inkscape:pageopacity="0"
     inkscape:pagecheckerboard="0"
     showgrid="false"
     inkscape:zoom="0.29273368"
     inkscape:cx="-830.10605"
     inkscape:cy="193.0082"
     inkscape:window-width="1920"
     inkscape:window-height="1016"
     inkscape:window-x="1920"
     inkscape:window-y="27"
     inkscape:window-maximized="1"
     inkscape:current-layer="svg1590" />
  <path
     d="m 925.69996,56.756999 h -443.19 c -14.09,0 -25.51,11.42 -25.51,25.507 V 509.511 c 0,14.087 11.42,25.507 25.51,25.507 h 443.19 c 14.09,0 25.51,-11.42 25.51,-25.507 V 82.263999 c 0,-14.087 -11.42,-25.507 -25.51,-25.507 z"
     fill="#26262b"
     id="path1564" />
  <path
     d="m 877.86996,153.873 h -334.78 c -6.16,0 -11.16,4.996 -11.16,11.159 v 271.272 c 0,6.163 5,11.16 11.16,11.16 h 334.78 c 6.17,0 11.16,-4.997 11.16,-11.16 V 165.032 c 0,-6.163 -4.99,-11.159 -11.16,-11.159 z"
     fill="#1d1d22"
     id="path1566" />
  <path
     d="m 877.86996,153.873 h -334.78 c -6.16,0 -11.16,4.996 -11.16,11.159 v 271.272 c 0,6.163 5,11.16 11.16,11.16 h 334.78 c 6.17,0 11.16,-4.997 11.16,-11.16 V 165.032 c 0,-6.163 -4.99,-11.159 -11.16,-11.159 z"
     stroke="#343434"
     id="path1568" />
  <path
     d="m 585.62996,201.348 h -5.9 v -3.099 h 5.9 c 1.03,0 1.86,-0.166 2.49,-0.497 0.64,-0.332 1.09,-0.791 1.39,-1.372 0.3,-0.593 0.45,-1.265 0.45,-2.024 0,-0.714 -0.15,-1.384 -0.45,-2.009 -0.3,-0.631 -0.75,-1.141 -1.39,-1.524 -0.63,-0.386 -1.46,-0.577 -2.49,-0.577 h -4.7 v 19.555 h -3.91 v -22.667 h 8.61 c 1.75,0 3.24,0.309 4.47,0.934 1.23,0.613 2.17,1.464 2.82,2.551 0.64,1.081 0.96,2.315 0.96,3.705 0,1.463 -0.32,2.72 -0.96,3.769 -0.65,1.049 -1.59,1.852 -2.82,2.413 -1.23,0.561 -2.72,0.842 -4.47,0.842 z m 15.15,-5.184 v 13.637 h -3.75 v -16.845 h 3.58 z m 5.15,-3.316 -0.03,3.485 c -0.23,-0.042 -0.48,-0.07 -0.75,-0.093 -0.26,-0.019 -0.52,-0.032 -0.77,-0.032 -0.65,0 -1.22,0.096 -1.7,0.281 -0.49,0.179 -0.9,0.437 -1.23,0.778 -0.32,0.335 -0.57,0.736 -0.75,1.215 -0.18,0.478 -0.28,1.014 -0.31,1.603 l -0.86,0.064 c 0,-1.058 0.11,-2.04 0.31,-2.943 0.21,-0.902 0.52,-1.696 0.94,-2.381 0.42,-0.686 0.95,-1.222 1.59,-1.604 0.64,-0.386 1.38,-0.577 2.22,-0.577 0.23,0 0.47,0.022 0.74,0.064 0.26,0.041 0.47,0.086 0.6,0.14 z m 1.23,8.717 v -0.357 c 0,-1.215 0.18,-2.341 0.53,-3.38 0.35,-1.049 0.86,-1.954 1.53,-2.723 0.67,-0.781 1.49,-1.38 2.46,-1.808 0.97,-0.433 2.07,-0.653 3.3,-0.653 1.23,0 2.33,0.22 3.3,0.653 0.97,0.428 1.8,1.027 2.47,1.808 0.68,0.769 1.19,1.674 1.54,2.723 0.35,1.039 0.53,2.165 0.53,3.38 v 0.357 c 0,1.215 -0.18,2.34 -0.53,3.38 -0.35,1.036 -0.86,1.945 -1.54,2.722 -0.67,0.769 -1.49,1.372 -2.46,1.805 -0.96,0.427 -2.06,0.641 -3.28,0.641 -1.24,0 -2.34,-0.214 -3.32,-0.641 -0.96,-0.433 -1.78,-1.036 -2.46,-1.805 -0.67,-0.777 -1.19,-1.686 -1.54,-2.722 -0.35,-1.04 -0.53,-2.165 -0.53,-3.38 z m 3.75,-0.357 v 0.357 c 0,0.759 0.08,1.473 0.24,2.149 0.15,0.673 0.4,1.266 0.73,1.773 0.33,0.51 0.76,0.908 1.28,1.199 0.51,0.293 1.13,0.436 1.85,0.436 0.69,0 1.3,-0.143 1.8,-0.436 0.52,-0.291 0.95,-0.689 1.28,-1.199 0.33,-0.507 0.58,-1.1 0.73,-1.773 0.17,-0.676 0.25,-1.39 0.25,-2.149 v -0.357 c 0,-0.75 -0.08,-1.454 -0.25,-2.117 -0.15,-0.676 -0.4,-1.272 -0.74,-1.792 -0.34,-0.52 -0.76,-0.925 -1.28,-1.215 -0.51,-0.3 -1.12,-0.45 -1.82,-0.45 -0.71,0 -1.32,0.15 -1.84,0.45 -0.51,0.29 -0.93,0.695 -1.26,1.215 -0.33,0.52 -0.58,1.116 -0.73,1.792 -0.16,0.663 -0.24,1.367 -0.24,2.117 z m 15.25,-8.252 h 3.76 v 18.308 c 0,1.151 -0.19,2.124 -0.59,2.911 -0.39,0.8 -0.97,1.403 -1.74,1.805 -0.77,0.417 -1.71,0.625 -2.82,0.625 -0.33,0 -0.67,-0.026 -1.03,-0.08 -0.36,-0.042 -0.7,-0.102 -1.03,-0.185 l 0.02,-2.927 c 0.22,0.041 0.45,0.073 0.7,0.092 0.24,0.032 0.47,0.048 0.68,0.048 0.45,0 0.82,-0.079 1.13,-0.232 0.3,-0.157 0.53,-0.402 0.68,-0.734 0.16,-0.331 0.24,-0.771 0.24,-1.323 z m -0.33,-4.422 c 0,-0.571 0.19,-1.043 0.57,-1.416 0.39,-0.386 0.91,-0.577 1.58,-0.577 0.67,0 1.19,0.191 1.57,0.577 0.38,0.373 0.57,0.845 0.57,1.416 0,0.561 -0.19,1.027 -0.57,1.403 -0.38,0.373 -0.9,0.558 -1.57,0.558 -0.67,0 -1.19,-0.185 -1.58,-0.558 -0.38,-0.376 -0.57,-0.842 -0.57,-1.403 z m 15.57,21.579 c -1.25,0 -2.38,-0.204 -3.38,-0.609 -1,-0.414 -1.85,-0.992 -2.55,-1.728 -0.7,-0.737 -1.24,-1.604 -1.61,-2.599 -0.37,-0.998 -0.56,-2.072 -0.56,-3.223 v -0.622 c 0,-1.32 0.19,-2.512 0.58,-3.58 0.38,-1.072 0.92,-1.984 1.6,-2.742 0.68,-0.769 1.49,-1.352 2.43,-1.757 0.93,-0.405 1.95,-0.609 3.03,-0.609 1.21,0 2.26,0.204 3.17,0.609 0.9,0.405 1.64,0.975 2.24,1.712 0.6,0.727 1.05,1.591 1.34,2.598 0.3,1.008 0.45,2.118 0.45,3.332 v 1.604 h -13.02 v -2.694 h 9.31 v -0.297 c -0.02,-0.672 -0.15,-1.307 -0.4,-1.897 -0.24,-0.593 -0.61,-1.071 -1.11,-1.431 -0.5,-0.364 -1.16,-0.546 -1.99,-0.546 -0.62,0 -1.18,0.134 -1.67,0.405 -0.48,0.259 -0.87,0.638 -1.2,1.135 -0.32,0.498 -0.57,1.1 -0.74,1.805 -0.17,0.698 -0.25,1.479 -0.25,2.353 v 0.622 c 0,0.736 0.1,1.422 0.29,2.056 0.21,0.622 0.51,1.167 0.91,1.633 0.39,0.469 0.87,0.835 1.43,1.106 0.56,0.258 1.2,0.389 1.91,0.389 0.91,0 1.71,-0.182 2.42,-0.545 0.7,-0.364 1.32,-0.877 1.83,-1.54 l 1.98,1.913 c -0.36,0.529 -0.84,1.039 -1.42,1.527 -0.58,0.479 -1.29,0.868 -2.13,1.167 -0.83,0.3 -1.79,0.453 -2.89,0.453 z m 16.54,-2.991 c 0.62,0 1.17,-0.118 1.66,-0.357 0.49,-0.249 0.89,-0.593 1.19,-1.026 0.32,-0.437 0.49,-0.941 0.52,-1.512 h 3.53 c -0.02,1.091 -0.34,2.082 -0.96,2.975 -0.62,0.893 -1.45,1.604 -2.48,2.133 -1.03,0.517 -2.16,0.778 -3.41,0.778 -1.29,0 -2.41,-0.22 -3.36,-0.654 -0.96,-0.446 -1.75,-1.058 -2.38,-1.839 -0.64,-0.778 -1.11,-1.674 -1.44,-2.691 -0.31,-1.017 -0.46,-2.108 -0.46,-3.272 v -0.545 c 0,-1.16 0.15,-2.251 0.46,-3.268 0.33,-1.027 0.8,-1.929 1.44,-2.71 0.63,-0.778 1.42,-1.384 2.38,-1.821 0.95,-0.446 2.07,-0.669 3.35,-0.669 1.34,0 2.53,0.271 3.55,0.81 1.01,0.529 1.81,1.272 2.39,2.225 0.6,0.947 0.9,2.047 0.92,3.3 h -3.53 c -0.03,-0.622 -0.19,-1.183 -0.47,-1.68 -0.27,-0.507 -0.65,-0.912 -1.15,-1.215 -0.49,-0.3 -1.08,-0.45 -1.76,-0.45 -0.76,0 -1.39,0.154 -1.88,0.466 -0.5,0.303 -0.89,0.717 -1.17,1.247 -0.28,0.519 -0.48,1.103 -0.61,1.76 -0.11,0.64 -0.17,1.31 -0.17,2.005 v 0.545 c 0,0.695 0.06,1.371 0.17,2.025 0.12,0.654 0.31,1.24 0.59,1.76 0.29,0.507 0.69,0.918 1.19,1.231 0.49,0.299 1.13,0.449 1.89,0.449 z m 17.5,-14.166 v 2.739 h -9.49 v -2.739 z m -6.75,-4.126 h 3.75 v 16.315 c 0,0.52 0.07,0.919 0.22,1.199 0.15,0.271 0.36,0.453 0.64,0.546 0.27,0.092 0.58,0.14 0.95,0.14 0.25,0 0.5,-0.016 0.74,-0.048 0.24,-0.032 0.43,-0.061 0.58,-0.092 l 0.02,2.863 c -0.32,0.095 -0.68,0.178 -1.1,0.248 -0.4,0.074 -0.87,0.112 -1.4,0.112 -0.86,0 -1.62,-0.153 -2.28,-0.453 -0.67,-0.312 -1.19,-0.813 -1.56,-1.511 -0.38,-0.695 -0.56,-1.617 -0.56,-2.771 z m 24.47,18.292 c 0.61,0 1.16,-0.118 1.65,-0.357 0.5,-0.249 0.9,-0.593 1.2,-1.026 0.31,-0.437 0.48,-0.941 0.51,-1.512 h 3.54 c -0.02,1.091 -0.34,2.082 -0.97,2.975 -0.62,0.893 -1.44,1.604 -2.47,2.133 -1.03,0.517 -2.17,0.778 -3.41,0.778 -1.29,0 -2.41,-0.22 -3.37,-0.654 -0.95,-0.446 -1.74,-1.058 -2.38,-1.839 -0.63,-0.778 -1.11,-1.674 -1.43,-2.691 -0.31,-1.017 -0.47,-2.108 -0.47,-3.272 v -0.545 c 0,-1.16 0.16,-2.251 0.47,-3.268 0.32,-1.027 0.8,-1.929 1.43,-2.71 0.64,-0.778 1.43,-1.384 2.38,-1.821 0.96,-0.446 2.08,-0.669 3.35,-0.669 1.35,0 2.53,0.271 3.55,0.81 1.02,0.529 1.82,1.272 2.4,2.225 0.59,0.947 0.9,2.047 0.92,3.3 h -3.54 c -0.03,-0.622 -0.18,-1.183 -0.46,-1.68 -0.27,-0.507 -0.66,-0.912 -1.16,-1.215 -0.48,-0.3 -1.07,-0.45 -1.76,-0.45 -0.75,0 -1.38,0.154 -1.88,0.466 -0.5,0.303 -0.89,0.717 -1.17,1.247 -0.27,0.519 -0.48,1.103 -0.6,1.76 -0.12,0.64 -0.18,1.31 -0.18,2.005 v 0.545 c 0,0.695 0.06,1.371 0.18,2.025 0.11,0.654 0.31,1.24 0.59,1.76 0.29,0.507 0.68,0.918 1.18,1.231 0.5,0.299 1.13,0.449 1.9,0.449 z m 9.06,-5.557 v -0.357 c 0,-1.215 0.18,-2.341 0.53,-3.38 0.35,-1.049 0.86,-1.954 1.53,-2.723 0.67,-0.781 1.49,-1.38 2.46,-1.808 0.97,-0.433 2.07,-0.653 3.3,-0.653 1.23,0 2.33,0.22 3.3,0.653 0.97,0.428 1.8,1.027 2.47,1.808 0.68,0.769 1.19,1.674 1.54,2.723 0.36,1.039 0.53,2.165 0.53,3.38 v 0.357 c 0,1.215 -0.17,2.34 -0.53,3.38 -0.35,1.036 -0.86,1.945 -1.54,2.722 -0.67,0.769 -1.49,1.372 -2.46,1.805 -0.96,0.427 -2.06,0.641 -3.28,0.641 -1.24,0 -2.34,-0.214 -3.32,-0.641 -0.96,-0.433 -1.78,-1.036 -2.46,-1.805 -0.67,-0.777 -1.19,-1.686 -1.54,-2.722 -0.35,-1.04 -0.53,-2.165 -0.53,-3.38 z m 3.75,-0.357 v 0.357 c 0,0.759 0.08,1.473 0.24,2.149 0.15,0.673 0.4,1.266 0.73,1.773 0.33,0.51 0.76,0.908 1.28,1.199 0.52,0.293 1.13,0.436 1.85,0.436 0.69,0 1.3,-0.143 1.81,-0.436 0.51,-0.291 0.94,-0.689 1.27,-1.199 0.33,-0.507 0.58,-1.1 0.73,-1.773 0.17,-0.676 0.25,-1.39 0.25,-2.149 v -0.357 c 0,-0.75 -0.08,-1.454 -0.25,-2.117 -0.15,-0.676 -0.4,-1.272 -0.74,-1.792 -0.34,-0.52 -0.76,-0.925 -1.28,-1.215 -0.51,-0.3 -1.12,-0.45 -1.82,-0.45 -0.71,0 -1.32,0.15 -1.84,0.45 -0.51,0.29 -0.93,0.695 -1.26,1.215 -0.33,0.52 -0.58,1.116 -0.73,1.792 -0.16,0.663 -0.24,1.367 -0.24,2.117 z m 18.78,-4.655 v 13.248 h -3.75 v -16.845 h 3.53 z m -0.67,4.202 -1.21,-0.016 c 0.01,-1.192 0.17,-2.289 0.49,-3.284 0.34,-0.998 0.79,-1.852 1.37,-2.57 0.59,-0.714 1.3,-1.266 2.12,-1.648 0.82,-0.396 1.73,-0.593 2.74,-0.593 0.81,0 1.54,0.114 2.2,0.344 0.66,0.217 1.22,0.574 1.69,1.071 0.48,0.501 0.85,1.148 1.09,1.949 0.25,0.787 0.38,1.76 0.38,2.911 v 10.882 h -3.77 v -10.898 c 0,-0.81 -0.12,-1.448 -0.36,-1.917 -0.23,-0.475 -0.57,-0.813 -1.01,-1.01 -0.44,-0.208 -0.98,-0.313 -1.64,-0.313 -0.64,0 -1.22,0.137 -1.72,0.405 -0.51,0.271 -0.94,0.641 -1.29,1.106 -0.35,0.469 -0.61,1.008 -0.8,1.62 -0.19,0.612 -0.28,1.266 -0.28,1.961 z m 22.42,-7.799 v 2.739 h -9.5 v -2.739 z m -6.76,-4.126 h 3.76 v 16.315 c 0,0.52 0.07,0.919 0.21,1.199 0.16,0.271 0.37,0.453 0.64,0.546 0.27,0.092 0.59,0.14 0.95,0.14 0.26,0 0.51,-0.016 0.75,-0.048 0.23,-0.032 0.43,-0.061 0.57,-0.092 l 0.02,2.863 c -0.31,0.095 -0.68,0.178 -1.09,0.248 -0.41,0.074 -0.87,0.112 -1.4,0.112 -0.87,0 -1.63,-0.153 -2.29,-0.453 -0.67,-0.312 -1.18,-0.813 -1.56,-1.511 -0.37,-0.695 -0.56,-1.617 -0.56,-2.771 z m 13.42,7.334 v 13.637 h -3.75 v -16.845 h 3.58 z m 5.15,-3.316 -0.03,3.485 c -0.22,-0.042 -0.48,-0.07 -0.74,-0.093 -0.26,-0.019 -0.52,-0.032 -0.78,-0.032 -0.65,0 -1.21,0.096 -1.7,0.281 -0.49,0.179 -0.9,0.437 -1.23,0.778 -0.32,0.335 -0.57,0.736 -0.75,1.215 -0.17,0.478 -0.28,1.014 -0.31,1.603 l -0.85,0.064 c 0,-1.058 0.1,-2.04 0.31,-2.943 0.21,-0.902 0.52,-1.696 0.93,-2.381 0.43,-0.686 0.96,-1.222 1.59,-1.604 0.64,-0.386 1.38,-0.577 2.23,-0.577 0.23,0 0.47,0.022 0.73,0.064 0.27,0.041 0.47,0.086 0.6,0.14 z m 1.24,8.717 v -0.357 c 0,-1.215 0.17,-2.341 0.52,-3.38 0.36,-1.049 0.87,-1.954 1.53,-2.723 0.67,-0.781 1.49,-1.38 2.46,-1.808 0.98,-0.433 2.08,-0.653 3.3,-0.653 1.23,0 2.33,0.22 3.3,0.653 0.98,0.428 1.8,1.027 2.47,1.808 0.68,0.769 1.19,1.674 1.55,2.723 0.35,1.039 0.53,2.165 0.53,3.38 v 0.357 c 0,1.215 -0.18,2.34 -0.53,3.38 -0.36,1.036 -0.87,1.945 -1.55,2.722 -0.67,0.769 -1.49,1.372 -2.45,1.805 -0.97,0.427 -2.06,0.641 -3.29,0.641 -1.23,0 -2.34,-0.214 -3.31,-0.641 -0.97,-0.433 -1.79,-1.036 -2.47,-1.805 -0.67,-0.777 -1.18,-1.686 -1.54,-2.722 -0.35,-1.04 -0.52,-2.165 -0.52,-3.38 z m 3.75,-0.357 v 0.357 c 0,0.759 0.07,1.473 0.23,2.149 0.16,0.673 0.4,1.266 0.73,1.773 0.33,0.51 0.76,0.908 1.28,1.199 0.52,0.293 1.13,0.436 1.85,0.436 0.7,0 1.3,-0.143 1.81,-0.436 0.52,-0.291 0.94,-0.689 1.27,-1.199 0.34,-0.507 0.58,-1.1 0.74,-1.773 0.16,-0.676 0.24,-1.39 0.24,-2.149 v -0.357 c 0,-0.75 -0.08,-1.454 -0.24,-2.117 -0.16,-0.676 -0.41,-1.272 -0.75,-1.792 -0.34,-0.52 -0.76,-0.925 -1.28,-1.215 -0.51,-0.3 -1.12,-0.45 -1.82,-0.45 -0.7,0 -1.32,0.15 -1.84,0.45 -0.51,0.29 -0.93,0.695 -1.26,1.215 -0.33,0.52 -0.57,1.116 -0.73,1.792 -0.16,0.663 -0.23,1.367 -0.23,2.117 z m 19.07,-15.321 v 23.914 h -3.77 v -23.914 z m 8.13,0 v 23.914 h -3.77 v -23.914 z m 11.53,24.226 c -1.25,0 -2.37,-0.204 -3.38,-0.609 -0.99,-0.414 -1.84,-0.992 -2.55,-1.728 -0.7,-0.737 -1.23,-1.604 -1.6,-2.599 -0.38,-0.998 -0.56,-2.072 -0.56,-3.223 v -0.622 c 0,-1.32 0.19,-2.512 0.57,-3.58 0.39,-1.072 0.92,-1.984 1.6,-2.742 0.69,-0.769 1.5,-1.352 2.43,-1.757 0.94,-0.405 1.95,-0.609 3.04,-0.609 1.2,0 2.26,0.204 3.16,0.609 0.9,0.405 1.65,0.975 2.24,1.712 0.6,0.727 1.05,1.591 1.34,2.598 0.3,1.008 0.45,2.118 0.45,3.332 v 1.604 h -13.01 v -2.694 h 9.31 v -0.297 c -0.02,-0.672 -0.16,-1.307 -0.41,-1.897 -0.24,-0.593 -0.6,-1.071 -1.1,-1.431 -0.5,-0.364 -1.17,-0.546 -2,-0.546 -0.62,0 -1.17,0.134 -1.66,0.405 -0.48,0.259 -0.88,0.638 -1.2,1.135 -0.32,0.498 -0.57,1.1 -0.75,1.805 -0.16,0.698 -0.25,1.479 -0.25,2.353 v 0.622 c 0,0.736 0.1,1.422 0.3,2.056 0.2,0.622 0.51,1.167 0.9,1.633 0.4,0.469 0.87,0.835 1.43,1.106 0.56,0.258 1.2,0.389 1.92,0.389 0.9,0 1.71,-0.182 2.41,-0.545 0.71,-0.364 1.32,-0.877 1.84,-1.54 l 1.97,1.913 c -0.36,0.529 -0.83,1.039 -1.41,1.527 -0.58,0.479 -1.29,0.868 -2.13,1.167 -0.83,0.3 -1.8,0.453 -2.9,0.453 z m 13.44,-13.949 v 13.637 h -3.76 v -16.845 h 3.58 z m 5.15,-3.316 -0.03,3.485 c -0.23,-0.042 -0.48,-0.07 -0.75,-0.093 -0.26,-0.019 -0.52,-0.032 -0.78,-0.032 -0.64,0 -1.21,0.096 -1.7,0.281 -0.48,0.179 -0.89,0.437 -1.22,0.778 -0.33,0.335 -0.57,0.736 -0.75,1.215 -0.18,0.478 -0.28,1.014 -0.31,1.603 l -0.86,0.064 c 0,-1.058 0.11,-2.04 0.31,-2.943 0.21,-0.902 0.52,-1.696 0.94,-2.381 0.42,-0.686 0.95,-1.222 1.58,-1.604 0.65,-0.386 1.39,-0.577 2.23,-0.577 0.23,0 0.47,0.022 0.73,0.064 0.27,0.041 0.48,0.086 0.61,0.14 z m 14.17,4.623 3.9,-2.63 c 0.66,-0.437 1.12,-0.864 1.4,-1.279 0.28,-0.424 0.42,-0.953 0.42,-1.588 0,-0.539 -0.2,-1.036 -0.62,-1.495 -0.41,-0.456 -1,-0.682 -1.76,-0.682 -0.53,0 -0.97,0.124 -1.34,0.372 -0.36,0.24 -0.63,0.562 -0.82,0.967 -0.18,0.392 -0.27,0.835 -0.27,1.323 0,0.465 0.12,0.947 0.36,1.447 0.24,0.488 0.57,1.001 0.98,1.54 0.42,0.53 0.89,1.1 1.41,1.713 l 10.71,12.642 h -4.35 l -8.75,-10.293 c -0.75,-0.912 -1.42,-1.747 -2,-2.506 -0.59,-0.768 -1.04,-1.508 -1.36,-2.225 -0.32,-0.727 -0.48,-1.473 -0.48,-2.242 0,-1.183 0.24,-2.2 0.73,-3.051 0.49,-0.851 1.18,-1.505 2.07,-1.961 0.89,-0.469 1.94,-0.701 3.13,-0.701 1.15,0 2.14,0.232 2.97,0.701 0.84,0.456 1.49,1.062 1.93,1.821 0.46,0.759 0.69,1.588 0.69,2.49 0,0.717 -0.13,1.371 -0.39,1.961 -0.26,0.593 -0.62,1.132 -1.08,1.619 -0.45,0.488 -0.98,0.951 -1.58,1.387 l -4.75,3.457 c -0.55,0.446 -0.96,0.876 -1.23,1.291 -0.26,0.405 -0.43,0.778 -0.51,1.122 -0.09,0.341 -0.13,0.641 -0.13,0.903 0,0.663 0.14,1.265 0.42,1.804 0.29,0.542 0.71,0.973 1.26,1.295 0.56,0.309 1.24,0.465 2.04,0.465 0.86,0 1.7,-0.191 2.51,-0.577 0.81,-0.392 1.54,-0.947 2.18,-1.664 0.64,-0.718 1.15,-1.572 1.52,-2.57 0.39,-0.995 0.58,-2.101 0.58,-3.316 h 3.24 c 0,1.1 -0.11,2.143 -0.33,3.131 -0.21,0.985 -0.54,1.897 -1.01,2.739 -0.46,0.842 -1.06,1.594 -1.81,2.257 -0.07,0.074 -0.15,0.166 -0.25,0.281 -0.08,0.102 -0.16,0.191 -0.24,0.264 -0.9,0.82 -1.9,1.432 -3.01,1.837 -1.1,0.395 -2.27,0.593 -3.52,0.593 -1.5,0 -2.81,-0.277 -3.91,-0.826 -1.1,-0.551 -1.95,-1.307 -2.55,-2.273 -0.59,-0.966 -0.89,-2.069 -0.89,-3.316 0,-0.925 0.19,-1.735 0.58,-2.43 0.38,-0.704 0.91,-1.358 1.57,-1.96 0.67,-0.613 1.46,-1.225 2.34,-1.837 z m -261.72,50.68 v 3.099 h -11.38 v -3.099 z m -10.29,-19.568 v 22.667 h -3.91 v -22.667 z m 17.12,9.636 h 2.24 c 0.87,0 1.6,-0.15 2.17,-0.453 0.58,-0.3 1.01,-0.714 1.29,-1.243 0.28,-0.53 0.42,-1.139 0.42,-1.821 0,-0.717 -0.13,-1.33 -0.39,-1.84 -0.25,-0.516 -0.63,-0.918 -1.15,-1.199 -0.51,-0.277 -1.16,-0.417 -1.95,-0.417 -0.66,0 -1.26,0.134 -1.8,0.405 -0.53,0.258 -0.95,0.631 -1.27,1.119 -0.31,0.478 -0.46,1.049 -0.46,1.712 h -3.77 c 0,-1.202 0.32,-2.273 0.95,-3.208 0.63,-0.934 1.5,-1.664 2.58,-2.193 1.11,-0.539 2.34,-0.81 3.71,-0.81 1.46,0 2.74,0.242 3.83,0.73 1.1,0.478 1.95,1.196 2.57,2.149 0.61,0.957 0.92,2.14 0.92,3.552 0,0.641 -0.15,1.294 -0.45,1.961 -0.3,0.663 -0.75,1.272 -1.34,1.82 -0.6,0.539 -1.33,0.983 -2.21,1.324 -0.89,0.331 -1.91,0.497 -3.07,0.497 h -2.82 z m 0,2.927 v -2.054 h 2.82 c 1.33,0 2.46,0.153 3.39,0.466 0.95,0.312 1.71,0.743 2.31,1.291 0.59,0.542 1.02,1.158 1.29,1.853 0.28,0.695 0.42,1.434 0.42,2.212 0,1.059 -0.19,2.003 -0.58,2.832 -0.37,0.822 -0.91,1.517 -1.6,2.088 -0.7,0.571 -1.51,1.001 -2.44,1.291 -0.93,0.291 -1.94,0.437 -3.03,0.437 -0.97,0 -1.9,-0.137 -2.8,-0.405 -0.89,-0.271 -1.69,-0.669 -2.39,-1.198 -0.71,-0.543 -1.27,-1.212 -1.69,-2.009 -0.4,-0.81 -0.6,-1.744 -0.6,-2.803 h 3.75 c 0,0.676 0.15,1.272 0.47,1.789 0.32,0.51 0.76,0.909 1.33,1.199 0.59,0.293 1.25,0.437 2,0.437 0.79,0 1.47,-0.141 2.04,-0.421 0.57,-0.281 1,-0.695 1.31,-1.244 0.3,-0.551 0.46,-1.215 0.46,-1.993 0,-0.883 -0.17,-1.6 -0.51,-2.149 -0.34,-0.551 -0.83,-0.956 -1.47,-1.214 -0.63,-0.271 -1.38,-0.405 -2.24,-0.405 z m 21.89,-13.809 h 3.75 v 20.316 l -0.35,3.597 h -3.4 z m 14.74,15.336 v 0.325 c 0,1.247 -0.14,2.392 -0.42,3.441 -0.27,1.039 -0.68,1.941 -1.24,2.71 -0.55,0.768 -1.24,1.364 -2.06,1.788 -0.81,0.418 -1.75,0.625 -2.82,0.625 -1.04,0 -1.96,-0.197 -2.74,-0.593 -0.77,-0.395 -1.43,-0.953 -1.96,-1.68 -0.52,-0.727 -0.94,-1.594 -1.26,-2.602 -0.32,-1.004 -0.55,-2.117 -0.68,-3.332 v -1.042 c 0.13,-1.225 0.36,-2.334 0.68,-3.332 0.32,-1.004 0.74,-1.872 1.26,-2.599 0.53,-0.736 1.18,-1.304 1.95,-1.696 0.78,-0.395 1.69,-0.593 2.72,-0.593 1.08,0 2.03,0.207 2.85,0.622 0.83,0.417 1.52,1.007 2.07,1.776 0.55,0.759 0.96,1.661 1.23,2.71 0.28,1.046 0.42,2.203 0.42,3.472 z m -3.75,0.325 v -0.325 c 0,-0.759 -0.06,-1.47 -0.18,-2.133 -0.13,-0.676 -0.34,-1.269 -0.63,-1.776 -0.28,-0.51 -0.66,-0.909 -1.15,-1.199 -0.48,-0.3 -1.08,-0.453 -1.79,-0.453 -0.67,0 -1.24,0.115 -1.71,0.345 -0.48,0.226 -0.88,0.539 -1.2,0.934 -0.32,0.392 -0.58,0.851 -0.77,1.368 -0.17,0.52 -0.29,1.081 -0.35,1.683 v 2.819 c 0.09,0.778 0.29,1.492 0.59,2.146 0.31,0.644 0.75,1.163 1.31,1.559 0.56,0.382 1.28,0.574 2.16,0.574 0.7,0 1.28,-0.141 1.76,-0.418 0.48,-0.281 0.86,-0.67 1.14,-1.17 0.29,-0.507 0.49,-1.1 0.62,-1.773 0.13,-0.676 0.2,-1.403 0.2,-2.181 z m 16.43,4.872 v -8.032 c 0,-0.602 -0.11,-1.122 -0.33,-1.555 -0.22,-0.437 -0.55,-0.775 -1,-1.014 -0.43,-0.24 -0.98,-0.357 -1.65,-0.357 -0.61,0 -1.14,0.102 -1.59,0.312 -0.44,0.207 -0.79,0.488 -1.04,0.839 -0.25,0.354 -0.37,0.752 -0.37,1.198 h -3.74 c 0,-0.663 0.16,-1.307 0.48,-1.929 0.33,-0.624 0.79,-1.179 1.41,-1.667 0.61,-0.488 1.34,-0.871 2.19,-1.151 0.85,-0.281 1.81,-0.421 2.87,-0.421 1.26,0 2.38,0.214 3.36,0.638 0.98,0.427 1.76,1.071 2.32,1.932 0.57,0.851 0.85,1.919 0.85,3.207 v 7.487 c 0,0.768 0.06,1.46 0.16,2.072 0.11,0.603 0.28,1.126 0.48,1.572 v 0.249 h -3.84 c -0.18,-0.405 -0.32,-0.918 -0.42,-1.54 -0.1,-0.635 -0.14,-1.247 -0.14,-1.84 z m 0.54,-6.865 0.03,2.322 h -2.69 c -0.7,0 -1.31,0.067 -1.84,0.201 -0.53,0.124 -0.97,0.312 -1.32,0.561 -0.35,0.248 -0.62,0.548 -0.8,0.902 -0.17,0.354 -0.26,0.752 -0.26,1.199 0,0.446 0.1,0.858 0.31,1.231 0.21,0.363 0.51,0.647 0.9,0.854 0.41,0.207 0.9,0.313 1.47,0.313 0.76,0 1.43,-0.157 2.01,-0.466 0.58,-0.322 1.03,-0.711 1.37,-1.17 0.33,-0.466 0.5,-0.906 0.53,-1.323 l 1.21,1.667 c -0.12,0.424 -0.34,0.88 -0.64,1.368 -0.3,0.488 -0.7,0.957 -1.18,1.403 -0.48,0.437 -1.06,0.794 -1.73,1.074 -0.66,0.281 -1.43,0.421 -2.3,0.421 -1.1,0 -2.09,-0.22 -2.95,-0.653 -0.86,-0.447 -1.53,-1.046 -2.02,-1.792 -0.49,-0.759 -0.73,-1.614 -0.73,-2.57 0,-0.893 0.16,-1.68 0.5,-2.366 0.34,-0.695 0.84,-1.275 1.49,-1.744 0.66,-0.465 1.47,-0.819 2.43,-1.059 0.95,-0.248 2.04,-0.373 3.27,-0.373 z m 11.16,-13.668 v 23.913 h -3.76 v -23.913 z m 13.61,20.533 v -8.032 c 0,-0.602 -0.11,-1.122 -0.33,-1.555 -0.22,-0.437 -0.55,-0.775 -0.99,-1.014 -0.44,-0.24 -0.99,-0.357 -1.65,-0.357 -0.61,0 -1.14,0.102 -1.59,0.312 -0.45,0.207 -0.79,0.488 -1.05,0.839 -0.24,0.354 -0.37,0.752 -0.37,1.198 h -3.74 c 0,-0.663 0.17,-1.307 0.49,-1.929 0.32,-0.624 0.79,-1.179 1.4,-1.667 0.61,-0.488 1.34,-0.871 2.2,-1.151 0.85,-0.281 1.8,-0.421 2.86,-0.421 1.26,0 2.39,0.214 3.36,0.638 0.99,0.427 1.76,1.071 2.32,1.932 0.57,0.851 0.86,1.919 0.86,3.207 v 7.487 c 0,0.768 0.05,1.46 0.15,2.072 0.12,0.603 0.28,1.126 0.49,1.572 v 0.249 h -3.85 c -0.17,-0.405 -0.32,-0.918 -0.42,-1.54 -0.09,-0.635 -0.14,-1.247 -0.14,-1.84 z m 0.54,-6.865 0.04,2.322 h -2.7 c -0.69,0 -1.3,0.067 -1.83,0.201 -0.53,0.124 -0.97,0.312 -1.33,0.561 -0.35,0.248 -0.62,0.548 -0.79,0.902 -0.18,0.354 -0.27,0.752 -0.27,1.199 0,0.446 0.11,0.858 0.32,1.231 0.2,0.363 0.5,0.647 0.9,0.854 0.4,0.207 0.89,0.313 1.46,0.313 0.77,0 1.44,-0.157 2.01,-0.466 0.58,-0.322 1.04,-0.711 1.37,-1.17 0.33,-0.466 0.51,-0.906 0.53,-1.323 l 1.21,1.667 c -0.12,0.424 -0.34,0.88 -0.63,1.368 -0.3,0.488 -0.7,0.957 -1.19,1.403 -0.48,0.437 -1.05,0.794 -1.73,1.074 -0.66,0.281 -1.43,0.421 -2.3,0.421 -1.1,0 -2.08,-0.22 -2.94,-0.653 -0.86,-0.447 -1.54,-1.046 -2.03,-1.792 -0.48,-0.759 -0.73,-1.614 -0.73,-2.57 0,-0.893 0.17,-1.68 0.5,-2.366 0.34,-0.695 0.84,-1.275 1.49,-1.744 0.67,-0.465 1.48,-0.819 2.43,-1.059 0.96,-0.248 2.05,-0.373 3.27,-0.373 z m 10.87,-3.003 v 13.248 h -3.75 v -16.844 h 3.53 z m -0.67,4.202 -1.21,-0.016 c 0.01,-1.192 0.17,-2.289 0.5,-3.284 0.33,-0.998 0.78,-1.852 1.36,-2.57 0.6,-0.714 1.3,-1.265 2.13,-1.648 0.81,-0.395 1.73,-0.593 2.73,-0.593 0.81,0 1.54,0.115 2.2,0.344 0.66,0.217 1.23,0.574 1.7,1.072 0.47,0.5 0.84,1.148 1.08,1.948 0.26,0.787 0.38,1.76 0.38,2.911 v 10.882 h -3.77 v -10.898 c 0,-0.81 -0.12,-1.448 -0.36,-1.916 -0.22,-0.475 -0.56,-0.813 -1.01,-1.011 -0.43,-0.207 -0.98,-0.313 -1.63,-0.313 -0.65,0 -1.22,0.138 -1.73,0.405 -0.51,0.271 -0.94,0.641 -1.29,1.107 -0.35,0.468 -0.61,1.007 -0.8,1.619 -0.18,0.613 -0.28,1.266 -0.28,1.961 z m 21.58,6.368 c 0.61,0 1.16,-0.118 1.65,-0.358 0.5,-0.248 0.9,-0.593 1.2,-1.026 0.31,-0.437 0.48,-0.941 0.51,-1.511 h 3.54 c -0.02,1.09 -0.34,2.082 -0.97,2.974 -0.62,0.893 -1.45,1.604 -2.47,2.133 -1.03,0.517 -2.17,0.778 -3.41,0.778 -1.29,0 -2.41,-0.22 -3.37,-0.653 -0.95,-0.447 -1.75,-1.059 -2.38,-1.84 -0.63,-0.778 -1.11,-1.674 -1.43,-2.691 -0.31,-1.017 -0.47,-2.108 -0.47,-3.271 v -0.546 c 0,-1.16 0.16,-2.251 0.47,-3.268 0.32,-1.026 0.8,-1.929 1.43,-2.71 0.63,-0.778 1.43,-1.384 2.38,-1.82 0.96,-0.447 2.07,-0.67 3.35,-0.67 1.35,0 2.53,0.271 3.55,0.81 1.02,0.529 1.82,1.272 2.4,2.225 0.59,0.947 0.9,2.047 0.92,3.3 h -3.54 c -0.03,-0.621 -0.18,-1.182 -0.46,-1.68 -0.27,-0.507 -0.66,-0.912 -1.16,-1.215 -0.48,-0.299 -1.07,-0.449 -1.76,-0.449 -0.75,0 -1.38,0.153 -1.88,0.465 -0.5,0.303 -0.89,0.718 -1.17,1.247 -0.28,0.52 -0.48,1.103 -0.6,1.76 -0.12,0.641 -0.17,1.31 -0.17,2.005 v 0.546 c 0,0.695 0.05,1.371 0.17,2.024 0.11,0.654 0.31,1.241 0.59,1.76 0.29,0.507 0.68,0.919 1.18,1.231 0.5,0.3 1.13,0.45 1.9,0.45 z m 17.2,2.99 c -1.24,0 -2.37,-0.204 -3.37,-0.609 -1,-0.414 -1.85,-0.991 -2.56,-1.728 -0.69,-0.736 -1.23,-1.604 -1.6,-2.598 -0.38,-0.998 -0.56,-2.073 -0.56,-3.224 v -0.622 c 0,-1.32 0.19,-2.512 0.57,-3.58 0.39,-1.071 0.92,-1.983 1.61,-2.742 0.68,-0.769 1.49,-1.352 2.43,-1.757 0.93,-0.405 1.94,-0.609 3.03,-0.609 1.2,0 2.26,0.204 3.16,0.609 0.9,0.405 1.65,0.976 2.24,1.712 0.61,0.727 1.05,1.591 1.34,2.599 0.31,1.007 0.46,2.117 0.46,3.332 v 1.603 h -13.02 v -2.694 h 9.31 v -0.296 c -0.02,-0.673 -0.16,-1.308 -0.4,-1.897 -0.24,-0.593 -0.61,-1.072 -1.11,-1.432 -0.5,-0.364 -1.16,-0.545 -1.99,-0.545 -0.63,0 -1.18,0.134 -1.67,0.405 -0.48,0.258 -0.88,0.637 -1.2,1.135 -0.32,0.497 -0.57,1.1 -0.75,1.804 -0.16,0.699 -0.25,1.48 -0.25,2.353 v 0.622 c 0,0.737 0.1,1.422 0.3,2.057 0.21,0.621 0.51,1.167 0.9,1.632 0.4,0.469 0.87,0.835 1.44,1.107 0.56,0.258 1.19,0.389 1.91,0.389 0.9,0 1.71,-0.182 2.42,-0.546 0.7,-0.363 1.31,-0.877 1.83,-1.54 l 1.98,1.913 c -0.36,0.53 -0.84,1.04 -1.42,1.528 -0.58,0.478 -1.29,0.867 -2.13,1.167 -0.83,0.299 -1.8,0.452 -2.9,0.452 z m 13.44,-13.949 v 13.637 h -3.75 v -16.844 h 3.58 z m 5.15,-3.316 -0.03,3.485 c -0.23,-0.041 -0.48,-0.07 -0.75,-0.092 -0.26,-0.02 -0.51,-0.032 -0.78,-0.032 -0.64,0 -1.2,0.095 -1.69,0.28 -0.49,0.179 -0.9,0.437 -1.23,0.778 -0.32,0.335 -0.57,0.737 -0.75,1.215 -0.17,0.478 -0.28,1.014 -0.31,1.604 l -0.86,0.063 c 0,-1.058 0.11,-2.04 0.31,-2.942 0.21,-0.903 0.52,-1.697 0.94,-2.382 0.42,-0.686 0.95,-1.221 1.59,-1.604 0.64,-0.386 1.38,-0.577 2.22,-0.577 0.23,0 0.48,0.022 0.73,0.064 0.28,0.041 0.48,0.086 0.61,0.14 z m 24.93,4.531 v 3.376 h -15.54 v -3.376 z m -5.95,-6.355 v 16.503 h -3.63 v -16.503 z m 21.8,18.777 h -3.77 v -17.935 c 0,-1.358 0.27,-2.506 0.81,-3.44 0.55,-0.934 1.33,-1.645 2.35,-2.133 1.02,-0.488 2.25,-0.734 3.66,-0.734 0.83,0 1.63,0.09 2.4,0.265 0.77,0.179 1.58,0.402 2.41,0.67 l -0.58,3.051 c -0.53,-0.175 -1.11,-0.341 -1.76,-0.498 -0.64,-0.165 -1.38,-0.248 -2.22,-0.248 -1.14,0 -1.97,0.258 -2.51,0.778 -0.53,0.51 -0.79,1.272 -0.79,2.289 z m 3.37,-16.844 v 2.738 h -9.73 v -2.738 z m 6.26,0 v 16.844 h -3.75 v -16.844 z m 7.96,3.207 v 13.637 h -3.76 v -16.844 h 3.58 z m 5.15,-3.316 -0.03,3.485 c -0.23,-0.041 -0.48,-0.07 -0.75,-0.092 -0.26,-0.02 -0.52,-0.032 -0.78,-0.032 -0.64,0 -1.2,0.095 -1.69,0.28 -0.49,0.179 -0.9,0.437 -1.23,0.778 -0.33,0.335 -0.57,0.737 -0.75,1.215 -0.18,0.478 -0.28,1.014 -0.31,1.604 l -0.86,0.063 c 0,-1.058 0.11,-2.04 0.31,-2.942 0.21,-0.903 0.52,-1.697 0.94,-2.382 0.42,-0.686 0.95,-1.221 1.58,-1.604 0.65,-0.386 1.39,-0.577 2.23,-0.577 0.23,0 0.48,0.022 0.73,0.064 0.27,0.041 0.48,0.086 0.61,0.14 z m 9.47,17.265 c -1.25,0 -2.38,-0.204 -3.38,-0.609 -1,-0.414 -1.85,-0.991 -2.55,-1.728 -0.7,-0.736 -1.24,-1.604 -1.61,-2.598 -0.37,-0.998 -0.56,-2.073 -0.56,-3.224 v -0.622 c 0,-1.32 0.19,-2.512 0.58,-3.58 0.38,-1.071 0.92,-1.983 1.6,-2.742 0.69,-0.769 1.49,-1.352 2.43,-1.757 0.93,-0.405 1.95,-0.609 3.04,-0.609 1.2,0 2.25,0.204 3.16,0.609 0.9,0.405 1.64,0.976 2.24,1.712 0.6,0.727 1.05,1.591 1.34,2.599 0.3,1.007 0.45,2.117 0.45,3.332 v 1.603 h -13.02 v -2.694 h 9.31 v -0.296 c -0.02,-0.673 -0.15,-1.308 -0.4,-1.897 -0.24,-0.593 -0.61,-1.072 -1.11,-1.432 -0.5,-0.364 -1.16,-0.545 -1.99,-0.545 -0.62,0 -1.18,0.134 -1.67,0.405 -0.48,0.258 -0.87,0.637 -1.2,1.135 -0.32,0.497 -0.57,1.1 -0.74,1.804 -0.17,0.699 -0.25,1.48 -0.25,2.353 v 0.622 c 0,0.737 0.1,1.422 0.3,2.057 0.2,0.621 0.5,1.167 0.9,1.632 0.39,0.469 0.87,0.835 1.43,1.107 0.56,0.258 1.2,0.389 1.92,0.389 0.9,0 1.7,-0.182 2.41,-0.546 0.7,-0.363 1.32,-0.877 1.84,-1.54 l 1.97,1.913 c -0.36,0.53 -0.83,1.04 -1.42,1.528 -0.58,0.478 -1.29,0.867 -2.13,1.167 -0.83,0.299 -1.79,0.452 -2.89,0.452 z m 14.24,-4.049 3.89,-13.107 h 2.4 l -0.65,3.921 -3.93,12.923 h -2.15 z m -2.29,-13.107 3.04,13.171 0.25,3.673 h -2.4 l -4.56,-16.844 z m 12.22,13.015 2.95,-13.015 h 3.65 l -4.54,16.844 h -2.4 z m -3.23,-13.015 3.84,12.951 0.48,3.893 h -2.14 l -3.97,-12.939 -0.66,-3.905 z m 21.89,13.464 v -8.032 c 0,-0.602 -0.11,-1.122 -0.33,-1.555 -0.22,-0.437 -0.55,-0.775 -1,-1.014 -0.43,-0.24 -0.98,-0.357 -1.65,-0.357 -0.61,0 -1.14,0.102 -1.59,0.312 -0.44,0.207 -0.79,0.488 -1.04,0.839 -0.25,0.354 -0.37,0.752 -0.37,1.198 h -3.74 c 0,-0.663 0.16,-1.307 0.48,-1.929 0.32,-0.624 0.79,-1.179 1.41,-1.667 0.61,-0.488 1.34,-0.871 2.19,-1.151 0.85,-0.281 1.81,-0.421 2.87,-0.421 1.26,0 2.38,0.214 3.36,0.638 0.98,0.427 1.76,1.071 2.32,1.932 0.57,0.851 0.85,1.919 0.85,3.207 v 7.487 c 0,0.768 0.06,1.46 0.16,2.072 0.11,0.603 0.27,1.126 0.48,1.572 v 0.249 h -3.84 c -0.18,-0.405 -0.32,-0.918 -0.42,-1.54 -0.1,-0.635 -0.14,-1.247 -0.14,-1.84 z m 0.54,-6.865 0.03,2.322 h -2.69 c -0.7,0 -1.31,0.067 -1.84,0.201 -0.53,0.124 -0.97,0.312 -1.32,0.561 -0.35,0.248 -0.62,0.548 -0.8,0.902 -0.17,0.354 -0.26,0.752 -0.26,1.199 0,0.446 0.1,0.858 0.31,1.231 0.21,0.363 0.51,0.647 0.9,0.854 0.41,0.207 0.89,0.313 1.47,0.313 0.76,0 1.43,-0.157 2,-0.466 0.59,-0.322 1.04,-0.711 1.38,-1.17 0.33,-0.466 0.5,-0.906 0.52,-1.323 l 1.22,1.667 c -0.13,0.424 -0.34,0.88 -0.64,1.368 -0.3,0.488 -0.7,0.957 -1.18,1.403 -0.48,0.437 -1.06,0.794 -1.73,1.074 -0.67,0.281 -1.43,0.421 -2.3,0.421 -1.1,0 -2.09,-0.22 -2.95,-0.653 -0.86,-0.447 -1.53,-1.046 -2.02,-1.792 -0.49,-0.759 -0.73,-1.614 -0.73,-2.57 0,-0.893 0.16,-1.68 0.5,-2.366 0.34,-0.695 0.84,-1.275 1.49,-1.744 0.66,-0.465 1.47,-0.819 2.43,-1.059 0.95,-0.248 2.04,-0.373 3.27,-0.373 z m 11.16,-13.668 v 23.913 h -3.77 v -23.913 z m 8.13,0 v 23.913 h -3.77 v -23.913 z m 7.63,20.3 -0.02,2.679 c 0,1.058 -0.26,2.149 -0.79,3.268 -0.53,1.122 -1.23,2.047 -2.1,2.774 l -2.01,-1.171 c 0.29,-0.465 0.55,-0.937 0.79,-1.415 0.24,-0.478 0.43,-0.985 0.58,-1.527 0.14,-0.539 0.22,-1.135 0.22,-1.789 v -2.819 z m -266.56,39.224 c 0,-0.469 -0.08,-0.883 -0.22,-1.246 -0.14,-0.364 -0.38,-0.696 -0.73,-0.995 -0.36,-0.303 -0.85,-0.593 -1.5,-0.874 -0.63,-0.29 -1.44,-0.587 -2.43,-0.886 -1.08,-0.332 -2.07,-0.702 -2.99,-1.107 -0.9,-0.414 -1.69,-0.892 -2.36,-1.431 -0.68,-0.549 -1.2,-1.177 -1.58,-1.885 -0.37,-0.714 -0.55,-1.54 -0.55,-2.474 0,-0.924 0.19,-1.763 0.57,-2.522 0.39,-0.759 0.95,-1.412 1.67,-1.961 0.72,-0.561 1.58,-0.991 2.56,-1.294 0.99,-0.31 2.08,-0.466 3.28,-0.466 1.68,0 3.12,0.313 4.34,0.934 1.22,0.622 2.16,1.458 2.82,2.507 0.66,1.049 0.99,2.206 0.99,3.472 h -3.87 c 0,-0.746 -0.17,-1.406 -0.49,-1.977 -0.31,-0.58 -0.78,-1.039 -1.43,-1.371 -0.63,-0.332 -1.44,-0.497 -2.41,-0.497 -0.93,0 -1.69,0.14 -2.31,0.42 -0.61,0.281 -1.07,0.657 -1.37,1.135 -0.3,0.479 -0.45,1.018 -0.45,1.62 0,0.424 0.1,0.816 0.3,1.167 0.2,0.344 0.5,0.667 0.9,0.966 0.41,0.29 0.92,0.564 1.53,0.826 0.61,0.258 1.33,0.507 2.16,0.746 1.26,0.373 2.35,0.788 3.29,1.247 0.93,0.446 1.71,0.953 2.33,1.524 0.62,0.571 1.09,1.221 1.4,1.948 0.31,0.714 0.47,1.53 0.47,2.442 0,0.957 -0.19,1.818 -0.58,2.586 -0.38,0.756 -0.93,1.406 -1.65,1.945 -0.7,0.529 -1.55,0.941 -2.55,1.231 -0.99,0.28 -2.09,0.421 -3.3,0.421 -1.09,0 -2.17,-0.147 -3.22,-0.437 -1.05,-0.29 -2.01,-0.734 -2.87,-1.323 -0.86,-0.603 -1.54,-1.349 -2.05,-2.242 -0.51,-0.902 -0.77,-1.958 -0.77,-3.16 h 3.91 c 0,0.737 0.13,1.365 0.38,1.882 0.25,0.519 0.61,0.946 1.07,1.278 0.46,0.322 0.99,0.561 1.59,0.714 0.61,0.156 1.26,0.236 1.96,0.236 0.91,0 1.68,-0.13 2.29,-0.389 0.62,-0.261 1.09,-0.625 1.4,-1.09 0.31,-0.469 0.47,-1.008 0.47,-1.62 z m 14.72,-11.006 v 2.739 h -9.49 v -2.739 z m -6.75,-4.126 h 3.75 v 16.315 c 0,0.52 0.07,0.918 0.22,1.199 0.15,0.271 0.36,0.453 0.64,0.545 0.27,0.093 0.58,0.14 0.95,0.14 0.25,0 0.5,-0.016 0.74,-0.047 0.24,-0.032 0.43,-0.061 0.58,-0.093 l 0.01,2.863 c -0.31,0.096 -0.67,0.179 -1.09,0.249 -0.4,0.073 -0.87,0.112 -1.4,0.112 -0.86,0 -1.62,-0.154 -2.28,-0.453 -0.67,-0.313 -1.19,-0.813 -1.56,-1.512 -0.38,-0.695 -0.56,-1.616 -0.56,-2.77 z m 19.14,17.59 v -8.031 c 0,-0.603 -0.1,-1.122 -0.32,-1.556 -0.22,-0.437 -0.55,-0.775 -1,-1.014 -0.43,-0.239 -0.98,-0.357 -1.65,-0.357 -0.61,0 -1.14,0.102 -1.58,0.312 -0.45,0.208 -0.8,0.488 -1.05,0.839 -0.25,0.354 -0.37,0.752 -0.37,1.199 h -3.74 c 0,-0.664 0.16,-1.308 0.48,-1.929 0.33,-0.625 0.79,-1.18 1.4,-1.668 0.62,-0.488 1.35,-0.87 2.2,-1.151 0.85,-0.28 1.81,-0.421 2.86,-0.421 1.27,0 2.39,0.214 3.37,0.638 0.98,0.427 1.76,1.071 2.32,1.932 0.57,0.851 0.85,1.92 0.85,3.208 v 7.486 c 0,0.768 0.05,1.46 0.16,2.072 0.11,0.603 0.27,1.126 0.48,1.572 v 0.249 h -3.84 c -0.18,-0.405 -0.32,-0.918 -0.43,-1.54 -0.09,-0.634 -0.14,-1.247 -0.14,-1.84 z m 0.55,-6.864 0.03,2.321 h -2.69 c -0.7,0 -1.31,0.067 -1.84,0.201 -0.53,0.124 -0.97,0.312 -1.32,0.561 -0.36,0.249 -0.62,0.548 -0.8,0.902 -0.17,0.354 -0.26,0.753 -0.26,1.199 0,0.446 0.1,0.858 0.31,1.231 0.21,0.363 0.51,0.647 0.9,0.854 0.41,0.208 0.9,0.313 1.47,0.313 0.77,0 1.44,-0.156 2.01,-0.466 0.58,-0.322 1.03,-0.711 1.37,-1.17 0.33,-0.465 0.5,-0.905 0.53,-1.323 l 1.21,1.668 c -0.13,0.424 -0.34,0.879 -0.64,1.367 -0.3,0.488 -0.69,0.957 -1.18,1.403 -0.48,0.437 -1.05,0.794 -1.73,1.075 -0.66,0.28 -1.43,0.421 -2.31,0.421 -1.1,0 -2.07,-0.22 -2.94,-0.654 -0.86,-0.446 -1.53,-1.046 -2.02,-1.792 -0.49,-0.759 -0.73,-1.613 -0.73,-2.57 0,-0.893 0.16,-1.68 0.5,-2.366 0.34,-0.695 0.84,-1.275 1.49,-1.744 0.67,-0.465 1.48,-0.819 2.43,-1.058 0.96,-0.249 2.04,-0.373 3.27,-0.373 z m 14.87,-6.6 v 2.739 h -9.5 v -2.739 z m -6.76,-4.126 h 3.75 v 16.315 c 0,0.52 0.08,0.918 0.22,1.199 0.16,0.271 0.37,0.453 0.64,0.545 0.27,0.093 0.59,0.14 0.95,0.14 0.26,0 0.51,-0.016 0.75,-0.047 0.24,-0.032 0.43,-0.061 0.57,-0.093 l 0.02,2.863 c -0.31,0.096 -0.68,0.179 -1.09,0.249 -0.4,0.073 -0.87,0.112 -1.4,0.112 -0.86,0 -1.63,-0.154 -2.29,-0.453 -0.66,-0.313 -1.18,-0.813 -1.56,-1.512 -0.37,-0.695 -0.56,-1.616 -0.56,-2.77 z m 13.67,4.126 v 16.844 h -3.77 v -16.844 z m -4.01,-4.423 c 0,-0.57 0.18,-1.042 0.55,-1.415 0.39,-0.386 0.92,-0.577 1.59,-0.577 0.67,0 1.19,0.191 1.58,0.577 0.38,0.373 0.57,0.845 0.57,1.415 0,0.562 -0.19,1.027 -0.57,1.403 -0.39,0.373 -0.91,0.558 -1.58,0.558 -0.67,0 -1.2,-0.185 -1.59,-0.558 -0.37,-0.376 -0.55,-0.841 -0.55,-1.403 z m 17.57,16.704 c 0,-0.373 -0.09,-0.71 -0.28,-1.01 -0.19,-0.313 -0.54,-0.593 -1.07,-0.842 -0.52,-0.249 -1.29,-0.475 -2.31,-0.685 -0.89,-0.195 -1.71,-0.431 -2.46,-0.699 -0.74,-0.28 -1.37,-0.618 -1.9,-1.014 -0.52,-0.392 -0.94,-0.861 -1.23,-1.399 -0.29,-0.539 -0.43,-1.164 -0.43,-1.869 0,-0.685 0.15,-1.332 0.45,-1.945 0.3,-0.612 0.73,-1.154 1.29,-1.619 0.56,-0.469 1.24,-0.836 2.04,-1.107 0.81,-0.271 1.71,-0.405 2.71,-0.405 1.41,0 2.62,0.239 3.63,0.718 1.01,0.465 1.79,1.103 2.33,1.913 0.54,0.8 0.81,1.702 0.81,2.71 h -3.75 c 0,-0.446 -0.11,-0.861 -0.34,-1.247 -0.22,-0.392 -0.55,-0.711 -1,-0.95 -0.44,-0.249 -1.01,-0.373 -1.68,-0.373 -0.65,0 -1.18,0.105 -1.61,0.312 -0.41,0.198 -0.72,0.456 -0.93,0.778 -0.19,0.322 -0.29,0.676 -0.29,1.059 0,0.281 0.05,0.536 0.15,0.762 0.11,0.22 0.3,0.421 0.56,0.609 0.26,0.175 0.61,0.341 1.06,0.497 0.46,0.157 1.03,0.307 1.71,0.453 1.29,0.268 2.4,0.616 3.32,1.043 0.93,0.414 1.65,0.953 2.15,1.619 0.5,0.654 0.75,1.483 0.75,2.491 0,0.746 -0.17,1.431 -0.49,2.053 -0.31,0.612 -0.77,1.148 -1.37,1.604 -0.6,0.446 -1.32,0.794 -2.16,1.042 -0.83,0.252 -1.77,0.377 -2.8,0.377 -1.53,0 -2.82,-0.271 -3.88,-0.81 -1.06,-0.552 -1.86,-1.253 -2.41,-2.101 -0.54,-0.865 -0.81,-1.757 -0.81,-2.679 h 3.62 c 0.05,0.695 0.24,1.25 0.58,1.665 0.35,0.405 0.79,0.701 1.31,0.889 0.53,0.176 1.07,0.265 1.63,0.265 0.68,0 1.24,-0.089 1.7,-0.265 0.46,-0.188 0.8,-0.437 1.04,-0.749 0.24,-0.322 0.36,-0.686 0.36,-1.091 z m 14.68,-12.281 v 2.739 h -9.5 v -2.739 z m -6.75,-4.126 h 3.75 v 16.315 c 0,0.52 0.07,0.918 0.22,1.199 0.15,0.271 0.36,0.453 0.63,0.545 0.27,0.093 0.59,0.14 0.95,0.14 0.26,0 0.51,-0.016 0.75,-0.047 0.24,-0.032 0.43,-0.061 0.58,-0.093 l 0.01,2.863 c -0.31,0.096 -0.67,0.179 -1.09,0.249 -0.4,0.073 -0.87,0.112 -1.4,0.112 -0.86,0 -1.62,-0.154 -2.29,-0.453 -0.66,-0.313 -1.18,-0.813 -1.56,-1.512 -0.37,-0.695 -0.55,-1.616 -0.55,-2.77 z m 13.67,4.126 v 16.844 h -3.77 v -16.844 z m -4.02,-4.423 c 0,-0.57 0.19,-1.042 0.56,-1.415 0.38,-0.386 0.91,-0.577 1.59,-0.577 0.66,0 1.19,0.191 1.57,0.577 0.38,0.373 0.58,0.845 0.58,1.415 0,0.562 -0.2,1.027 -0.58,1.403 -0.38,0.373 -0.91,0.558 -1.57,0.558 -0.68,0 -1.21,-0.185 -1.59,-0.558 -0.37,-0.376 -0.56,-0.841 -0.56,-1.403 z m 15.01,18.589 c 0.61,0 1.16,-0.118 1.65,-0.357 0.49,-0.249 0.89,-0.593 1.2,-1.027 0.31,-0.437 0.48,-0.94 0.51,-1.511 h 3.53 c -0.02,1.09 -0.34,2.082 -0.96,2.975 -0.63,0.892 -1.45,1.603 -2.48,2.133 -1.02,0.516 -2.16,0.778 -3.41,0.778 -1.28,0 -2.41,-0.22 -3.36,-0.654 -0.95,-0.446 -1.75,-1.059 -2.38,-1.84 -0.64,-0.778 -1.11,-1.674 -1.43,-2.691 -0.32,-1.017 -0.47,-2.107 -0.47,-3.271 v -0.545 c 0,-1.161 0.15,-2.251 0.47,-3.268 0.32,-1.027 0.79,-1.929 1.43,-2.711 0.63,-0.778 1.43,-1.383 2.38,-1.82 0.95,-0.446 2.07,-0.67 3.35,-0.67 1.35,0 2.53,0.271 3.55,0.81 1.01,0.529 1.81,1.272 2.39,2.226 0.6,0.947 0.9,2.047 0.92,3.3 h -3.53 c -0.03,-0.622 -0.19,-1.183 -0.47,-1.681 -0.27,-0.507 -0.65,-0.912 -1.15,-1.214 -0.49,-0.3 -1.07,-0.45 -1.76,-0.45 -0.76,0 -1.38,0.153 -1.88,0.466 -0.5,0.302 -0.89,0.717 -1.17,1.246 -0.28,0.52 -0.48,1.103 -0.61,1.76 -0.11,0.641 -0.17,1.311 -0.17,2.006 v 0.545 c 0,0.695 0.06,1.371 0.17,2.025 0.11,0.653 0.31,1.24 0.59,1.76 0.29,0.506 0.69,0.918 1.19,1.23 0.5,0.3 1.13,0.45 1.9,0.45 z m 19.22,-1.885 c 0,-0.373 -0.09,-0.71 -0.28,-1.01 -0.18,-0.313 -0.54,-0.593 -1.07,-0.842 -0.52,-0.249 -1.29,-0.475 -2.31,-0.685 -0.89,-0.195 -1.71,-0.431 -2.46,-0.699 -0.73,-0.28 -1.36,-0.618 -1.89,-1.014 -0.53,-0.392 -0.94,-0.861 -1.23,-1.399 -0.29,-0.539 -0.44,-1.164 -0.44,-1.869 0,-0.685 0.15,-1.332 0.45,-1.945 0.3,-0.612 0.73,-1.154 1.29,-1.619 0.56,-0.469 1.24,-0.836 2.04,-1.107 0.81,-0.271 1.72,-0.405 2.71,-0.405 1.41,0 2.62,0.239 3.63,0.718 1.02,0.465 1.79,1.103 2.33,1.913 0.54,0.8 0.81,1.702 0.81,2.71 h -3.75 c 0,-0.446 -0.11,-0.861 -0.34,-1.247 -0.22,-0.392 -0.55,-0.711 -1,-0.95 -0.44,-0.249 -1,-0.373 -1.68,-0.373 -0.64,0 -1.18,0.105 -1.6,0.312 -0.42,0.198 -0.73,0.456 -0.94,0.778 -0.19,0.322 -0.29,0.676 -0.29,1.059 0,0.281 0.05,0.536 0.15,0.762 0.12,0.22 0.3,0.421 0.56,0.609 0.26,0.175 0.62,0.341 1.06,0.497 0.46,0.157 1.03,0.307 1.71,0.453 1.29,0.268 2.4,0.616 3.32,1.043 0.93,0.414 1.65,0.953 2.15,1.619 0.5,0.654 0.75,1.483 0.75,2.491 0,0.746 -0.16,1.431 -0.49,2.053 -0.31,0.612 -0.77,1.148 -1.36,1.604 -0.61,0.446 -1.33,0.794 -2.17,1.042 -0.83,0.252 -1.77,0.377 -2.8,0.377 -1.53,0 -2.82,-0.271 -3.88,-0.81 -1.06,-0.552 -1.86,-1.253 -2.41,-2.101 -0.54,-0.865 -0.81,-1.757 -0.81,-2.679 h 3.63 c 0.04,0.695 0.23,1.25 0.57,1.665 0.35,0.405 0.79,0.701 1.31,0.889 0.53,0.176 1.07,0.265 1.64,0.265 0.67,0 1.24,-0.089 1.69,-0.265 0.46,-0.188 0.81,-0.437 1.04,-0.749 0.24,-0.322 0.36,-0.686 0.36,-1.091 z m 10.48,0.951 -0.01,2.678 c 0,1.058 -0.27,2.149 -0.8,3.268 -0.53,1.122 -1.23,2.047 -2.1,2.774 l -2.01,-1.17 c 0.29,-0.466 0.56,-0.938 0.79,-1.416 0.24,-0.478 0.44,-0.985 0.58,-1.527 0.15,-0.539 0.22,-1.135 0.22,-1.789 v -2.818 z m 26.12,0.513 v 3.099 h -11.38 V 289.6 Z m -10.29,-19.567 v 22.666 h -3.9 v -22.666 z m 12.22,14.43 v -0.357 c 0,-1.214 0.18,-2.34 0.53,-3.379 0.36,-1.049 0.86,-1.955 1.53,-2.723 0.67,-0.781 1.5,-1.381 2.46,-1.808 0.97,-0.434 2.07,-0.654 3.3,-0.654 1.24,0 2.34,0.22 3.3,0.654 0.98,0.427 1.8,1.027 2.48,1.808 0.67,0.768 1.18,1.674 1.54,2.723 0.35,1.039 0.53,2.165 0.53,3.379 v 0.357 c 0,1.215 -0.18,2.341 -0.53,3.38 -0.36,1.036 -0.87,1.945 -1.54,2.723 -0.68,0.768 -1.5,1.371 -2.47,1.805 -0.96,0.427 -2.06,0.641 -3.28,0.641 -1.23,0 -2.34,-0.214 -3.32,-0.641 -0.96,-0.434 -1.78,-1.037 -2.45,-1.805 -0.68,-0.778 -1.19,-1.687 -1.55,-2.723 -0.35,-1.039 -0.53,-2.165 -0.53,-3.38 z m 3.76,-0.357 v 0.357 c 0,0.759 0.07,1.473 0.23,2.149 0.16,0.673 0.4,1.266 0.73,1.773 0.33,0.51 0.76,0.909 1.28,1.199 0.52,0.293 1.14,0.437 1.85,0.437 0.7,0 1.3,-0.144 1.81,-0.437 0.51,-0.29 0.94,-0.689 1.27,-1.199 0.33,-0.507 0.58,-1.1 0.73,-1.773 0.17,-0.676 0.26,-1.39 0.26,-2.149 v -0.357 c 0,-0.749 -0.09,-1.454 -0.26,-2.117 -0.15,-0.676 -0.4,-1.272 -0.74,-1.792 -0.33,-0.519 -0.76,-0.924 -1.28,-1.214 -0.51,-0.3 -1.11,-0.45 -1.82,-0.45 -0.71,0 -1.32,0.15 -1.84,0.45 -0.51,0.29 -0.93,0.695 -1.26,1.214 -0.33,0.52 -0.57,1.116 -0.73,1.792 -0.16,0.663 -0.23,1.368 -0.23,2.117 z m 25.84,-8.251 h 3.41 v 16.379 c 0,1.514 -0.32,2.799 -0.97,3.858 -0.64,1.058 -1.54,1.865 -2.69,2.413 -1.15,0.561 -2.48,0.842 -4,0.842 -0.64,0 -1.36,-0.093 -2.15,-0.281 -0.78,-0.188 -1.53,-0.488 -2.27,-0.902 -0.73,-0.405 -1.34,-0.941 -1.82,-1.604 l 1.76,-2.209 c 0.6,0.714 1.26,1.24 1.99,1.572 0.73,0.331 1.49,0.497 2.29,0.497 0.86,0 1.59,-0.159 2.19,-0.482 0.62,-0.312 1.09,-0.774 1.42,-1.386 0.33,-0.613 0.5,-1.359 0.5,-2.242 v -12.642 z m -11.44,8.608 v -0.328 c 0,-1.275 0.15,-2.439 0.46,-3.485 0.32,-1.058 0.76,-1.967 1.34,-2.726 0.58,-0.768 1.29,-1.355 2.12,-1.76 0.83,-0.414 1.77,-0.622 2.82,-0.622 1.09,0 2.02,0.198 2.79,0.593 0.77,0.392 1.42,0.96 1.94,1.697 0.52,0.727 0.92,1.597 1.21,2.614 0.31,1.008 0.53,2.13 0.67,3.364 v 1.042 c -0.13,1.206 -0.36,2.306 -0.68,3.3 -0.32,0.998 -0.75,1.859 -1.28,2.586 -0.53,0.727 -1.18,1.285 -1.96,1.68 -0.77,0.396 -1.67,0.594 -2.72,0.594 -1.03,0 -1.96,-0.214 -2.79,-0.641 -0.82,-0.424 -1.52,-1.021 -2.12,-1.789 -0.58,-0.768 -1.02,-1.671 -1.34,-2.71 -0.31,-1.046 -0.46,-2.184 -0.46,-3.409 z m 3.75,-0.328 v 0.328 c 0,0.769 0.07,1.483 0.22,2.149 0.15,0.664 0.39,1.25 0.7,1.76 0.32,0.498 0.72,0.893 1.21,1.183 0.5,0.281 1.08,0.421 1.76,0.421 0.88,0 1.6,-0.188 2.17,-0.561 0.57,-0.373 1,-0.877 1.3,-1.511 0.32,-0.644 0.53,-1.359 0.66,-2.149 v -2.819 c -0.07,-0.612 -0.19,-1.183 -0.39,-1.712 -0.19,-0.529 -0.44,-0.992 -0.76,-1.384 -0.33,-0.405 -0.73,-0.717 -1.22,-0.934 -0.49,-0.229 -1.06,-0.344 -1.73,-0.344 -0.67,0 -1.26,0.146 -1.76,0.437 -0.49,0.29 -0.91,0.691 -1.23,1.198 -0.31,0.511 -0.54,1.1 -0.7,1.776 -0.15,0.673 -0.23,1.397 -0.23,2.162 z m 25.78,-8.28 h 3.41 v 16.379 c 0,1.514 -0.32,2.799 -0.97,3.858 -0.64,1.058 -1.54,1.865 -2.69,2.413 -1.15,0.561 -2.48,0.842 -4,0.842 -0.64,0 -1.36,-0.093 -2.15,-0.281 -0.78,-0.188 -1.53,-0.488 -2.27,-0.902 -0.73,-0.405 -1.34,-0.941 -1.82,-1.604 l 1.76,-2.209 c 0.6,0.714 1.26,1.24 1.99,1.572 0.73,0.331 1.49,0.497 2.29,0.497 0.86,0 1.59,-0.159 2.19,-0.482 0.61,-0.312 1.09,-0.774 1.42,-1.386 0.33,-0.613 0.5,-1.359 0.5,-2.242 v -12.642 z m -11.44,8.608 v -0.328 c 0,-1.275 0.15,-2.439 0.46,-3.485 0.32,-1.058 0.76,-1.967 1.34,-2.726 0.58,-0.768 1.29,-1.355 2.12,-1.76 0.83,-0.414 1.77,-0.622 2.82,-0.622 1.09,0 2.02,0.198 2.79,0.593 0.77,0.392 1.42,0.96 1.94,1.697 0.52,0.727 0.93,1.597 1.22,2.614 0.3,1.008 0.52,2.13 0.67,3.364 v 1.042 c -0.14,1.206 -0.37,2.306 -0.69,3.3 -0.32,0.998 -0.75,1.859 -1.28,2.586 -0.52,0.727 -1.18,1.285 -1.96,1.68 -0.76,0.396 -1.67,0.594 -2.72,0.594 -1.03,0 -1.96,-0.214 -2.79,-0.641 -0.82,-0.424 -1.53,-1.021 -2.12,-1.789 -0.58,-0.768 -1.02,-1.671 -1.34,-2.71 -0.31,-1.046 -0.46,-2.184 -0.46,-3.409 z m 3.75,-0.328 v 0.328 c 0,0.769 0.07,1.483 0.22,2.149 0.15,0.664 0.39,1.25 0.7,1.76 0.32,0.498 0.72,0.893 1.21,1.183 0.5,0.281 1.09,0.421 1.76,0.421 0.89,0 1.61,-0.188 2.17,-0.561 0.57,-0.373 1,-0.877 1.3,-1.511 0.31,-0.644 0.53,-1.359 0.66,-2.149 v -2.819 c -0.07,-0.612 -0.19,-1.183 -0.39,-1.712 -0.19,-0.529 -0.44,-0.992 -0.76,-1.384 -0.33,-0.405 -0.73,-0.717 -1.22,-0.934 -0.49,-0.229 -1.06,-0.344 -1.73,-0.344 -0.67,0 -1.26,0.146 -1.76,0.437 -0.49,0.29 -0.9,0.691 -1.23,1.198 -0.31,0.511 -0.54,1.1 -0.7,1.776 -0.15,0.673 -0.23,1.397 -0.23,2.162 z m 22.42,8.877 c -1.25,0 -2.37,-0.204 -3.38,-0.609 -1,-0.415 -1.85,-0.992 -2.55,-1.729 -0.7,-0.736 -1.23,-1.603 -1.61,-2.598 -0.37,-0.998 -0.56,-2.073 -0.56,-3.224 v -0.621 c 0,-1.32 0.2,-2.513 0.58,-3.581 0.38,-1.071 0.92,-1.983 1.6,-2.742 0.69,-0.768 1.5,-1.352 2.43,-1.757 0.94,-0.405 1.95,-0.609 3.04,-0.609 1.2,0 2.25,0.204 3.16,0.609 0.9,0.405 1.65,0.976 2.24,1.712 0.6,0.727 1.05,1.591 1.34,2.599 0.3,1.007 0.45,2.117 0.45,3.332 v 1.604 h -13.02 v -2.695 h 9.32 v -0.296 c -0.03,-0.673 -0.16,-1.307 -0.41,-1.897 -0.24,-0.593 -0.61,-1.071 -1.11,-1.432 -0.49,-0.363 -1.16,-0.545 -1.99,-0.545 -0.62,0 -1.18,0.134 -1.66,0.405 -0.48,0.258 -0.88,0.638 -1.2,1.135 -0.32,0.497 -0.58,1.1 -0.75,1.805 -0.17,0.698 -0.25,1.479 -0.25,2.353 v 0.621 c 0,0.737 0.1,1.422 0.3,2.057 0.2,0.622 0.5,1.167 0.9,1.632 0.39,0.469 0.87,0.836 1.43,1.107 0.56,0.258 1.2,0.389 1.92,0.389 0.9,0 1.7,-0.182 2.41,-0.545 0.7,-0.364 1.32,-0.877 1.84,-1.54 l 1.97,1.913 c -0.36,0.529 -0.83,1.039 -1.41,1.527 -0.59,0.478 -1.3,0.867 -2.14,1.167 -0.83,0.299 -1.79,0.453 -2.89,0.453 z m 13.43,-13.95 v 13.637 h -3.75 v -16.844 h 3.58 z m 5.16,-3.316 -0.03,3.485 c -0.23,-0.041 -0.48,-0.07 -0.75,-0.092 -0.26,-0.019 -0.52,-0.032 -0.78,-0.032 -0.64,0 -1.21,0.096 -1.7,0.281 -0.49,0.178 -0.9,0.436 -1.23,0.777 -0.32,0.335 -0.57,0.737 -0.74,1.215 -0.18,0.479 -0.28,1.014 -0.32,1.604 l -0.85,0.064 c 0,-1.059 0.1,-2.041 0.31,-2.943 0.21,-0.902 0.52,-1.696 0.93,-2.382 0.43,-0.685 0.96,-1.221 1.59,-1.604 0.64,-0.385 1.39,-0.577 2.23,-0.577 0.23,0 0.47,0.023 0.73,0.064 0.27,0.042 0.47,0.086 0.61,0.14 z m 3.66,13.341 -0.02,2.678 c 0,1.058 -0.27,2.149 -0.79,3.268 -0.53,1.122 -1.24,2.047 -2.11,2.774 l -2,-1.17 c 0.29,-0.466 0.55,-0.938 0.79,-1.416 0.24,-0.478 0.43,-0.985 0.58,-1.527 0.14,-0.539 0.21,-1.135 0.21,-1.789 v -2.818 z m -236.81,41.962 v 3.099 h -11.39 v -3.099 z m -10.3,-19.567 v 22.666 h -3.91 v -22.666 z m 27.78,0 v 2.053 l -9.06,20.613 h -3.96 l 9.05,-19.678 h -11.74 v -2.988 z m 26.57,9.463 v 3.099 h -12.03 v -3.099 z m -11.07,-9.463 v 22.666 h -3.9 v -22.666 z m 14.08,0 v 22.666 h -3.89 v -22.666 z m 13.51,0 v 22.666 h -3.87 v -22.666 z m 7.12,0 v 3.112 h -18.05 v -3.112 z m 12.56,0 v 22.666 h -3.88 v -22.666 z m 7.11,0 v 3.112 h -18.04 v -3.112 z m 11.6,14.214 h -5.9 v -3.099 h 5.9 c 1.03,0 1.86,-0.166 2.49,-0.498 0.64,-0.331 1.1,-0.79 1.39,-1.371 0.3,-0.593 0.45,-1.265 0.45,-2.024 0,-0.714 -0.15,-1.384 -0.45,-2.009 -0.29,-0.631 -0.75,-1.141 -1.39,-1.524 -0.63,-0.386 -1.46,-0.577 -2.49,-0.577 h -4.7 v 19.554 h -3.91 v -22.666 h 8.61 c 1.76,0 3.25,0.309 4.47,0.934 1.24,0.612 2.18,1.464 2.82,2.551 0.64,1.081 0.96,2.315 0.96,3.705 0,1.463 -0.32,2.72 -0.96,3.769 -0.64,1.049 -1.58,1.852 -2.82,2.413 -1.22,0.561 -2.71,0.842 -4.47,0.842 z m 19.34,-15.461 h 3.75 v 20.317 l -0.36,3.596 h -3.39 z m 14.74,15.337 v 0.325 c 0,1.246 -0.14,2.391 -0.42,3.44 -0.27,1.039 -0.68,1.942 -1.24,2.71 -0.55,0.769 -1.24,1.365 -2.06,1.789 -0.81,0.418 -1.75,0.625 -2.82,0.625 -1.05,0 -1.96,-0.198 -2.74,-0.593 -0.77,-0.396 -1.43,-0.954 -1.96,-1.68 -0.52,-0.727 -0.94,-1.595 -1.26,-2.602 -0.32,-1.005 -0.55,-2.117 -0.69,-3.332 v -1.043 c 0.14,-1.224 0.37,-2.334 0.69,-3.332 0.32,-1.004 0.74,-1.871 1.26,-2.598 0.53,-0.737 1.18,-1.304 1.95,-1.696 0.78,-0.396 1.68,-0.593 2.72,-0.593 1.08,0 2.03,0.207 2.85,0.621 0.83,0.418 1.52,1.008 2.07,1.776 0.55,0.759 0.96,1.661 1.23,2.71 0.28,1.046 0.42,2.204 0.42,3.473 z m -3.75,0.325 v -0.325 c 0,-0.759 -0.06,-1.47 -0.19,-2.134 -0.12,-0.675 -0.33,-1.268 -0.62,-1.775 -0.28,-0.511 -0.66,-0.909 -1.15,-1.199 -0.48,-0.3 -1.08,-0.453 -1.79,-0.453 -0.67,0 -1.24,0.115 -1.72,0.344 -0.47,0.227 -0.87,0.539 -1.19,0.935 -0.32,0.392 -0.58,0.851 -0.77,1.367 -0.17,0.52 -0.29,1.081 -0.35,1.684 v 2.818 c 0.09,0.778 0.29,1.493 0.59,2.146 0.31,0.644 0.75,1.164 1.31,1.559 0.55,0.383 1.28,0.574 2.16,0.574 0.69,0 1.28,-0.14 1.76,-0.417 0.48,-0.281 0.86,-0.67 1.13,-1.171 0.3,-0.507 0.5,-1.1 0.63,-1.772 0.13,-0.676 0.2,-1.403 0.2,-2.181 z m 16.43,4.872 v -8.032 c 0,-0.603 -0.12,-1.122 -0.33,-1.556 -0.22,-0.437 -0.55,-0.775 -1,-1.014 -0.43,-0.239 -0.99,-0.357 -1.65,-0.357 -0.61,0 -1.14,0.102 -1.59,0.313 -0.44,0.207 -0.79,0.487 -1.04,0.838 -0.25,0.354 -0.37,0.753 -0.37,1.199 h -3.74 c 0,-0.663 0.16,-1.307 0.48,-1.929 0.32,-0.625 0.79,-1.18 1.41,-1.668 0.61,-0.487 1.34,-0.87 2.19,-1.151 0.85,-0.28 1.8,-0.42 2.87,-0.42 1.26,0 2.38,0.213 3.36,0.637 0.98,0.427 1.76,1.072 2.32,1.932 0.57,0.852 0.85,1.92 0.85,3.208 v 7.486 c 0,0.769 0.06,1.461 0.16,2.073 0.11,0.602 0.27,1.125 0.48,1.572 v 0.248 h -3.85 c -0.17,-0.405 -0.31,-0.918 -0.41,-1.54 -0.1,-0.634 -0.14,-1.246 -0.14,-1.839 z m 0.54,-6.865 0.03,2.321 h -2.69 c -0.7,0 -1.31,0.067 -1.84,0.201 -0.53,0.124 -0.97,0.313 -1.32,0.561 -0.36,0.249 -0.62,0.549 -0.8,0.902 -0.17,0.354 -0.26,0.753 -0.26,1.199 0,0.447 0.1,0.858 0.31,1.231 0.21,0.364 0.51,0.647 0.9,0.855 0.41,0.207 0.89,0.312 1.47,0.312 0.76,0 1.43,-0.156 2,-0.465 0.58,-0.322 1.04,-0.711 1.38,-1.171 0.33,-0.465 0.5,-0.905 0.52,-1.323 l 1.22,1.668 c -0.13,0.424 -0.34,0.88 -0.64,1.368 -0.3,0.487 -0.7,0.956 -1.18,1.402 -0.48,0.437 -1.06,0.794 -1.73,1.075 -0.67,0.281 -1.43,0.421 -2.3,0.421 -1.1,0 -2.09,-0.22 -2.95,-0.654 -0.86,-0.446 -1.53,-1.046 -2.02,-1.792 -0.49,-0.759 -0.73,-1.613 -0.73,-2.57 0,-0.892 0.16,-1.68 0.5,-2.365 0.34,-0.695 0.84,-1.276 1.49,-1.744 0.66,-0.466 1.47,-0.82 2.43,-1.059 0.95,-0.249 2.04,-0.373 3.27,-0.373 z m 11.16,-13.669 v 23.913 h -3.77 v -23.913 z m 13.61,20.534 v -8.032 c 0,-0.603 -0.11,-1.122 -0.33,-1.556 -0.22,-0.437 -0.55,-0.775 -0.99,-1.014 -0.44,-0.239 -0.99,-0.357 -1.66,-0.357 -0.61,0 -1.14,0.102 -1.58,0.313 -0.45,0.207 -0.8,0.487 -1.05,0.838 -0.25,0.354 -0.37,0.753 -0.37,1.199 h -3.74 c 0,-0.663 0.17,-1.307 0.49,-1.929 0.32,-0.625 0.79,-1.18 1.4,-1.668 0.61,-0.487 1.34,-0.87 2.19,-1.151 0.85,-0.28 1.81,-0.42 2.87,-0.42 1.26,0 2.39,0.213 3.36,0.637 0.99,0.427 1.76,1.072 2.32,1.932 0.57,0.852 0.86,1.92 0.86,3.208 v 7.486 c 0,0.769 0.05,1.461 0.15,2.073 0.12,0.602 0.28,1.125 0.48,1.572 v 0.248 h -3.84 c -0.18,-0.405 -0.32,-0.918 -0.42,-1.54 -0.09,-0.634 -0.14,-1.246 -0.14,-1.839 z m 0.54,-6.865 0.04,2.321 h -2.7 c -0.69,0 -1.31,0.067 -1.84,0.201 -0.52,0.124 -0.96,0.313 -1.32,0.561 -0.35,0.249 -0.62,0.549 -0.79,0.902 -0.18,0.354 -0.27,0.753 -0.27,1.199 0,0.447 0.11,0.858 0.31,1.231 0.21,0.364 0.51,0.647 0.91,0.855 0.4,0.207 0.89,0.312 1.46,0.312 0.77,0 1.44,-0.156 2.01,-0.465 0.58,-0.322 1.04,-0.711 1.37,-1.171 0.33,-0.465 0.51,-0.905 0.53,-1.323 l 1.21,1.668 c -0.12,0.424 -0.34,0.88 -0.64,1.368 -0.3,0.487 -0.69,0.956 -1.18,1.402 -0.48,0.437 -1.05,0.794 -1.73,1.075 -0.66,0.281 -1.43,0.421 -2.3,0.421 -1.1,0 -2.08,-0.22 -2.94,-0.654 -0.87,-0.446 -1.54,-1.046 -2.03,-1.792 -0.48,-0.759 -0.73,-1.613 -0.73,-2.57 0,-0.892 0.17,-1.68 0.5,-2.365 0.34,-0.695 0.84,-1.276 1.49,-1.744 0.67,-0.466 1.48,-0.82 2.43,-1.059 0.96,-0.249 2.05,-0.373 3.27,-0.373 z m 10.87,-3.003 v 13.247 h -3.75 v -16.844 h 3.53 z m -0.67,4.202 -1.21,-0.016 c 0.01,-1.193 0.17,-2.289 0.5,-3.284 0.33,-0.998 0.78,-1.853 1.36,-2.57 0.6,-0.714 1.3,-1.266 2.12,-1.648 0.82,-0.396 1.74,-0.593 2.74,-0.593 0.81,0 1.54,0.114 2.2,0.344 0.66,0.217 1.23,0.574 1.69,1.071 0.48,0.501 0.84,1.148 1.09,1.948 0.25,0.788 0.38,1.76 0.38,2.911 v 10.882 h -3.77 V 323.25 c 0,-0.809 -0.12,-1.447 -0.36,-1.916 -0.23,-0.475 -0.56,-0.813 -1.01,-1.011 -0.44,-0.207 -0.98,-0.312 -1.64,-0.312 -0.64,0 -1.21,0.137 -1.72,0.405 -0.51,0.271 -0.94,0.641 -1.3,1.106 -0.34,0.469 -0.6,1.008 -0.79,1.62 -0.18,0.612 -0.28,1.266 -0.28,1.961 z m 21.58,6.367 c 0.61,0 1.16,-0.118 1.65,-0.357 0.5,-0.249 0.9,-0.593 1.2,-1.027 0.31,-0.436 0.48,-0.94 0.51,-1.511 h 3.54 c -0.03,1.091 -0.35,2.082 -0.97,2.975 -0.62,0.893 -1.45,1.604 -2.47,2.133 -1.03,0.516 -2.17,0.778 -3.42,0.778 -1.28,0 -2.4,-0.22 -3.36,-0.654 -0.95,-0.446 -1.75,-1.058 -2.38,-1.839 -0.63,-0.778 -1.11,-1.674 -1.43,-2.692 -0.31,-1.017 -0.47,-2.107 -0.47,-3.271 v -0.545 c 0,-1.161 0.16,-2.251 0.47,-3.268 0.32,-1.027 0.8,-1.929 1.43,-2.71 0.63,-0.778 1.43,-1.384 2.38,-1.821 0.96,-0.446 2.07,-0.669 3.35,-0.669 1.35,0 2.53,0.271 3.55,0.809 1.02,0.53 1.82,1.273 2.4,2.226 0.59,0.947 0.89,2.047 0.92,3.3 h -3.54 c -0.03,-0.622 -0.18,-1.183 -0.47,-1.68 -0.27,-0.507 -0.65,-0.912 -1.15,-1.215 -0.48,-0.3 -1.07,-0.45 -1.76,-0.45 -0.76,0 -1.38,0.153 -1.88,0.466 -0.5,0.303 -0.89,0.717 -1.17,1.246 -0.28,0.52 -0.48,1.104 -0.61,1.76 -0.11,0.641 -0.17,1.311 -0.17,2.006 v 0.545 c 0,0.695 0.06,1.371 0.17,2.025 0.12,0.653 0.32,1.24 0.6,1.76 0.29,0.507 0.68,0.918 1.18,1.231 0.5,0.299 1.13,0.449 1.9,0.449 z m 17.2,2.991 c -1.24,0 -2.37,-0.204 -3.38,-0.609 -0.99,-0.415 -1.84,-0.992 -2.55,-1.728 -0.69,-0.737 -1.23,-1.604 -1.6,-2.599 -0.38,-0.998 -0.56,-2.072 -0.56,-3.223 v -0.622 c 0,-1.32 0.19,-2.512 0.57,-3.581 0.39,-1.071 0.92,-1.983 1.61,-2.742 0.68,-0.768 1.49,-1.352 2.43,-1.756 0.93,-0.405 1.94,-0.609 3.03,-0.609 1.2,0 2.26,0.204 3.16,0.609 0.9,0.404 1.65,0.975 2.24,1.712 0.61,0.727 1.05,1.591 1.34,2.598 0.3,1.008 0.45,2.117 0.45,3.332 v 1.604 h -13.01 v -2.694 h 9.31 v -0.297 c -0.02,-0.673 -0.16,-1.307 -0.41,-1.897 -0.23,-0.593 -0.6,-1.071 -1.1,-1.432 -0.5,-0.363 -1.17,-0.545 -1.99,-0.545 -0.63,0 -1.18,0.134 -1.67,0.405 -0.48,0.258 -0.88,0.638 -1.2,1.135 -0.32,0.498 -0.57,1.1 -0.75,1.805 -0.16,0.698 -0.25,1.479 -0.25,2.353 v 0.622 c 0,0.736 0.1,1.422 0.3,2.056 0.21,0.622 0.51,1.167 0.9,1.633 0.4,0.468 0.87,0.835 1.43,1.106 0.57,0.258 1.2,0.389 1.92,0.389 0.9,0 1.71,-0.182 2.41,-0.545 0.71,-0.364 1.32,-0.877 1.84,-1.54 l 1.98,1.913 c -0.37,0.529 -0.84,1.039 -1.42,1.527 -0.58,0.478 -1.29,0.867 -2.13,1.167 -0.83,0.3 -1.8,0.453 -2.9,0.453 z m 13.44,-13.949 v 13.636 h -3.76 v -16.844 h 3.58 z m 5.15,-3.316 -0.03,3.485 c -0.23,-0.042 -0.48,-0.071 -0.75,-0.093 -0.26,-0.019 -0.52,-0.032 -0.78,-0.032 -0.64,0 -1.21,0.096 -1.69,0.281 -0.49,0.178 -0.9,0.437 -1.23,0.778 -0.33,0.335 -0.57,0.736 -0.75,1.215 -0.18,0.478 -0.28,1.013 -0.31,1.603 l -0.86,0.064 c 0,-1.059 0.11,-2.041 0.31,-2.943 0.21,-0.902 0.52,-1.696 0.94,-2.382 0.42,-0.685 0.95,-1.221 1.58,-1.603 0.65,-0.386 1.39,-0.577 2.23,-0.577 0.23,0 0.48,0.022 0.73,0.063 0.27,0.042 0.48,0.086 0.61,0.141 z"
     fill="#ececec"
     id="path1570" />
  <path
     d="m 660.73996,375.898 v 6.925 c -0.26,0.338 -0.66,0.714 -1.21,1.119 -0.54,0.399 -1.26,0.743 -2.15,1.033 -0.9,0.294 -2.02,0.437 -3.35,0.437 -1.14,0 -2.19,-0.191 -3.13,-0.574 -0.95,-0.389 -1.77,-0.956 -2.45,-1.706 -0.69,-0.746 -1.21,-1.654 -1.59,-2.726 -0.37,-1.081 -0.56,-2.308 -0.56,-3.686 v -1.259 c 0,-1.371 0.17,-2.589 0.51,-3.66 0.35,-1.081 0.85,-1.993 1.5,-2.742 0.65,-0.746 1.43,-1.311 2.34,-1.693 0.92,-0.389 1.96,-0.587 3.13,-0.587 1.48,0 2.71,0.249 3.68,0.749 0.98,0.488 1.74,1.171 2.27,2.041 0.53,0.874 0.87,1.868 1.01,2.991 h -3.06 c -0.11,-0.632 -0.3,-1.196 -0.59,-1.693 -0.28,-0.501 -0.69,-0.89 -1.22,-1.174 -0.52,-0.29 -1.21,-0.433 -2.05,-0.433 -0.72,0 -1.35,0.137 -1.9,0.411 -0.55,0.274 -1,0.676 -1.37,1.208 -0.36,0.53 -0.63,1.177 -0.81,1.942 -0.18,0.762 -0.27,1.636 -0.27,2.615 v 1.284 c 0,0.995 0.1,1.878 0.31,2.653 0.21,0.772 0.52,1.422 0.92,1.955 0.41,0.532 0.9,0.934 1.48,1.208 0.58,0.265 1.24,0.399 1.97,0.399 0.71,0 1.3,-0.058 1.76,-0.176 0.45,-0.124 0.81,-0.271 1.08,-0.436 0.27,-0.173 0.48,-0.338 0.63,-0.498 v -3.6 h -3.77 v -2.327 z m 2.59,2.678 v -0.287 c 0,-0.972 0.14,-1.871 0.42,-2.704 0.28,-0.838 0.69,-1.565 1.22,-2.18 0.54,-0.622 1.2,-1.104 1.97,-1.445 0.78,-0.347 1.66,-0.523 2.64,-0.523 0.99,0 1.87,0.176 2.64,0.523 0.78,0.341 1.44,0.823 1.98,1.445 0.54,0.615 0.95,1.342 1.24,2.18 0.28,0.833 0.42,1.732 0.42,2.704 v 0.287 c 0,0.969 -0.14,1.872 -0.42,2.701 -0.29,0.832 -0.7,1.559 -1.24,2.181 -0.54,0.615 -1.19,1.096 -1.97,1.444 -0.77,0.341 -1.64,0.51 -2.62,0.51 -0.99,0 -1.88,-0.169 -2.66,-0.51 -0.77,-0.348 -1.42,-0.829 -1.97,-1.444 -0.54,-0.622 -0.95,-1.349 -1.23,-2.181 -0.28,-0.829 -0.42,-1.732 -0.42,-2.701 z m 3,-0.287 v 0.287 c 0,0.606 0.06,1.177 0.19,1.719 0.12,0.539 0.32,1.01 0.58,1.419 0.27,0.408 0.61,0.727 1.02,0.959 0.42,0.233 0.91,0.348 1.49,0.348 0.55,0 1.03,-0.115 1.44,-0.348 0.42,-0.232 0.76,-0.551 1.02,-0.959 0.27,-0.409 0.46,-0.88 0.59,-1.419 0.13,-0.542 0.2,-1.113 0.2,-1.719 v -0.287 c 0,-0.599 -0.07,-1.164 -0.2,-1.696 -0.13,-0.539 -0.33,-1.017 -0.6,-1.432 -0.27,-0.414 -0.61,-0.736 -1.02,-0.969 -0.41,-0.242 -0.89,-0.363 -1.46,-0.363 -0.56,0 -1.05,0.121 -1.47,0.363 -0.41,0.233 -0.74,0.555 -1.01,0.969 -0.26,0.415 -0.46,0.893 -0.58,1.432 -0.13,0.532 -0.19,1.097 -0.19,1.696 z m 26.28,-11.261 -7.06,19.691 h -2.36 l 7.08,-19.691 z m 23.12,0 v 18.135 h -3.13 l -8.13,-12.989 v 12.989 h -3.13 v -18.135 h 3.13 l 8.15,13.018 v -13.018 z m 17.64,8.87 v 6.925 c -0.25,0.338 -0.66,0.714 -1.2,1.119 -0.54,0.399 -1.26,0.743 -2.16,1.033 -0.89,0.294 -2.01,0.437 -3.35,0.437 -1.14,0 -2.18,-0.191 -3.12,-0.574 -0.95,-0.389 -1.77,-0.956 -2.46,-1.706 -0.68,-0.746 -1.21,-1.654 -1.58,-2.726 -0.37,-1.081 -0.56,-2.308 -0.56,-3.686 v -1.259 c 0,-1.371 0.17,-2.589 0.51,-3.66 0.35,-1.081 0.85,-1.993 1.49,-2.742 0.65,-0.746 1.43,-1.311 2.35,-1.693 0.92,-0.389 1.96,-0.587 3.12,-0.587 1.49,0 2.72,0.249 3.69,0.749 0.98,0.488 1.73,1.171 2.26,2.041 0.54,0.874 0.87,1.868 1.01,2.991 h -3.06 c -0.1,-0.632 -0.3,-1.196 -0.59,-1.693 -0.28,-0.501 -0.68,-0.89 -1.22,-1.174 -0.52,-0.29 -1.2,-0.433 -2.04,-0.433 -0.72,0 -1.36,0.137 -1.9,0.411 -0.55,0.274 -1.01,0.676 -1.38,1.208 -0.35,0.53 -0.62,1.177 -0.81,1.942 -0.18,0.762 -0.27,1.636 -0.27,2.615 v 1.284 c 0,0.995 0.11,1.878 0.31,2.653 0.22,0.772 0.53,1.422 0.92,1.955 0.41,0.532 0.91,0.934 1.49,1.208 0.58,0.265 1.23,0.399 1.96,0.399 0.72,0 1.31,-0.058 1.76,-0.176 0.46,-0.124 0.82,-0.271 1.09,-0.436 0.27,-0.173 0.48,-0.338 0.63,-0.498 v -3.6 h -3.77 v -2.327 z m 6.8,-8.87 v 18.135 h -3.12 v -18.135 z m 18.28,0 v 18.135 h -3.13 l -8.13,-12.989 v 12.989 h -3.13 v -18.135 h 3.13 l 8.15,13.018 v -13.018 z m 6.32,0 3.85,6.616 3.85,-6.616 h 3.6 l -5.48,8.982 5.61,9.153 h -3.63 l -3.95,-6.737 -3.95,6.737 h -3.65 l 5.63,-9.153 -5.49,-8.982 z m 16.26,15.247 -0.02,2.142 c 0,0.845 -0.21,1.719 -0.63,2.615 -0.43,0.896 -0.99,1.635 -1.68,2.216 l -1.61,-0.934 c 0.23,-0.373 0.44,-0.75 0.64,-1.132 0.19,-0.383 0.34,-0.791 0.45,-1.221 0.12,-0.431 0.18,-0.909 0.18,-1.432 v -2.254 z m -93.71,26.913 c 0,-0.373 -0.06,-0.705 -0.18,-0.995 -0.11,-0.29 -0.3,-0.558 -0.58,-0.797 -0.28,-0.242 -0.68,-0.475 -1.2,-0.698 -0.51,-0.233 -1.15,-0.469 -1.94,-0.711 -0.87,-0.265 -1.66,-0.561 -2.39,-0.883 -0.73,-0.332 -1.36,-0.714 -1.9,-1.145 -0.54,-0.44 -0.96,-0.944 -1.26,-1.508 -0.29,-0.574 -0.44,-1.234 -0.44,-1.98 0,-0.74 0.15,-1.413 0.46,-2.018 0.31,-0.606 0.76,-1.129 1.33,-1.569 0.58,-0.45 1.27,-0.794 2.06,-1.033 0.78,-0.252 1.66,-0.376 2.61,-0.376 1.35,0 2.5,0.248 3.48,0.749 0.98,0.497 1.73,1.167 2.25,2.005 0.53,0.839 0.8,1.764 0.8,2.778 h -3.1 c 0,-0.6 -0.13,-1.126 -0.39,-1.582 -0.25,-0.465 -0.63,-0.832 -1.15,-1.097 -0.5,-0.264 -1.15,-0.398 -1.93,-0.398 -0.73,0 -1.35,0.111 -1.84,0.335 -0.49,0.226 -0.85,0.529 -1.09,0.911 -0.25,0.38 -0.37,0.813 -0.37,1.295 0,0.341 0.08,0.65 0.24,0.934 0.16,0.274 0.4,0.529 0.72,0.772 0.33,0.233 0.73,0.453 1.22,0.66 0.49,0.207 1.07,0.408 1.73,0.596 1.01,0.3 1.89,0.631 2.63,0.998 0.75,0.357 1.37,0.765 1.87,1.221 0.5,0.456 0.87,0.976 1.12,1.556 0.25,0.574 0.38,1.224 0.38,1.954 0,0.766 -0.16,1.455 -0.47,2.07 -0.3,0.606 -0.74,1.125 -1.32,1.556 -0.56,0.424 -1.24,0.752 -2.04,0.985 -0.79,0.223 -1.67,0.335 -2.64,0.335 -0.87,0 -1.73,-0.115 -2.58,-0.348 -0.84,-0.233 -1.6,-0.586 -2.29,-1.058 -0.69,-0.482 -1.24,-1.081 -1.64,-1.795 -0.41,-0.721 -0.61,-1.566 -0.61,-2.529 h 3.12 c 0,0.59 0.1,1.094 0.3,1.508 0.21,0.415 0.5,0.756 0.86,1.021 0.37,0.258 0.79,0.449 1.27,0.574 0.49,0.124 1.01,0.184 1.57,0.184 0.73,0 1.34,-0.101 1.83,-0.309 0.5,-0.207 0.87,-0.497 1.12,-0.874 0.25,-0.373 0.38,-0.803 0.38,-1.294 z m 15.5,2.254 4.77,3.788 -2.03,1.779 -4.68,-3.749 z m 4.81,-7.148 v 0.995 c 0,1.371 -0.18,2.601 -0.53,3.689 -0.36,1.087 -0.87,2.012 -1.54,2.777 -0.66,0.762 -1.45,1.348 -2.38,1.757 -0.92,0.398 -1.94,0.596 -3.06,0.596 -1.11,0 -2.13,-0.198 -3.05,-0.596 -0.91,-0.409 -1.71,-0.995 -2.38,-1.757 -0.67,-0.765 -1.2,-1.69 -1.57,-2.777 -0.37,-1.088 -0.55,-2.318 -0.55,-3.689 v -0.995 c 0,-1.371 0.18,-2.596 0.55,-3.673 0.36,-1.087 0.88,-2.015 1.54,-2.777 0.68,-0.775 1.47,-1.359 2.38,-1.757 0.92,-0.408 1.94,-0.612 3.05,-0.612 1.13,0 2.15,0.204 3.07,0.612 0.93,0.398 1.73,0.982 2.39,1.757 0.66,0.762 1.18,1.69 1.53,2.777 0.37,1.077 0.55,2.302 0.55,3.673 z m -3.14,0.995 v -1.021 c 0,-1.014 -0.1,-1.903 -0.3,-2.678 -0.19,-0.778 -0.47,-1.432 -0.86,-1.954 -0.37,-0.533 -0.83,-0.931 -1.38,-1.196 -0.54,-0.274 -1.16,-0.411 -1.86,-0.411 -0.67,0 -1.29,0.137 -1.83,0.411 -0.53,0.265 -1,0.663 -1.38,1.196 -0.38,0.522 -0.67,1.176 -0.87,1.954 -0.2,0.775 -0.3,1.664 -0.3,2.678 v 1.021 c 0,1.014 0.1,1.91 0.3,2.691 0.2,0.781 0.49,1.441 0.87,1.98 0.39,0.532 0.86,0.934 1.4,1.208 0.55,0.268 1.16,0.399 1.84,0.399 0.7,0 1.32,-0.131 1.86,-0.399 0.53,-0.274 0.99,-0.676 1.37,-1.208 0.37,-0.539 0.65,-1.199 0.84,-1.98 0.2,-0.781 0.3,-1.677 0.3,-2.691 z m 17.67,6.093 v 2.477 h -9.1 v -2.477 z m -8.23,-15.659 v 18.136 h -3.12 v -18.136 z m 13.57,4.659 v 13.477 h -3.02 v -13.477 z m -3.22,-3.536 c 0,-0.456 0.15,-0.836 0.45,-1.132 0.31,-0.309 0.73,-0.462 1.27,-0.462 0.53,0 0.95,0.153 1.26,0.462 0.31,0.296 0.46,0.676 0.46,1.132 0,0.449 -0.15,0.822 -0.46,1.122 -0.31,0.297 -0.73,0.446 -1.26,0.446 -0.54,0 -0.96,-0.149 -1.27,-0.446 -0.3,-0.3 -0.45,-0.673 -0.45,-1.122 z m 12.68,3.536 v 2.193 h -7.6 v -2.193 z m -5.41,-3.3 h 3.01 v 13.053 c 0,0.414 0.06,0.733 0.17,0.96 0.13,0.217 0.3,0.36 0.51,0.437 0.22,0.073 0.47,0.111 0.76,0.111 0.21,0 0.41,-0.013 0.6,-0.038 0.19,-0.026 0.34,-0.051 0.46,-0.073 l 0.01,2.289 c -0.25,0.076 -0.54,0.143 -0.87,0.201 -0.32,0.057 -0.7,0.086 -1.12,0.086 -0.69,0 -1.3,-0.121 -1.83,-0.36 -0.53,-0.249 -0.95,-0.654 -1.25,-1.209 -0.3,-0.558 -0.45,-1.294 -0.45,-2.216 z m 13.67,17.026 c -1,0 -1.9,-0.163 -2.7,-0.485 -0.8,-0.331 -1.48,-0.794 -2.05,-1.384 -0.55,-0.589 -0.98,-1.281 -1.28,-2.078 -0.3,-0.797 -0.45,-1.658 -0.45,-2.58 v -0.497 c 0,-1.056 0.15,-2.009 0.46,-2.864 0.31,-0.857 0.74,-1.587 1.29,-2.193 0.54,-0.615 1.19,-1.084 1.94,-1.406 0.75,-0.325 1.56,-0.488 2.43,-0.488 0.96,0 1.8,0.163 2.52,0.488 0.73,0.322 1.32,0.778 1.8,1.368 0.48,0.583 0.84,1.275 1.07,2.082 0.24,0.803 0.36,1.693 0.36,2.665 v 1.282 h -10.41 v -2.155 h 7.45 v -0.236 c -0.02,-0.539 -0.13,-1.046 -0.33,-1.521 -0.19,-0.472 -0.48,-0.855 -0.88,-1.145 -0.4,-0.29 -0.93,-0.437 -1.6,-0.437 -0.49,0 -0.94,0.109 -1.33,0.325 -0.38,0.208 -0.7,0.511 -0.96,0.909 -0.25,0.399 -0.45,0.88 -0.6,1.444 -0.13,0.558 -0.19,1.183 -0.19,1.882 v 0.497 c 0,0.59 0.07,1.138 0.23,1.645 0.17,0.498 0.41,0.934 0.72,1.307 0.32,0.374 0.7,0.67 1.15,0.884 0.45,0.207 0.96,0.312 1.53,0.312 0.73,0 1.37,-0.146 1.93,-0.437 0.57,-0.29 1.06,-0.701 1.47,-1.23 l 1.59,1.53 c -0.29,0.424 -0.67,0.829 -1.14,1.221 -0.47,0.383 -1.03,0.692 -1.71,0.935 -0.66,0.239 -1.43,0.36 -2.31,0.36 z"
     fill="#9d9d9d"
     id="path1572" />
  <path
     d="m 568.59996,197.047 c 0,5.284 -4.28,9.566 -9.57,9.566 -5.28,0 -9.56,-4.282 -9.56,-9.566 0,-5.283 4.28,-9.565 9.56,-9.565 5.29,0 9.57,4.282 9.57,9.565 z"
     fill="#45b241"
     id="path1574" />
  <path
     d="M 530.33996,162.86156 V 435.68854"
     stroke="#dc6926"
     stroke-width="2.88252"
     stroke-linecap="round"
     stroke-linejoin="round"
     id="path1576" />
  <path
     d="m 456.99996,292.7 h 73.34"
     stroke="#dc6926"
     stroke-width="2"
     id="path1578" />
  <path
     d="m 632.94996,3.24 c -0.74,0 -1.39,0.143 -1.97,0.436 -0.56,0.281 -1.04,0.692 -1.43,1.231 -0.38,0.542 -0.67,1.193 -0.87,1.958 -0.2,0.762 -0.3,1.623 -0.3,2.576 0,1.288 0.16,2.388 0.47,3.3 0.33,0.906 0.83,1.601 1.5,2.082 0.67,0.472 1.54,0.708 2.6,0.708 0.74,0 1.48,-0.083 2.22,-0.249 0.75,-0.165 1.55,-0.401 2.43,-0.708 v 3.236999 c -0.81,0.331 -1.6,0.57 -2.38,0.711 -0.78,0.15 -1.66,0.223 -2.63,0.223 -1.88,0 -3.42,-0.386 -4.63,-1.157 -1.21,-0.782 -2.1,-1.868999 -2.68,-3.264999 -0.58,-1.403 -0.87,-3.039 -0.87,-4.907 0,-1.378 0.18,-2.64 0.56,-3.785 0.37,-1.148 0.92,-2.139 1.64,-2.978 0.73,-0.839 1.62,-1.486 2.68,-1.942 1.06,-0.456 2.28,-0.685 3.66,-0.685 0.91,0 1.81,0.115 2.72,0.347 0.91,0.227 1.78,0.536 2.61,0.935 l -1.24,3.14 c -0.68,-0.325 -1.37,-0.606 -2.06,-0.848 -0.69,-0.239 -1.36,-0.36 -2.03,-0.36 z m 25.06,6.128 c 0,1.403 -0.17,2.681 -0.52,3.835 -0.35,1.145 -0.88,2.133 -1.6,2.965999 -0.7,0.829 -1.6,1.466 -2.69,1.916 -1.08,0.44 -2.37,0.66 -3.86,0.66 -1.48,0 -2.77,-0.22 -3.86,-0.66 -1.09,-0.45 -1.99,-1.087 -2.7,-1.916 -0.71,-0.832999 -1.23,-1.823999 -1.58,-2.977999 -0.35,-1.154 -0.53,-2.436 -0.53,-3.849 0,-1.884 0.31,-3.526 0.93,-4.919 0.62,-1.403 1.57,-2.491 2.86,-3.265 1.29,-0.772 2.92,-1.158 4.91,-1.158 1.97,0 3.6,0.386 4.87,1.158 1.27,0.774 2.22,1.862 2.84,3.265 0.62,1.402 0.93,3.051 0.93,4.945 z m -13.29,0 c 0,1.269 0.16,2.366 0.47,3.287 0.33,0.912 0.83,1.62 1.51,2.117 0.68,0.491 1.56,0.734 2.64,0.734 1.1,0 1.99,-0.243 2.67,-0.734 0.68,-0.497 1.17,-1.205 1.48,-2.117 0.32,-0.921 0.47,-2.018 0.47,-3.287 0,-1.91 -0.36,-3.415 -1.07,-4.509 -0.71,-1.096 -1.89,-1.645 -3.52,-1.645 -1.09,0 -1.98,0.249 -2.67,0.746 -0.68,0.491 -1.18,1.196 -1.51,2.117 -0.31,0.915 -0.47,2.012 -0.47,3.291 z m 22.37,-9.081 c 1.65,0 3.01,0.201 4.09,0.6 1.07,0.398 1.88,0.998 2.4,1.804 0.52,0.807 0.78,1.824 0.78,3.052 0,0.829 -0.16,1.556 -0.47,2.18 -0.32,0.622 -0.73,1.148 -1.24,1.582 -0.52,0.43 -1.08,0.784 -1.68,1.058 l 5.36,7.932999 h -4.28 l -4.35,-6.985999 h -2.05 v 6.985999 h -3.86 V 0.287 Z m -0.27,3.163 h -1.17 v 4.92 h 1.24 c 1.28,0 2.19,-0.211 2.74,-0.635 0.56,-0.43 0.83,-1.061 0.83,-1.894 0,-0.864 -0.29,-1.476 -0.89,-1.842 -0.59,-0.364 -1.51,-0.549 -2.75,-0.549 z m 22.29,15.045999 h -10.49 V 0.287 h 10.49 V 3.45 h -6.63 v 3.998 h 6.17 v 3.163 h -6.17 v 4.697 h 6.63 z m 21.18,-5.056999 c 0,1.081 -0.26,2.019 -0.78,2.815999 -0.52,0.797 -1.29,1.412 -2.29,1.843 -1,0.43 -2.21,0.647 -3.64,0.647 -0.63,0 -1.25,-0.042 -1.85,-0.124 -0.6,-0.083 -1.18,-0.205 -1.73,-0.361 -0.55,-0.166 -1.08,-0.37 -1.57,-0.612 V 14.061 c 0.86,0.383 1.76,0.727 2.68,1.036 0.94,0.306 1.86,0.46 2.77,0.46 0.63,0 1.14,-0.083 1.52,-0.249 0.39,-0.166 0.67,-0.396 0.85,-0.686 0.17,-0.29 0.26,-0.621 0.26,-0.995 0,-0.459 -0.15,-0.848 -0.46,-1.173 -0.31,-0.322 -0.73,-0.625 -1.27,-0.908 -0.53,-0.281 -1.14,-0.584 -1.81,-0.909 -0.42,-0.198 -0.88,-0.44 -1.38,-0.721 -0.5,-0.293 -0.97,-0.644 -1.42,-1.058 -0.45,-0.418 -0.82,-0.919 -1.11,-1.508 -0.28,-0.6 -0.42,-1.314 -0.42,-2.143 0,-1.087 0.25,-2.018 0.75,-2.79 0.49,-0.772 1.2,-1.361 2.13,-1.769 0.92,-0.415 2.02,-0.622 3.28,-0.622 0.95,0 1.85,0.111 2.7,0.335 0.87,0.216 1.77,0.532 2.71,0.947 l -1.25,3.003 c -0.84,-0.341 -1.59,-0.603 -2.25,-0.784 -0.67,-0.192 -1.34,-0.287 -2.03,-0.287 -0.48,0 -0.89,0.079 -1.23,0.236 -0.35,0.149 -0.6,0.366 -0.78,0.647 -0.17,0.274 -0.26,0.593 -0.26,0.96 0,0.43 0.13,0.797 0.38,1.096 0.25,0.291 0.63,0.571 1.14,0.845 0.52,0.275 1.15,0.597 1.92,0.96 0.93,0.44 1.72,0.902 2.38,1.384 0.66,0.472 1.17,1.033 1.53,1.68 0.36,0.641 0.53,1.438 0.53,2.391 z m 13.79,5.056999 h -10.48 V 0.287 h 10.48 V 3.45 h -6.62 v 3.998 h 6.16 v 3.163 h -6.16 v 4.697 h 6.62 z m 9.12,-18.208999 c 1.65,0 3.01,0.201 4.08,0.6 1.09,0.398 1.89,0.998 2.41,1.804 0.52,0.807 0.78,1.824 0.78,3.052 0,0.829 -0.15,1.556 -0.47,2.18 -0.32,0.622 -0.73,1.148 -1.25,1.582 -0.51,0.43 -1.07,0.784 -1.66,1.058 l 5.35,7.932999 h -4.28 l -4.35,-6.985999 h -2.05 v 6.985999 h -3.87 V 0.287 Z m -0.27,3.163 h -1.17 v 4.92 h 1.24 c 1.28,0 2.19,-0.211 2.74,-0.635 0.56,-0.43 0.84,-1.061 0.84,-1.894 0,-0.864 -0.3,-1.476 -0.9,-1.842 -0.59,-0.364 -1.51,-0.549 -2.75,-0.549 z m 26.09,-3.163 -6.19,18.208999 h -4.21 L 742.43996,0.287 h 3.9 l 3.42,10.838 c 0.06,0.181 0.16,0.526 0.29,1.033 0.13,0.497 0.27,1.03 0.4,1.594 0.14,0.555 0.24,1.017 0.29,1.38 0.05,-0.363 0.13,-0.825 0.26,-1.38 0.13,-0.558 0.26,-1.084 0.38,-1.582 0.14,-0.507 0.23,-0.857 0.29,-1.045 l 3.45,-10.838 z m 2.3,18.208999 V 0.287 h 3.86 V 18.495999 Z M 777.49996,3.24 c -0.74,0 -1.39,0.143 -1.97,0.436 -0.56,0.281 -1.04,0.692 -1.43,1.231 -0.38,0.542 -0.67,1.193 -0.87,1.958 -0.2,0.762 -0.3,1.623 -0.3,2.576 0,1.288 0.16,2.388 0.47,3.3 0.33,0.906 0.83,1.601 1.5,2.082 0.67,0.472 1.54,0.708 2.6,0.708 0.74,0 1.48,-0.083 2.22,-0.249 0.74,-0.165 1.55,-0.401 2.43,-0.708 v 3.236999 c -0.81,0.331 -1.6,0.57 -2.38,0.711 -0.78,0.15 -1.66,0.223 -2.63,0.223 -1.88,0 -3.42,-0.386 -4.63,-1.157 -1.21,-0.782 -2.1,-1.868999 -2.68,-3.264999 -0.58,-1.403 -0.87,-3.039 -0.87,-4.907 0,-1.378 0.18,-2.64 0.56,-3.785 0.37,-1.148 0.92,-2.139 1.64,-2.978 0.72,-0.839 1.62,-1.486 2.68,-1.942 1.06,-0.456 2.28,-0.685 3.66,-0.685 0.9,0 1.81,0.115 2.72,0.347 0.91,0.227 1.78,0.536 2.61,0.935 l -1.24,3.14 c -0.69,-0.325 -1.37,-0.606 -2.06,-0.848 -0.69,-0.239 -1.36,-0.36 -2.03,-0.36 z m 19.02,15.255999 h -10.49 V 0.287 h 10.49 V 3.45 h -6.63 v 3.998 h 6.17 v 3.163 h -6.17 v 4.697 h 6.63 z"
     fill="#eeeeee"
     fill-opacity="0.65"
     id="path1582" />
  <path
     d="m 393.23996,289.511 c -1.76,0 -3.19,1.428 -3.19,3.188 0,1.76 1.43,3.189 3.19,3.189 z m 0,6.377 h 63.76 v -6.377 h -63.76 z"
     fill="#dc6926"
     id="path1584" />
  <path
     d="m 5.828,271.178 v 31.086 H 0 V 271.178 Z M 4.996,290.547 H 3.399 c 0.013,-1.524 0.217,-2.93 0.606,-4.212 0.392,-1.294 0.953,-2.413 1.68,-3.357 0.73,-0.96 1.6,-1.703 2.611,-2.229 1.027,-0.526 2.159,-0.787 3.399,-0.787 1.081,0 2.06,0.156 2.937,0.465 0.889,0.297 1.651,0.781 2.286,1.457 0.647,0.66 1.147,1.531 1.498,2.612 0.351,1.077 0.526,2.388 0.526,3.924 v 13.844 h -5.87 v -13.882 c 0,-0.972 -0.14,-1.734 -0.424,-2.289 -0.271,-0.568 -0.669,-0.963 -1.195,-1.193 -0.514,-0.242 -1.145,-0.366 -1.901,-0.366 -0.838,0 -1.552,0.156 -2.145,0.465 -0.581,0.313 -1.046,0.743 -1.397,1.298 -0.351,0.539 -0.609,1.173 -0.768,1.9 -0.163,0.73 -0.246,1.512 -0.246,2.35 z M 34.1,280.366 v 4.13 H 21.35 v -4.13 z m -9.591,-5.404 h 5.829 v 20.706 c 0,0.634 0.079,1.119 0.242,1.457 0.175,0.335 0.43,0.574 0.768,0.708 0.338,0.121 0.762,0.181 1.276,0.181 0.363,0 0.688,-0.012 0.972,-0.041 0.297,-0.038 0.545,-0.08 0.746,-0.121 l 0.023,4.291 c -0.501,0.163 -1.04,0.291 -1.62,0.386 -0.58,0.093 -1.221,0.14 -1.923,0.14 -1.281,0 -2.401,-0.21 -3.36,-0.628 -0.944,-0.43 -1.671,-1.119 -2.184,-2.063 -0.514,-0.947 -0.769,-2.187 -0.769,-3.724 z m 23.639,5.404 v 4.13 h -12.75 v -4.13 z m -9.594,-5.404 h 5.829 v 20.706 c 0,0.634 0.079,1.119 0.242,1.457 0.175,0.335 0.434,0.574 0.768,0.708 0.338,0.121 0.762,0.181 1.276,0.181 0.363,0 0.688,-0.012 0.972,-0.041 0.297,-0.038 0.545,-0.08 0.749,-0.121 l 0.02,4.291 c -0.498,0.163 -1.04,0.291 -1.62,0.386 -0.58,0.093 -1.221,0.14 -1.923,0.14 -1.281,0 -2.401,-0.21 -3.357,-0.628 -0.947,-0.43 -1.674,-1.119 -2.187,-2.063 -0.514,-0.947 -0.769,-2.187 -0.769,-3.724 z m 18.742,9.613 v 26.11 h -5.829 v -30.319 h 5.401 z m 13.863,6.498 v 0.424 c 0,1.591 -0.188,3.071 -0.568,4.432 -0.363,1.365 -0.902,2.551 -1.619,3.562 -0.715,1.001 -1.604,1.782 -2.672,2.349 -1.052,0.552 -2.267,0.829 -3.641,0.829 -1.336,0 -2.497,-0.271 -3.482,-0.809 -0.985,-0.539 -1.814,-1.295 -2.49,-2.267 -0.66,-0.986 -1.193,-2.124 -1.598,-3.422 -0.405,-1.294 -0.714,-2.684 -0.931,-4.167 v -1.113 c 0.217,-1.594 0.526,-3.051 0.931,-4.371 0.405,-1.336 0.938,-2.49 1.598,-3.462 0.676,-0.986 1.498,-1.748 2.471,-2.287 0.985,-0.538 2.136,-0.809 3.459,-0.809 1.39,0 2.611,0.261 3.664,0.787 1.064,0.526 1.957,1.282 2.671,2.267 0.727,0.985 1.276,2.159 1.639,3.523 0.38,1.362 0.568,2.873 0.568,4.534 z m -5.851,0.424 v -0.424 c 0,-0.931 -0.08,-1.789 -0.242,-2.57 -0.147,-0.797 -0.392,-1.492 -0.727,-2.085 -0.325,-0.593 -0.756,-1.052 -1.298,-1.377 -0.526,-0.338 -1.167,-0.507 -1.922,-0.507 -0.794,0 -1.477,0.13 -2.044,0.386 -0.552,0.255 -1.005,0.628 -1.355,1.112 -0.351,0.488 -0.616,1.065 -0.791,1.741 -0.175,0.676 -0.281,1.438 -0.322,2.286 v 2.816 c 0.067,0.998 0.255,1.894 0.567,2.691 0.31,0.781 0.788,1.403 1.435,1.862 0.648,0.459 1.499,0.688 2.551,0.688 0.768,0 1.416,-0.169 1.942,-0.507 0.529,-0.35 0.953,-0.829 1.275,-1.438 0.338,-0.605 0.574,-1.307 0.711,-2.104 0.147,-0.794 0.22,-1.652 0.22,-2.57 z m 21.311,4.716 c 0,-0.418 -0.121,-0.797 -0.363,-1.132 -0.242,-0.338 -0.695,-0.65 -1.355,-0.931 -0.647,-0.3 -1.585,-0.568 -2.812,-0.81 -1.107,-0.242 -2.14,-0.548 -3.099,-0.912 -0.944,-0.376 -1.767,-0.829 -2.468,-1.355 -0.689,-0.526 -1.228,-1.148 -1.62,-1.862 -0.392,-0.73 -0.587,-1.559 -0.587,-2.49 0,-0.918 0.195,-1.782 0.587,-2.592 0.405,-0.807 0.979,-1.524 1.722,-2.143 0.755,-0.634 1.671,-1.128 2.751,-1.479 1.094,-0.364 2.322,-0.545 3.683,-0.545 1.903,0 3.536,0.302 4.897,0.911 1.378,0.606 2.43,1.442 3.16,2.51 0.74,1.052 1.113,2.251 1.113,3.603 h -5.829 c 0,-0.568 -0.121,-1.075 -0.366,-1.521 -0.23,-0.456 -0.593,-0.816 -1.091,-1.072 -0.487,-0.271 -1.122,-0.404 -1.903,-0.404 -0.647,0 -1.209,0.114 -1.68,0.344 -0.472,0.217 -0.836,0.513 -1.094,0.889 -0.242,0.367 -0.364,0.769 -0.364,1.215 0,0.338 0.067,0.641 0.204,0.912 0.147,0.255 0.383,0.491 0.708,0.708 0.322,0.217 0.74,0.418 1.253,0.606 0.526,0.175 1.174,0.338 1.945,0.488 1.579,0.322 2.988,0.749 4.228,1.275 1.244,0.51 2.229,1.212 2.956,2.104 0.73,0.877 1.093,2.031 1.093,3.46 0,0.972 -0.216,1.862 -0.647,2.672 -0.433,0.809 -1.052,1.517 -1.862,2.126 -0.81,0.593 -1.782,1.059 -2.914,1.397 -1.122,0.322 -2.382,0.484 -3.785,0.484 -2.037,0 -3.765,-0.363 -5.181,-1.093 -1.403,-0.727 -2.471,-1.652 -3.198,-2.771 -0.717,-1.135 -1.074,-2.296 -1.074,-3.482 h 5.525 c 0.029,0.794 0.23,1.435 0.609,1.923 0.389,0.485 0.883,0.835 1.476,1.052 0.606,0.217 1.263,0.322 1.964,0.322 0.756,0 1.381,-0.099 1.882,-0.303 0.5,-0.217 0.876,-0.497 1.135,-0.848 0.268,-0.367 0.401,-0.784 0.401,-1.256 z m 9.677,3.239 c 0,-0.864 0.297,-1.588 0.89,-2.168 0.606,-0.577 1.409,-0.867 2.407,-0.867 0.998,0 1.795,0.29 2.388,0.867 0.609,0.58 0.912,1.304 0.912,2.168 0,0.864 -0.303,1.585 -0.912,2.165 -0.593,0.581 -1.39,0.871 -2.388,0.871 -0.998,0 -1.801,-0.29 -2.407,-0.871 -0.593,-0.58 -0.89,-1.301 -0.89,-2.165 z m 0,-16.697 c 0,-0.864 0.297,-1.585 0.89,-2.165 0.606,-0.581 1.409,-0.871 2.407,-0.871 0.998,0 1.795,0.29 2.388,0.871 0.609,0.58 0.912,1.301 0.912,2.165 0,0.864 -0.303,1.584 -0.912,2.165 -0.593,0.58 -1.39,0.87 -2.388,0.87 -0.998,0 -1.801,-0.29 -2.407,-0.87 -0.593,-0.581 -0.89,-1.301 -0.89,-2.165 z m 24.063,-9.958 -10.809,31.996 h -4.329 l 10.808,-31.996 z m 10.525,0 -10.809,31.996 h -4.33 l 10.806,-31.996 z m 8.621,12.103 v 17.364 h -5.85 v -21.898 h 5.487 z m -0.809,5.647 h -1.62 c 0,-1.524 0.182,-2.93 0.548,-4.212 0.377,-1.294 0.922,-2.413 1.639,-3.357 0.727,-0.96 1.626,-1.703 2.691,-2.229 1.065,-0.526 2.299,-0.787 3.705,-0.787 0.969,0 1.862,0.146 2.669,0.446 0.81,0.281 1.505,0.733 2.085,1.355 0.593,0.606 1.052,1.403 1.377,2.388 0.322,0.973 0.485,2.14 0.485,3.501 v 14.612 h -5.828 v -13.965 c 0,-0.998 -0.134,-1.766 -0.405,-2.308 -0.268,-0.539 -0.654,-0.915 -1.154,-1.132 -0.485,-0.217 -1.072,-0.325 -1.76,-0.325 -0.756,0 -1.416,0.156 -1.984,0.465 -0.551,0.313 -1.01,0.743 -1.377,1.298 -0.364,0.539 -0.631,1.173 -0.807,1.9 -0.178,0.73 -0.264,1.512 -0.264,2.35 z m 13.034,-0.669 -2.085,0.264 c 0,-1.431 0.175,-2.761 0.526,-3.989 0.363,-1.227 0.899,-2.305 1.6,-3.236 0.715,-0.931 1.598,-1.654 2.65,-2.168 1.052,-0.526 2.267,-0.787 3.644,-0.787 1.052,0 2.009,0.156 2.873,0.465 0.864,0.297 1.601,0.775 2.206,1.438 0.622,0.647 1.094,1.495 1.416,2.548 0.338,1.052 0.507,2.343 0.507,3.867 v 13.984 h -5.848 V 288.28 c 0,-1.014 -0.137,-1.782 -0.405,-2.308 -0.258,-0.539 -0.634,-0.912 -1.135,-1.113 -0.484,-0.217 -1.064,-0.325 -1.74,-0.325 -0.702,0 -1.314,0.143 -1.84,0.427 -0.526,0.268 -0.966,0.647 -1.317,1.132 -0.351,0.488 -0.615,1.052 -0.791,1.699 -0.175,0.635 -0.261,1.33 -0.261,2.086 z m 24.346,9.919 5.81,-19.431 h 6.252 l -8.803,25.199 c -0.188,0.551 -0.446,1.144 -0.768,1.779 -0.31,0.634 -0.737,1.234 -1.276,1.801 -0.526,0.58 -1.195,1.052 -2.002,1.419 -0.797,0.363 -1.776,0.545 -2.937,0.545 -0.551,0 -1.004,-0.035 -1.355,-0.102 -0.35,-0.067 -0.768,-0.162 -1.256,-0.284 v -4.269 c 0.15,0 0.306,0 0.466,0 0.162,0.013 0.319,0.019 0.465,0.019 0.772,0 1.397,-0.086 1.884,-0.261 0.485,-0.176 0.877,-0.447 1.174,-0.81 0.296,-0.351 0.532,-0.81 0.708,-1.378 z m -2.429,-19.431 4.757,15.866 0.829,6.173 -3.966,0.427 -7.873,-22.466 z m 28.316,6.961 v 4.575 h -11.437 v -4.575 z m 16.676,9.999 v -9.754 c 0,-0.701 -0.115,-1.304 -0.345,-1.801 -0.229,-0.513 -0.587,-0.912 -1.071,-1.196 -0.472,-0.284 -1.087,-0.424 -1.843,-0.424 -0.647,0 -1.205,0.115 -1.68,0.345 -0.472,0.213 -0.836,0.532 -1.091,0.95 -0.258,0.405 -0.386,0.883 -0.386,1.438 h -5.828 c 0,-0.931 0.217,-1.815 0.647,-2.653 0.431,-0.836 1.059,-1.572 1.881,-2.206 0.823,-0.648 1.802,-1.152 2.937,-1.518 1.145,-0.364 2.426,-0.545 3.845,-0.545 1.7,0 3.211,0.283 4.534,0.848 1.32,0.567 2.36,1.419 3.115,2.55 0.769,1.136 1.154,2.551 1.154,4.251 v 9.37 c 0,1.202 0.074,2.188 0.224,2.956 0.146,0.756 0.363,1.416 0.647,1.983 v 0.344 h -5.889 c -0.284,-0.593 -0.501,-1.335 -0.647,-2.225 -0.138,-0.906 -0.204,-1.808 -0.204,-2.713 z m 0.768,-8.399 0.041,3.3 h -3.258 c -0.769,0 -1.438,0.086 -2.002,0.262 -0.568,0.175 -1.033,0.424 -1.397,0.749 -0.363,0.309 -0.634,0.676 -0.81,1.094 -0.162,0.417 -0.242,0.877 -0.242,1.374 0,0.501 0.115,0.953 0.344,1.358 0.23,0.389 0.558,0.702 0.992,0.931 0.43,0.214 0.937,0.322 1.517,0.322 0.877,0 1.639,-0.175 2.287,-0.526 0.647,-0.351 1.147,-0.781 1.498,-1.294 0.364,-0.514 0.552,-0.998 0.564,-1.457 l 1.54,2.467 c -0.216,0.555 -0.513,1.129 -0.889,1.722 -0.367,0.593 -0.832,1.154 -1.397,1.68 -0.567,0.514 -1.249,0.938 -2.047,1.276 -0.793,0.322 -1.737,0.484 -2.831,0.484 -1.39,0 -2.653,-0.277 -3.785,-0.829 -1.119,-0.567 -2.011,-1.342 -2.671,-2.327 -0.648,-0.998 -0.973,-2.133 -0.973,-3.402 0,-1.145 0.217,-2.165 0.647,-3.055 0.434,-0.889 1.068,-1.638 1.904,-2.247 0.851,-0.619 1.91,-1.085 3.179,-1.397 1.265,-0.322 2.738,-0.485 4.409,-0.485 z m 15.422,-4.352 v 26.11 h -5.828 v -30.319 h 5.404 z m 13.867,6.498 v 0.424 c 0,1.591 -0.192,3.071 -0.568,4.432 -0.363,1.365 -0.905,2.551 -1.62,3.562 -0.714,1.001 -1.607,1.782 -2.671,2.349 -1.053,0.552 -2.267,0.829 -3.645,0.829 -1.333,0 -2.493,-0.271 -3.478,-0.809 -0.986,-0.539 -1.815,-1.295 -2.491,-2.267 -0.66,-0.986 -1.195,-2.124 -1.6,-3.422 -0.402,-1.294 -0.714,-2.684 -0.931,-4.167 v -1.113 c 0.217,-1.594 0.529,-3.051 0.931,-4.371 0.405,-1.336 0.94,-2.49 1.6,-3.462 0.676,-0.986 1.499,-1.748 2.468,-2.287 0.986,-0.538 2.14,-0.809 3.463,-0.809 1.39,0 2.611,0.261 3.663,0.787 1.065,0.526 1.955,1.282 2.672,2.267 0.727,0.985 1.276,2.159 1.639,3.523 0.376,1.362 0.568,2.873 0.568,4.534 z m -5.851,0.424 v -0.424 c 0,-0.931 -0.08,-1.789 -0.242,-2.57 -0.15,-0.797 -0.393,-1.492 -0.731,-2.085 -0.322,-0.593 -0.755,-1.052 -1.294,-1.377 -0.526,-0.338 -1.167,-0.507 -1.923,-0.507 -0.797,0 -1.476,0.13 -2.043,0.386 -0.555,0.255 -1.005,0.628 -1.356,1.112 -0.35,0.488 -0.615,1.065 -0.79,1.741 -0.176,0.676 -0.284,1.438 -0.322,2.286 v 2.816 c 0.067,0.998 0.255,1.894 0.564,2.691 0.313,0.781 0.791,1.403 1.438,1.862 0.647,0.459 1.499,0.688 2.551,0.688 0.768,0 1.416,-0.169 1.942,-0.507 0.526,-0.35 0.95,-0.829 1.275,-1.438 0.338,-0.605 0.574,-1.307 0.708,-2.104 0.15,-0.794 0.223,-1.652 0.223,-2.57 z m 15.301,-6.922 v 26.11 h -5.828 v -30.319 h 5.404 z m 13.863,6.498 v 0.424 c 0,1.591 -0.188,3.071 -0.567,4.432 -0.364,1.365 -0.903,2.551 -1.62,3.562 -0.714,1.001 -1.604,1.782 -2.669,2.349 -1.055,0.552 -2.267,0.829 -3.644,0.829 -1.336,0 -2.497,-0.271 -3.482,-0.809 -0.985,-0.539 -1.814,-1.295 -2.49,-2.267 -0.66,-0.986 -1.192,-2.124 -1.597,-3.422 -0.405,-1.294 -0.714,-2.684 -0.931,-4.167 v -1.113 c 0.217,-1.594 0.526,-3.051 0.931,-4.371 0.405,-1.336 0.937,-2.49 1.597,-3.462 0.676,-0.986 1.499,-1.748 2.471,-2.287 0.985,-0.538 2.139,-0.809 3.459,-0.809 1.391,0 2.612,0.261 3.664,0.787 1.068,0.526 1.958,1.282 2.672,2.267 0.73,0.985 1.275,2.159 1.639,3.523 0.379,1.362 0.567,2.873 0.567,4.534 z m -5.847,0.424 v -0.424 c 0,-0.931 -0.083,-1.789 -0.246,-2.57 -0.146,-0.797 -0.389,-1.492 -0.727,-2.085 -0.325,-0.593 -0.755,-1.052 -1.294,-1.377 -0.526,-0.338 -1.167,-0.507 -1.923,-0.507 -0.797,0 -1.479,0.13 -2.047,0.386 -0.551,0.255 -1.004,0.628 -1.355,1.112 -0.351,0.488 -0.612,1.065 -0.787,1.741 -0.176,0.676 -0.284,1.438 -0.326,2.286 v 2.816 c 0.067,0.998 0.255,1.894 0.568,2.691 0.309,0.781 0.787,1.403 1.435,1.862 0.65,0.459 1.498,0.688 2.55,0.688 0.769,0 1.419,-0.169 1.945,-0.507 0.526,-0.35 0.95,-0.829 1.276,-1.438 0.334,-0.605 0.57,-1.307 0.708,-2.104 0.146,-0.794 0.223,-1.652 0.223,-2.57 z m 9.753,7.955 c 0,-0.864 0.297,-1.588 0.89,-2.168 0.609,-0.577 1.412,-0.867 2.41,-0.867 0.998,0 1.795,0.29 2.388,0.867 0.606,0.58 0.909,1.304 0.909,2.168 0,0.864 -0.303,1.585 -0.909,2.165 -0.593,0.581 -1.39,0.871 -2.388,0.871 -0.998,0 -1.801,-0.29 -2.41,-0.871 -0.593,-0.58 -0.89,-1.301 -0.89,-2.165 z m 20.785,-1.336 c 0.714,0 1.349,-0.137 1.904,-0.405 0.551,-0.283 0.985,-0.675 1.294,-1.173 0.326,-0.513 0.494,-1.116 0.507,-1.801 h 5.484 c -0.012,1.537 -0.424,2.907 -1.234,4.106 -0.81,1.19 -1.897,2.127 -3.258,2.816 -1.365,0.672 -2.889,1.01 -4.576,1.01 -1.699,0 -3.182,-0.283 -4.451,-0.851 -1.256,-0.564 -2.302,-1.349 -3.137,-2.347 -0.838,-1.01 -1.463,-2.187 -1.881,-3.52 -0.421,-1.351 -0.628,-2.793 -0.628,-4.333 v -0.586 c 0,-1.553 0.207,-2.994 0.628,-4.33 0.418,-1.352 1.043,-2.525 1.881,-3.523 0.835,-1.011 1.881,-1.802 3.137,-2.369 1.253,-0.565 2.726,-0.848 4.413,-0.848 1.792,0 3.364,0.344 4.716,1.033 1.361,0.685 2.426,1.67 3.195,2.952 0.784,1.269 1.183,2.774 1.195,4.515 h -5.484 c -0.013,-0.73 -0.169,-1.39 -0.465,-1.983 -0.284,-0.593 -0.702,-1.065 -1.257,-1.419 -0.538,-0.364 -1.208,-0.545 -2.002,-0.545 -0.851,0 -1.546,0.181 -2.085,0.545 -0.539,0.354 -0.957,0.838 -1.256,1.46 -0.297,0.606 -0.504,1.301 -0.625,2.082 -0.109,0.772 -0.163,1.578 -0.163,2.43 v 0.586 c 0,0.852 0.054,1.668 0.163,2.449 0.108,0.784 0.309,1.48 0.606,2.085 0.309,0.606 0.736,1.088 1.275,1.438 0.539,0.351 1.24,0.526 2.104,0.526 z m 11.638,-6.577 v -0.428 c 0,-1.603 0.229,-3.083 0.689,-4.431 0.459,-1.362 1.125,-2.542 2.002,-3.543 0.877,-0.998 1.958,-1.773 3.239,-2.327 1.282,-0.565 2.752,-0.848 4.413,-0.848 1.658,0 3.138,0.283 4.432,0.848 1.294,0.554 2.382,1.329 3.259,2.327 0.889,1.001 1.565,2.181 2.024,3.543 0.456,1.348 0.686,2.828 0.686,4.431 v 0.428 c 0,1.591 -0.23,3.067 -0.686,4.432 -0.459,1.348 -1.135,2.528 -2.024,3.542 -0.877,0.998 -1.958,1.773 -3.24,2.327 -1.282,0.552 -2.751,0.829 -4.413,0.829 -1.658,0 -3.134,-0.277 -4.431,-0.829 -1.282,-0.554 -2.366,-1.329 -3.259,-2.327 -0.877,-1.014 -1.543,-2.194 -2.002,-3.542 -0.46,-1.365 -0.689,-2.841 -0.689,-4.432 z m 5.828,-0.428 v 0.428 c 0,0.918 0.083,1.772 0.243,2.57 0.162,0.797 0.421,1.498 0.771,2.104 0.364,0.593 0.836,1.058 1.416,1.396 0.58,0.338 1.288,0.507 2.123,0.507 0.81,0 1.505,-0.169 2.086,-0.507 0.58,-0.338 1.045,-0.803 1.396,-1.396 0.351,-0.606 0.609,-1.307 0.769,-2.104 0.175,-0.798 0.264,-1.652 0.264,-2.57 v -0.428 c 0,-0.889 -0.089,-1.724 -0.264,-2.509 -0.16,-0.794 -0.425,-1.495 -0.788,-2.104 -0.351,-0.619 -0.816,-1.107 -1.396,-1.457 -0.581,-0.351 -1.282,-0.526 -2.105,-0.526 -0.822,0 -1.524,0.175 -2.104,0.526 -0.568,0.35 -1.033,0.838 -1.397,1.457 -0.35,0.609 -0.609,1.31 -0.771,2.104 -0.16,0.785 -0.243,1.62 -0.243,2.509 z m 24.328,-6.211 v 17.364 h -5.848 v -21.898 h 5.484 z m -0.81,5.647 h -1.62 c 0,-1.524 0.182,-2.93 0.549,-4.212 0.376,-1.294 0.924,-2.413 1.639,-3.357 0.727,-0.96 1.626,-1.703 2.691,-2.229 1.065,-0.526 2.302,-0.787 3.704,-0.787 0.97,0 1.863,0.146 2.672,0.446 0.81,0.281 1.502,0.733 2.082,1.355 0.597,0.606 1.056,1.403 1.378,2.388 0.325,0.973 0.484,2.14 0.484,3.501 v 14.612 h -5.828 v -13.965 c 0,-0.998 -0.134,-1.766 -0.405,-2.308 -0.268,-0.539 -0.654,-0.915 -1.151,-1.132 -0.488,-0.217 -1.074,-0.325 -1.763,-0.325 -0.756,0 -1.416,0.156 -1.983,0.465 -0.552,0.313 -1.011,0.743 -1.374,1.298 -0.367,0.539 -0.635,1.173 -0.81,1.9 -0.176,0.73 -0.265,1.512 -0.265,2.35 z m 13.034,-0.669 -2.085,0.264 c 0,-1.431 0.175,-2.761 0.526,-3.989 0.367,-1.227 0.899,-2.305 1.601,-3.236 0.714,-0.931 1.597,-1.654 2.649,-2.168 1.052,-0.526 2.267,-0.787 3.645,-0.787 1.052,0 2.008,0.156 2.872,0.465 0.864,0.297 1.601,0.775 2.207,1.438 0.621,0.647 1.093,1.495 1.415,2.548 0.338,1.052 0.507,2.343 0.507,3.867 v 13.984 h -5.847 V 288.28 c 0,-1.014 -0.137,-1.782 -0.405,-2.308 -0.258,-0.539 -0.635,-0.912 -1.135,-1.113 -0.485,-0.217 -1.065,-0.325 -1.741,-0.325 -0.702,0 -1.314,0.143 -1.84,0.427 -0.526,0.268 -0.966,0.647 -1.317,1.132 -0.35,0.488 -0.612,1.052 -0.787,1.699 -0.176,0.635 -0.265,1.33 -0.265,2.086 z"
     fill="#e7e7e7"
     id="path1586" />
</svg>
