<svg viewBox="0 0 237 284" fill="none"
    xmlns="http://www.w3.org/2000/svg">
    <path d="M110.596 1.457 14.238 38.285A22.422 22.422 0 0 0 0 59.194v92.714l44.283-25.449v-52.13L118.5 45.852V0c-2.701.006-5.379.5-7.904 1.457ZM45.068 209.084l73.432-42.321v-51.122L5.045 181.057A10.2 10.2 0 0 0 0 189.802v34.249a22.42 22.42 0 0 0 14.238 20.684l96.358 36.828a22.4 22.4 0 0 0 7.904 1.457v-45.852l-73.432-28.084Z" fill="#323232"/>
    <path d="M232.291 101.066a9.36 9.36 0 0 0 4.709-8.24V59.194a22.43 22.43 0 0 0-3.889-12.654 22.43 22.43 0 0 0-10.349-8.255L126.348 1.457A22.425 22.425 0 0 0 118.5 0v45.853l72.871 28.027-72.871 41.985v51.122l113.791-65.921ZM126.348 281.563l96.414-36.828A22.426 22.426 0 0 0 237 224.051v-93.667l-44.284 25.561v52.859L118.5 237.168v45.852a22.418 22.418 0 0 0 7.848-1.457Z" fill="#1A1A1A"/>
</svg>