<svg width="251" height="46" fill="none"
    xmlns="http://www.w3.org/2000/svg">
    <g clip-path="url(#a)">
        <path d="M228.369 0H22.631C10.132 0 0 10.132 0 22.631s10.132 22.631 22.631 22.631H228.37c12.499 0 22.631-10.132 22.631-22.63C251 10.131 240.868 0 228.369 0Z" fill="#7CC6BB"/>
        <path d="M56.791 22.629c0 1.213-.226 2.227-.677 3.042a4.344 4.344 0 0 1-1.967 1.835c-.86.407-1.896.611-3.11.611h-2.99v-10.77h3.315c1.115 0 2.078.201 2.888.604.81.398 1.436.99 1.878 1.775.442.781.663 1.749.663 2.903Zm-1.841.051c0-.884-.14-1.61-.42-2.18a2.687 2.687 0 0 0-1.223-1.267c-.535-.28-1.196-.42-1.982-.42h-1.51v7.823h1.252c1.302 0 2.274-.331 2.918-.994.643-.663.965-1.65.965-2.962Zm7.234-2.873c.727 0 1.35.15 1.871.45.52.3.921.724 1.2 1.274.281.55.42 1.208.42 1.975v.928h-5.443c.02.79.23 1.4.633 1.827.408.427.978.64 1.71.64.52 0 .987-.049 1.4-.147a7.76 7.76 0 0 0 1.288-.45v1.408a5.633 5.633 0 0 1-1.245.42 7.514 7.514 0 0 1-1.517.133c-.8 0-1.505-.155-2.114-.465a3.395 3.395 0 0 1-1.422-1.4c-.34-.618-.509-1.387-.509-2.305 0-.914.155-1.69.464-2.328.31-.639.744-1.125 1.304-1.459.56-.334 1.214-.5 1.96-.5Zm0 1.304c-.545 0-.987.177-1.326.53-.334.354-.53.872-.59 1.555h3.713a2.856 2.856 0 0 0-.206-1.083 1.57 1.57 0 0 0-.59-.736c-.26-.177-.593-.266-1.001-.266Zm9.629-1.304c.967 0 1.743.354 2.327 1.061.59.707.884 1.758.884 3.153 0 .924-.137 1.702-.412 2.335-.27.63-.65 1.105-1.142 1.43-.486.319-1.053.479-1.702.479-.412 0-.77-.055-1.075-.163a2.682 2.682 0 0 1-.781-.42 2.997 2.997 0 0 1-.546-.574h-.102c.024.196.046.415.066.656.024.235.036.451.036.648v3.322h-1.738V19.962h1.415l.242 1.127h.081c.153-.23.337-.444.553-.64.221-.197.486-.352.796-.465.314-.118.68-.177 1.098-.177Zm-.465 1.415c-.476 0-.859.095-1.149.287-.285.187-.493.47-.626.847-.128.378-.196.852-.207 1.422v.243c0 .604.062 1.117.185 1.54.127.417.337.737.626.957.295.217.693.325 1.193.325.423 0 .772-.116 1.047-.347.28-.23.488-.56.626-.987.137-.427.206-.93.206-1.51 0-.88-.157-1.562-.471-2.048-.31-.486-.786-.73-1.43-.73Zm7.419 6.895h-1.739V16.654h1.739v11.463Zm9.695-4.096c0 .678-.089 1.28-.266 1.805-.176.526-.434.97-.773 1.334a3.406 3.406 0 0 1-1.223.825 4.39 4.39 0 0 1-1.613.28c-.56 0-1.073-.094-1.54-.28a3.508 3.508 0 0 1-1.216-.825 3.782 3.782 0 0 1-.788-1.334c-.186-.525-.28-1.127-.28-1.805 0-.899.155-1.66.464-2.284a3.309 3.309 0 0 1 1.341-1.436c.58-.33 1.27-.494 2.07-.494.752 0 1.414.165 1.99.494.574.329 1.023.808 1.347 1.437.325.628.487 1.39.487 2.283Zm-5.916 0c0 .595.071 1.103.214 1.525.147.422.373.747.677.973.305.22.698.331 1.18.331.48 0 .873-.11 1.178-.332.304-.225.528-.55.67-.972.143-.422.214-.93.214-1.525 0-.594-.071-1.098-.214-1.51-.142-.418-.366-.734-.67-.95-.305-.221-.7-.332-1.186-.332-.718 0-1.24.24-1.57.722-.328.481-.493 1.171-.493 2.07Zm6.675-4.059h1.886l1.672 4.656c.073.211.14.42.199.626.063.201.118.4.161.597.05.196.089.393.118.59h.045c.049-.256.118-.541.206-.855.094-.32.197-.639.31-.958l1.606-4.656h1.863l-3.499 9.275c-.201.53-.45.982-.744 1.356-.29.378-.634.663-1.031.854a3.039 3.039 0 0 1-1.363.295 4.05 4.05 0 0 1-.641-.044 5.205 5.205 0 0 1-.465-.082v-1.384a3.922 3.922 0 0 0 .877.096c.31 0 .577-.062.803-.185a1.66 1.66 0 0 0 .575-.523 3.15 3.15 0 0 0 .39-.759l.288-.766-3.256-8.133Zm20.443 4.06c0 .677-.089 1.279-.266 1.804a3.6 3.6 0 0 1-.773 1.334 3.413 3.413 0 0 1-1.223.825c-.476.186-1.014.28-1.613.28-.56 0-1.073-.094-1.54-.28a3.512 3.512 0 0 1-1.216-.825 3.8 3.8 0 0 1-.788-1.334c-.186-.525-.279-1.127-.279-1.805 0-.899.154-1.66.463-2.284a3.307 3.307 0 0 1 1.341-1.436c.579-.33 1.27-.494 2.07-.494.752 0 1.414.165 1.989.494a3.4 3.4 0 0 1 1.348 1.437c.325.628.487 1.39.487 2.283Zm-5.916 0c0 .594.071 1.102.214 1.524.147.422.373.747.677.973.305.22.698.331 1.179.331.482 0 .874-.11 1.179-.332.304-.225.528-.55.67-.972.143-.422.214-.93.214-1.525 0-.594-.071-1.098-.214-1.51-.142-.418-.366-.734-.67-.95-.305-.221-.7-.332-1.186-.332-.718 0-1.24.24-1.569.722-.329.481-.494 1.171-.494 2.07Zm12.156-4.215c.918 0 1.632.239 2.143.715.516.471.774 1.23.774 2.276v5.32h-1.732v-4.996c0-.633-.129-1.107-.39-1.421-.26-.32-.663-.48-1.208-.48-.791 0-1.341.244-1.65.73-.305.486-.457 1.191-.457 2.114v4.052h-1.731v-8.155h1.348l.243 1.105h.096c.176-.285.395-.518.656-.7a2.91 2.91 0 0 1 .884-.42c.328-.093.67-.14 1.024-.14Zm16.236 8.31h-7.742v-1.215l5.481-8.052h-5.312v-1.503h7.426v1.208l-5.481 8.06h5.628v1.502Zm4.966-8.31c.727 0 1.35.15 1.87.45.521.3.921.724 1.201 1.274s.421 1.208.421 1.975v.928h-5.445c.02.79.231 1.4.634 1.827.407.427.977.64 1.709.64.52 0 .987-.049 1.4-.147a7.776 7.776 0 0 0 1.289-.45v1.408a5.646 5.646 0 0 1-1.245.42 7.51 7.51 0 0 1-1.518.133c-.801 0-1.505-.155-2.114-.465a3.397 3.397 0 0 1-1.422-1.4c-.339-.618-.508-1.387-.508-2.305 0-.914.155-1.69.464-2.328.309-.639.744-1.125 1.304-1.459.56-.334 1.213-.5 1.96-.5Zm0 1.304c-.546 0-.988.177-1.327.53-.334.354-.53.872-.589 1.555h3.713a2.87 2.87 0 0 0-.206-1.083 1.58 1.58 0 0 0-.589-.736c-.261-.177-.595-.266-1.002-.266Zm9.577-1.304a5 5 0 0 1 .869.081l-.162 1.621a2.179 2.179 0 0 0-.384-.066 3.993 3.993 0 0 0-.397-.022c-.31 0-.605.051-.884.154a2.09 2.09 0 0 0-1.253 1.216 2.839 2.839 0 0 0-.184 1.06v4.266h-1.739v-8.155h1.356l.236 1.436h.081c.162-.29.364-.554.604-.795.241-.24.516-.432.825-.575a2.398 2.398 0 0 1 1.032-.22Zm9.599 4.214c0 .678-.089 1.28-.266 1.805-.177.526-.434.97-.773 1.334a3.405 3.405 0 0 1-1.223.825 4.395 4.395 0 0 1-1.614.28 4.11 4.11 0 0 1-1.539-.28 3.512 3.512 0 0 1-1.216-.825 3.785 3.785 0 0 1-.788-1.334c-.187-.525-.28-1.127-.28-1.805 0-.899.155-1.66.464-2.284a3.307 3.307 0 0 1 1.341-1.436c.58-.33 1.269-.494 2.07-.494.751 0 1.415.165 1.989.494.575.329 1.024.808 1.348 1.437.324.628.487 1.39.487 2.283Zm-5.916 0c0 .595.071 1.103.213 1.525.148.422.374.747.679.973.304.22.696.331 1.178.331.481 0 .874-.11 1.179-.332.304-.225.528-.55.67-.972.142-.422.214-.93.214-1.525 0-.594-.072-1.098-.214-1.51-.142-.418-.366-.734-.67-.95-.305-.221-.7-.332-1.186-.332-.717 0-1.241.24-1.57.722-.328.481-.493 1.171-.493 2.07Zm12.089-4.214c.967 0 1.744.354 2.328 1.061.59.707.884 1.758.884 3.153 0 .924-.137 1.702-.412 2.335-.271.63-.651 1.105-1.142 1.43-.486.319-1.054.479-1.702.479a3.22 3.22 0 0 1-1.076-.163 2.687 2.687 0 0 1-.781-.42 2.983 2.983 0 0 1-.545-.574h-.103c.025.196.047.415.067.656.024.235.036.451.036.648v3.322h-1.738V19.962h1.414l.243 1.127h.081c.152-.23.337-.444.553-.64.221-.197.486-.352.795-.465a3.123 3.123 0 0 1 1.098-.177Zm-.464 1.415c-.477 0-.859.095-1.149.287-.285.187-.494.47-.627.847-.127.378-.196.852-.206 1.422v.243c0 .604.062 1.117.184 1.54.128.417.337.737.627.957.294.217.692.325 1.193.325.422 0 .771-.116 1.046-.347.28-.23.489-.56.627-.987.137-.427.205-.93.205-1.51 0-.88-.157-1.562-.471-2.048-.309-.486-.786-.73-1.429-.73Zm11.161 4.567c0 .536-.13.987-.391 1.356-.26.368-.641.648-1.142.84-.495.186-1.104.28-1.826.28-.57 0-1.061-.042-1.474-.126a5.03 5.03 0 0 1-1.156-.368v-1.495c.388.181.822.338 1.303.471a5.25 5.25 0 0 0 1.378.199c.57 0 .98-.089 1.23-.265a.849.849 0 0 0 .376-.722.76.76 0 0 0-.155-.472c-.098-.142-.285-.287-.56-.434a10.65 10.65 0 0 0-1.193-.546 9.954 9.954 0 0 1-1.304-.618c-.353-.207-.622-.455-.803-.744-.182-.295-.272-.67-.272-1.128 0-.722.284-1.27.854-1.642.575-.379 1.333-.568 2.276-.568.501 0 .973.052 1.415.155.447.098.884.243 1.311.435l-.545 1.304a8.133 8.133 0 0 0-1.112-.398 3.987 3.987 0 0 0-1.128-.162c-.446 0-.788.069-1.024.206-.23.137-.346.334-.346.59 0 .19.057.353.169.486.113.132.308.265.583.397.279.133.668.297 1.163.494.487.187.907.383 1.26.59.359.2.634.449.825.743.192.295.288.676.288 1.142Z" fill="#292929"/>
        <mask id="b" style="mask-type:luminance" maskUnits="userSpaceOnUse" x="187" y="15" width="18" height="17">
            <path d="M204.365 15.088h-16.459v16.459h16.459v-16.46Z" fill="#fff"/>
        </mask>
        <g mask="url(#b)">
            <path d="M192.021 25.375a2.05 2.05 0 0 0-1.454.603c-.81.81-1.29 4.197-1.29 4.197s3.388-.48 4.197-1.289a2.055 2.055 0 0 0-1.453-3.511Zm.486 2.544c-.192.192-1.488.521-1.488.521s.323-1.29.521-1.488a.637.637 0 0 1 .481-.206.687.687 0 0 1 .486 1.173Zm7.345-3.47c4.362-4.362 2.908-7.756 2.908-7.756s-3.395-1.454-7.756 2.907l-1.708-.343a1.391 1.391 0 0 0-1.241.378l-2.778 2.784 3.429 1.468 2.86 2.86 1.468 3.428 2.777-2.777c.322-.322.466-.789.377-1.241l-.336-1.708Zm-6.865-1.934-1.309-.562 1.351-1.351.987.198c-.391.57-.74 1.166-1.029 1.715Zm4.513 5.26-.562-1.31a16.37 16.37 0 0 0 1.707-1.029l.199.988-1.344 1.351Zm1.378-4.293c-.905.905-2.318 1.646-2.77 1.872l-2.01-2.01c.22-.445.961-1.858 1.873-2.77 3.209-3.21 5.644-2.736 5.644-2.736s.473 2.434-2.737 5.644Zm-.685-.85c.754 0 1.371-.618 1.371-1.372 0-.754-.617-1.372-1.371-1.372-.755 0-1.372.618-1.372 1.372 0 .754.617 1.371 1.372 1.371Z" fill="#292929"/>
        </g>
    </g>
    <defs>
        <clipPath id="a">
            <path fill="#fff" d="M0 0h251v45.262H0z"/>
        </clipPath>
    </defs>
</svg>