<svg viewBox="0 0 237 169" fill="none" xmlns="http://www.w3.org/2000/svg">
<g clip-path="url(#clip0_96_4)">
<mask id="mask0_96_4" style="mask-type:luminance" maskUnits="userSpaceOnUse" x="44" y="-1" width="193" height="169">
<path d="M44.8398 -0.00354004H236.982V167.609H44.8398V-0.00354004Z" fill="white"/>
</mask>
<g mask="url(#mask0_96_4)">
<path d="M140.911 0L236.982 167.609H44.8398L140.911 0Z" fill="#AF0023"/>
</g>
<mask id="mask1_96_4" style="mask-type:luminance" maskUnits="userSpaceOnUse" x="-1" y="24" width="165" height="145">
<path d="M-0.0186594 24.9658H163.505V168.048H-0.0195312L-0.0186594 24.9658Z" fill="white"/>
</mask>
<g mask="url(#mask1_96_4)">
<path d="M81.7421 24.9658L163.502 168.048H-0.0175781L81.7412 24.9658" fill="#CD0024"/>
</g>
<path d="M220.691 125.252H16.7998V123.013H220.691V125.252Z" fill="white"/>
<mask id="mask2_96_4" style="mask-type:luminance" maskUnits="userSpaceOnUse" x="25" y="81" width="184" height="78">
<path d="M25.3896 81.6847H208.57V158.337H25.3896V81.6847Z" fill="white"/>
</mask>
<g mask="url(#mask2_96_4)">
<path d="M189.193 158C188.395 158 187.646 157.669 187.019 157.043C183.274 153.281 183.111 137.985 183.292 115.077C183.394 102.56 183.53 85.4129 181.533 84.06C179.584 84.8677 179.39 99.032 179.263 108.409C179.113 119.32 178.961 130.609 177.188 136.357C176.66 138.06 175.979 139.62 174.609 139.495C172.678 139.325 172.053 136.274 170.612 124.24C170.013 119.242 169.392 114.075 168.667 112.075C168.571 111.823 168.49 111.622 168.418 111.466C167.644 113.214 166.752 118.018 166.132 121.354C165.273 125.96 164.462 130.312 163.447 132.21C162.663 133.668 161.419 135.57 159.681 135.201C157.313 134.704 156.605 129.93 156.393 127.129C156.393 103.564 153.309 100.821 152.693 100.51L152.594 100.586L152.444 100.551C150.243 101.513 150.124 109.156 150.011 116.546C149.923 121.967 149.828 128.111 149.037 133.859C148.011 141.311 146.771 142.748 145.227 142.66C141.674 142.418 141.571 130.179 141.571 128.785C141.571 128.349 141.581 127.834 141.595 127.265C141.663 124.417 141.785 119.118 140.034 117.449C139.803 117.227 139.476 116.971 139.22 117.044C137.973 117.357 136.678 121.408 136.249 122.74C136.113 123.163 136.004 123.511 135.911 123.749C135.84 123.947 135.748 124.226 135.639 124.564C134.695 127.429 133.622 130.288 131.789 130.993C131.11 131.255 130.402 131.198 129.737 130.823C128.855 130.322 128.136 129.3 127.464 127.599C127.097 126.659 126.784 125.705 126.463 124.747C126.075 123.578 125.676 122.369 125.181 121.221C124.793 120.328 123.826 119.926 122.592 120.144C120.03 120.601 119.6 123.19 119.239 127.088C119.175 127.766 119.113 128.432 119.028 129.058C119.018 129.241 118.564 134.963 118.275 136.782C117.474 141.772 116.421 143.737 114.673 143.594C110.359 143.226 108.38 124.305 108.486 116.311C108.567 110.209 107.463 107.98 106.802 107.626C106.734 107.594 106.628 107.537 106.377 107.714C105.596 108.242 104.901 109.888 105.115 111.616C107.49 130.427 105.739 151.972 101.449 156.825C100.097 158.351 98.2564 158.331 96.975 157.043C93.2268 153.281 93.0707 137.985 93.2477 115.077C93.3498 102.56 93.4832 85.4129 91.4892 84.06C89.5405 84.8677 89.3495 99.032 89.2204 108.409C89.0703 119.32 88.9168 130.609 87.1417 136.357C86.6131 138.06 85.9318 139.62 84.5658 139.495C82.6302 139.324 82.01 136.274 80.5655 124.24C79.9654 119.242 79.3452 114.075 78.6203 112.075C78.5278 111.823 78.4459 111.622 78.3708 111.466C77.6006 113.214 76.7082 118.018 76.088 121.354C75.2297 125.96 74.4185 130.312 73.3997 132.21C72.6163 133.668 71.3725 135.57 69.6383 135.201C67.2701 134.704 66.5609 129.93 66.3498 127.129C66.3463 103.564 63.2663 100.821 62.6496 100.51L62.551 100.586L62.3975 100.551C60.1993 101.513 60.0798 109.155 59.9638 116.546C59.8792 121.967 59.7841 128.111 58.9929 133.859C57.968 141.311 56.7372 142.762 55.1871 142.66C51.6264 142.418 51.5235 130.179 51.5235 128.785C51.5235 128.349 51.5383 127.834 51.5514 127.265C51.6195 124.417 51.7424 119.118 49.9909 117.449C49.7589 117.227 49.4326 116.971 49.1762 117.043C47.9288 117.357 46.6308 121.408 46.2086 122.741C46.0726 123.159 45.9565 123.511 45.8711 123.749C45.7725 124.017 45.6806 124.288 45.5954 124.56C44.6516 127.426 43.5778 130.288 41.7486 130.994C41.0674 131.255 40.3547 131.198 39.6935 130.823C38.8116 130.322 38.0885 129.3 37.4212 127.599C37.0531 126.659 36.7364 125.705 36.4189 124.747C36.0308 123.578 35.6286 122.369 35.1349 121.221C34.7494 120.328 33.7785 119.926 32.5451 120.144C29.5941 120.669 28.8954 124.328 28.3337 128.697L28.2351 129.473L26.0029 129.177L26.1085 128.414C26.5961 124.584 27.3384 118.795 32.1534 117.943C34.4188 117.541 36.3989 118.481 37.1961 120.335C37.7309 121.575 38.1504 122.83 38.5526 124.046C38.8526 124.962 39.1588 125.878 39.5129 126.785C40.1366 128.366 40.6208 128.775 40.8013 128.874C41.9292 128.523 43.0806 125.017 43.4618 123.862C43.5813 123.49 43.6842 123.184 43.7654 122.966C43.8439 122.75 43.9459 122.437 44.0689 122.059C45.0843 118.884 46.3587 115.445 48.6214 114.873C49.3131 114.696 50.3834 114.719 51.5444 115.831C54.0113 118.186 53.8822 123.681 53.7967 127.32C53.7836 127.865 53.7705 128.363 53.7705 128.786C53.7705 134.592 54.6315 138.65 55.2892 140.044C55.6294 139.331 56.2129 137.607 56.7686 133.555C57.5379 127.941 57.6374 121.869 57.7194 116.512C57.8685 107.033 57.9741 100.16 61.4057 98.5444C61.9168 98.2312 62.7656 98.0611 63.6614 98.5138C66.9805 100.183 68.5916 109.517 68.5916 127.044C68.8001 129.753 69.5293 132.605 70.1286 133.014C70.1321 132.953 70.6197 132.653 71.4196 131.153C72.2753 129.562 73.1275 124.983 73.8768 120.945C75.5359 112.045 76.2896 108.92 78.2522 108.756C79.7473 108.61 80.439 110.511 80.7295 111.312C81.5468 113.554 82.1531 118.614 82.7942 123.974C83.2949 128.131 84.0067 134.067 84.7324 136.469C84.8109 136.258 84.8999 136.006 84.995 135.695C86.675 130.254 86.8286 119.136 86.9751 108.379C87.1792 93.4362 87.4418 84.1795 90.1677 82.2474C90.7739 81.8182 91.5136 81.7118 92.235 81.9543C95.4276 83.0141 95.6736 92.3738 95.493 115.098C95.3639 131.575 95.2034 152.085 98.5696 155.465C98.8627 155.761 99.0711 155.761 99.1453 155.761C99.3023 155.761 99.5273 155.611 99.7664 155.343C103.174 151.489 105.33 131.252 102.887 111.898C102.584 109.489 103.514 106.958 105.102 105.867C105.978 105.264 106.986 105.186 107.859 105.653C109.845 106.708 110.81 110.304 110.731 116.342C110.591 126.884 113.123 139.222 114.776 141.191C115.038 140.755 115.556 139.559 116.053 136.429C116.332 134.697 116.793 128.881 116.8 128.822C116.882 128.165 116.943 127.528 117 126.881C117.341 123.248 117.76 118.73 122.196 117.943C124.459 117.541 126.439 118.478 127.24 120.335C127.775 121.575 128.191 122.83 128.592 124.046C128.899 124.962 129.206 125.878 129.56 126.785C130.18 128.366 130.668 128.775 130.844 128.874C131.972 128.523 133.128 125.017 133.506 123.865C133.628 123.494 133.731 123.183 133.809 122.965C133.891 122.754 133.99 122.437 134.109 122.059C135.128 118.884 136.403 115.445 138.668 114.873C139.353 114.696 140.426 114.719 141.588 115.831C144.055 118.185 143.926 123.681 143.844 127.32C143.827 127.809 143.816 128.297 143.813 128.786C143.813 134.592 144.675 138.65 145.333 140.044C145.671 139.331 146.253 137.607 146.815 133.555C147.585 127.941 147.677 121.869 147.766 116.512C147.912 107.033 148.018 100.16 151.45 98.5444C151.96 98.2312 152.809 98.0611 153.709 98.5138C157.023 100.183 158.639 109.516 158.639 127.044C158.847 129.753 159.576 132.605 160.172 133.014C160.179 132.953 160.659 132.653 161.467 131.153C162.322 129.562 163.17 124.983 163.923 120.945C165.576 112.045 166.333 108.92 168.295 108.756C169.795 108.61 170.486 110.511 170.776 111.312C171.59 113.554 172.197 118.614 172.843 123.974C173.338 128.131 174.051 134.067 174.78 136.469C174.855 136.258 174.943 136.006 175.039 135.695C176.718 130.254 176.868 119.136 177.018 108.379C177.219 93.4362 177.485 84.1795 180.211 82.2474C180.507 82.0361 180.849 81.8992 181.209 81.8482C181.569 81.7972 181.936 81.8336 182.279 81.9543C185.475 83.0141 185.721 92.3738 185.537 115.098C185.407 131.575 185.247 152.085 188.61 155.465C188.91 155.761 189.114 155.761 189.193 155.761C189.346 155.761 189.571 155.611 189.806 155.343C193.22 151.489 195.374 131.252 192.93 111.898C192.614 109.377 193.329 106.835 194.634 105.857C195.292 105.36 196.092 105.257 196.829 105.567C198.73 106.378 200.018 109.854 200.768 116.199C201.081 118.856 201.361 121.729 201.63 124.564C202.223 130.751 203.026 139.089 204.114 140.922C204.447 140.496 205.129 139.345 206.141 136.258L208.277 136.956C206.707 141.73 205.477 143.529 203.875 143.345C201.385 143.069 200.665 138.036 199.394 124.778C199.125 121.957 198.849 119.102 198.536 116.457C197.581 108.365 195.96 107.632 195.942 107.625C195.626 107.785 194.89 109.469 195.163 111.616C197.531 130.427 195.786 151.976 191.493 156.825C190.801 157.604 190.024 158 189.193 158" fill="white"/>
</g>
</g>
<defs>
<clipPath id="clip0_96_4">
<rect width="237" height="168.048" fill="white"/>
</clipPath>
</defs>
</svg>
