<svg id="Layer_1" data-name="Layer 1" xmlns="http://www.w3.org/2000/svg" viewBox="0 0 121.95 121.95"><defs><style>.cls-2-dotnet{stroke-width:0;fill:#fff !important;}</style></defs><path style="stroke-width:0;fill:#512bd4" d="M0 0h121.95v121.95H0z"/><path class="cls-2-dotnet" d="M21.73 77.91c-.86 0-1.6-.29-2.2-.86-.6-.59-.91-1.29-.91-2.1s.3-1.53.91-2.12c.6-.59 1.34-.88 2.2-.88s1.62.29 2.22.88c.62.59.93 1.3.93 2.12s-.31 1.51-.93 2.1c-.6.57-1.34.86-2.22.86ZM56.2 77.42h-5.6l-14.77-23.3c-.37-.59-.68-1.2-.93-1.83h-.13c.11.68.17 2.13.17 4.35v20.78h-4.96V45.73h5.97l14.27 22.74c.6.94.99 1.59 1.16 1.94h.09c-.14-.84-.22-2.26-.22-4.27V45.72h4.94v31.69ZM80.35 77.42H63V45.73h16.66v4.46H68.13v8.97h10.63v4.44H68.13v9.37h12.22v4.44ZM105.01 50.19h-8.88v27.23H91V50.19h-8.86v-4.46h22.87v4.46Z"/></svg>
