<svg viewBox="0 0 237 227" fill="none" xmlns="http://www.w3.org/2000/svg">
<path d="M94.8029 14.5645C97.9653 5.60308 109.722 3.53015 115.758 10.8693L147.398 49.3368C151.313 54.0966 157.107 56.9171 163.27 57.0672L213.106 58.2798C222.621 58.5111 228.209 69.0317 223.09 77.0295L196.228 118.988C194.585 121.553 193.515 124.442 193.09 127.458C192.665 130.473 192.895 133.546 193.766 136.464L207.99 184.182C210.701 193.274 202.422 201.86 193.206 199.465L144.964 186.931C142.015 186.164 138.936 186.041 135.936 186.57C132.936 187.099 130.084 188.267 127.576 189.997L86.5311 218.276C78.69 223.676 67.9733 218.441 67.41 208.97L64.4575 159.264C64.0921 153.112 61.0653 147.427 56.1669 143.685L16.5734 113.444C9.02702 107.68 10.6801 95.8822 19.5416 92.4105L65.9584 74.2257C71.6982 71.977 76.1776 67.3451 78.2283 61.5334L94.8029 14.5645Z" fill="#FFAFF3"/>
<path d="M103.459 2.31593C97.8364 3.30754 92.6968 7.04074 90.5689 13.07L73.992 60.0384C72.3757 64.6175 68.8505 68.2633 64.3252 70.0364L17.9066 88.2222C5.99534 92.8888 3.69199 109.272 13.8463 117.028L53.4397 147.266C55.3461 148.72 56.9163 150.569 58.0428 152.687C59.1694 154.803 59.826 157.139 59.9678 159.532L62.9187 209.237C63.6758 221.989 78.5498 229.243 89.0903 221.983L89.0905 221.982L130.138 193.703V193.702C132.114 192.34 134.362 191.419 136.725 191.002C139.089 190.585 141.515 190.682 143.838 191.287L192.081 203.819C204.469 207.038 215.965 195.133 212.315 182.89V182.891L198.091 135.174C197.406 132.876 197.225 130.457 197.559 128.082C197.893 125.707 198.737 123.433 200.031 121.414V121.413L226.895 79.4536L226.894 79.4533C233.784 68.6923 226.018 54.0855 213.229 53.7744L163.39 52.5637C158.532 52.4457 153.972 50.2256 150.889 46.4757L119.249 8.00932C115.188 3.07184 109.081 1.32188 103.458 2.31357M104.971 10.8981C107.527 10.4475 110.317 11.3302 112.292 13.7315L143.932 52.1968C148.676 57.9659 155.705 61.3863 163.171 61.5679L213.01 62.7786C219.25 62.9301 222.66 69.3637 219.308 74.5975L192.445 116.557C188.416 122.847 187.326 130.589 189.458 137.746L203.683 185.463C205.454 191.405 200.389 196.671 194.346 195.101L146.102 182.568C138.873 180.689 131.176 182.047 125.026 186.286L83.9784 214.565C78.8354 218.108 72.276 214.891 71.9079 208.702L68.9573 158.997C68.5146 151.541 64.8416 144.641 58.905 140.106L19.3117 109.868C14.3733 106.096 15.3774 98.885 21.1896 96.607L67.608 78.4209C74.5628 75.696 79.9973 70.0779 82.4836 63.0334V63.0331L99.0606 16.0649C100.096 13.133 102.416 11.349 104.971 10.8984" fill="#1A1A1A"/>
<path d="M89.0164 128.831C93.828 127.982 97.041 123.394 96.1927 118.584C95.3445 113.772 90.7564 110.56 85.9448 111.408C81.1331 112.257 77.9202 116.845 78.7684 121.656C79.6167 126.467 84.2049 129.68 89.0164 128.831Z" fill="#1A1A1A"/>
<path d="M160.293 116.263C165.104 115.415 168.317 110.827 167.468 106.015C166.621 101.204 162.033 97.9917 157.22 98.8403C152.41 99.6888 149.196 104.277 150.044 109.088C150.893 113.9 155.481 117.112 160.293 116.263Z" fill="#1A1A1A"/>
<path d="M117.328 126.86C116.776 127.073 116.272 127.392 115.843 127.8C115.415 128.208 115.071 128.696 114.832 129.237C114.592 129.778 114.461 130.36 114.447 130.951C114.432 131.543 114.535 132.131 114.747 132.683C115.304 134.121 116.137 135.436 117.201 136.553C118.265 137.67 119.538 138.565 120.949 139.188L120.95 139.19C122.358 139.813 123.876 140.153 125.417 140.19H125.419H125.421C126.961 140.226 128.493 139.96 129.931 139.405H129.932C131.37 138.85 132.685 138.016 133.801 136.952H133.802V136.951C134.918 135.888 135.813 134.615 136.437 133.207C137.063 131.796 137.403 130.275 137.439 128.732C137.467 127.539 137.02 126.383 136.196 125.518C135.37 124.654 134.237 124.153 133.042 124.125C132.451 124.111 131.863 124.214 131.312 124.427C130.76 124.641 130.255 124.961 129.828 125.369C129.4 125.777 129.056 126.265 128.818 126.807C128.579 127.347 128.448 127.931 128.435 128.522C128.426 128.879 128.347 129.231 128.202 129.558V129.559L128.201 129.561C128.055 129.889 127.847 130.185 127.588 130.432C127.328 130.68 127.023 130.874 126.689 131.002L126.686 131.003C126.351 131.133 125.994 131.195 125.635 131.187C125.277 131.178 124.923 131.098 124.596 130.953H124.593L124.592 130.951C124.265 130.806 123.97 130.599 123.722 130.34V130.339C123.474 130.079 123.281 129.774 123.151 129.438C122.938 128.887 122.619 128.382 122.211 127.954C121.802 127.526 121.315 127.182 120.773 126.943C120.233 126.703 119.65 126.573 119.058 126.558C118.467 126.544 117.88 126.646 117.328 126.86Z" fill="#1A1A1A"/>
</svg>
