<?xml version="1.0" encoding="UTF-8"?>
<svg id="Layer_2" data-name="Layer 2" xmlns="http://www.w3.org/2000/svg" viewBox="0 0 91.36 97.24">
  <defs>
    <style>
      .custom-icon-qwik-1 {
        fill: #ac7ef4;
      }

      .custom-icon-qwik-1, .custom-icon-qwik-2, .custom-icon-qwik-3 {
        stroke-width: 0px;
      }

      .custom-icon-qwik-2 {
        fill: #18b6f6;
      }

      .custom-icon-qwik-3 {
        fill: #fff;
      }
    </style>
  </defs>
  <g id="Layer_1-2" data-name="Layer 1">
    <path class="custom-icon-qwik-2" d="M80.35,97.24l-17.43-17.34-.25.04v-.18L25.61,43.1l9.15-8.82L29.38,3.44,3.91,35.04C-.41,39.4-1.25,46.54,1.89,51.79l15.92,26.42c2.43,4.05,6.26,6.66,11.6,6.46,11.3-.4,16.27-.4,16.27-.4l34.67,12.96h0s0,0,0,0Z"/>
    <path class="custom-icon-qwik-1" d="M88.96,48.64c2.51-5.18,3.41-9.7.93-14.25l-3.52-6.48-1.83-3.33-.71-1.3-.07.07-9.59-16.63C71.76,2.52,67.26-.05,62.41,0l-8.41.24-25.09.07c-4.74.03-9.11,2.55-11.51,6.63L2.16,37.22,29.44,3.27l35.79,39.36-6.41,6.49,3.82,30.79.05-.07v.09h-.05l.07.07,2.98,2.91,14.44,14.1c.61.59,1.59-.12,1.19-.84l-8.93-17.56"/>
    <path class="custom-icon-qwik-3" d="M65.32,42.54L29.43,3.38l5.1,30.66-9.13,8.86,37.19,36.96-3.35-30.68,6.09-6.63h0Z"/>
  </g>
</svg>
