<svg id="Layer_1" data-name="Layer 1" xmlns="http://www.w3.org/2000/svg" viewBox="0 0 116 116">
<defs>
</defs>
<g class="recipe-logo" id="logo"><path  id="r" d="M48.58 41.94h14.4c8.86 0 8.86 8.86 0 8.86h-14.4v-8.86ZM14.24 82.93h44.31V70.74h-9.97v-8.86h11.08c12.19 0 5.54 21.05 15.51 21.05h27.7V61.88h-6.65v2.22c0 8.86-9.97 7.75-11.08 2.22s-5.54-9.97-6.65-9.97c16.62-8.86 6.65-26.59-6.65-26.59H19.78v12.19h11.08v28.8H14.24v12.19Z" style="stroke-linejoin:round"/><g id="gear"><circle cx="58" cy="58" r="47.64" style="fill:none;stroke-width:9px;"/><g id="cogs"><path id="cog" class="cls-2" d="M108.96 61.32 114.5 58l-5.54-3.32v6.64z"/><path id="cog-2" data-name="cog" class="cls-3" d="m107.33 71.2 6.08-2.18-4.78-4.34-1.3 6.52z"/><path id="cog-3" data-name="cog" class="cls-4" d="m103.81 80.57 6.39-.95-3.85-5.19-2.54 6.14z"/><path id="cog-4" data-name="cog" class="cls-7" d="m98.53 89.08 6.45.31-2.76-5.84-3.69 5.53z"/><path id="cog-5" data-name="cog" class="cls-6" d="m91.68 96.38 6.27 1.57-1.57-6.27-4.7 4.7z"/><path id="cog-6" data-name="cog" class="cls-7" d="m83.55 102.22 5.84 2.76-.31-6.45-5.53 3.69z"/><path id="cog-7" data-name="cog" class="cls-5" d="m74.43 106.35 5.19 3.85.95-6.39-6.14 2.54z"/><path id="cog-8" data-name="cog" class="cls-3" d="m64.68 108.63 4.34 4.78 2.18-6.08-6.52 1.3z"/><path id="cog-9" data-name="cog" class="cls-2" d="M54.68 108.96 58 114.5l3.32-5.54h-6.64z"/><path id="cog-10" data-name="cog" class="cls-3" d="m44.8 107.33 2.18 6.08 4.34-4.78-6.52-1.3z"/><path id="cog-11" data-name="cog" class="cls-5" d="m35.43 103.81.95 6.39 5.19-3.85-6.14-2.54z"/><path id="cog-12" data-name="cog" class="cls-7" d="m26.92 98.53-.31 6.45 5.84-2.76-5.53-3.69z"/><path id="cog-13" data-name="cog" class="cls-6" d="m19.62 91.68-1.57 6.27 6.27-1.57-4.7-4.7z"/><path id="cog-14" data-name="cog" class="cls-7" d="m13.78 83.55-2.76 5.84 6.45-.31-3.69-5.53z"/><path id="cog-15" data-name="cog" class="cls-4" d="M9.65 74.43 5.8 79.62l6.39.95-2.54-6.14z"/><path id="cog-16" data-name="cog" class="cls-3" d="m7.37 64.68-4.78 4.34 6.08 2.18-1.3-6.52z"/><path id="cog-17" data-name="cog" class="cls-2" d="M7.04 54.68 1.5 58l5.54 3.32v-6.64z"/><path id="cog-18" data-name="cog" class="cls-3" d="m8.67 44.8-6.08 2.18 4.78 4.34 1.3-6.52z"/><path id="cog-19" data-name="cog" class="cls-4" d="m12.19 35.43-6.39.95 3.85 5.19 2.54-6.14z"/><path id="cog-20" data-name="cog" class="cls-7" d="m17.47 26.92-6.45-.31 2.76 5.84 3.69-5.53z"/><path id="cog-21" data-name="cog" class="cls-6" d="m24.32 19.62-6.27-1.57 1.57 6.27 4.7-4.7z"/><path id="cog-22" data-name="cog" class="cls-7" d="m32.45 13.78-5.84-2.76.31 6.45 5.53-3.69z"/><path id="cog-23" data-name="cog" class="cls-5" d="M41.57 9.65 36.38 5.8l-.95 6.39 6.14-2.54z"/><path id="cog-24" data-name="cog" class="cls-3" d="m51.32 7.37-4.34-4.78-2.18 6.08 6.52-1.3z"/><path id="cog-25" data-name="cog" class="cls-2" d="M61.32 7.04 58 1.5l-3.32 5.54h6.64z"/><path id="cog-26" data-name="cog" class="cls-3" d="m71.2 8.67-2.18-6.08-4.34 4.78 6.52 1.3z"/><path id="cog-27" data-name="cog" class="cls-5" d="m80.57 12.19-.95-6.39-5.19 3.85 6.14 2.54z"/><path id="cog-28" data-name="cog" class="cls-7" d="m89.08 17.47.31-6.45-5.84 2.76 5.53 3.69z"/><path id="cog-29" data-name="cog" class="cls-6" d="m96.38 24.32 1.57-6.27-6.27 1.57 4.7 4.7z"/><path id="cog-30" data-name="cog" class="cls-7" d="m102.22 32.45 2.76-5.84-6.45.31 3.69 5.53z"/><path id="cog-31" data-name="cog" class="cls-4" d="m106.35 41.57 3.85-5.19-6.39-.95 2.54 6.14z"/><path id="cog-32" data-name="cog" class="cls-3" d="m108.63 51.32 4.78-4.34-6.08-2.18 1.3 6.52z"/></g><g id="mounts"><path id="mount" style="stroke-width:6px;stroke-linejoin:round" d="M50.25 11.47 58 19.23l7.75-7.76h-15.5z"/><path id="mount-2" data-name="mount" class="cls-10" d="m99.86 36.25-4.98 9.77 9.77 4.98-4.79-14.75z"/><path id="mount-3" data-name="mount" class="cls-8" d="m91.62 91.08-10.83-1.71-1.71 10.83 12.54-9.12z"/><path id="mount-4" data-name="mount" class="cls-8" d="m36.92 100.2-1.71-10.83-10.83 1.71 12.54 9.12z"/><path id="mount-5" data-name="mount" class="cls-10" d="m11.35 51 9.77-4.98-4.98-9.77L11.35 51z"/></g></g></g></svg>
